<svg width="95" height="87" viewBox="0 0 95 87" fill="none" xmlns="http://www.w3.org/2000/svg">
<path d="M38.6037 5.14973C40.1304 4.84932 42.2103 4.52745 43.2502 4.44162C44.2902 4.33433 45.7727 4.2485 46.5692 4.2485C47.3658 4.22704 49.158 4.29141 50.552 4.3987C51.9459 4.50599 54.1807 4.8064 55.5304 5.0639C56.8801 5.32139 59.0043 5.8793 60.2876 6.26554C61.571 6.67324 63.6951 7.53155 65.0448 8.15383C66.3945 8.77611 68.5187 9.97775 69.802 10.7932C71.0854 11.63 72.9661 13.0248 74.006 13.9045C75.046 14.7843 76.4842 16.1791 77.2365 16.9945C77.9888 17.8099 79.2058 19.2905 79.9802 20.299C80.7325 21.3075 81.8831 23.0027 82.5247 24.0541C83.1664 25.1056 84.1621 26.9724 84.7153 28.1955C85.2684 29.3971 86.065 31.4785 86.4854 32.8089C86.9058 34.1179 87.3926 36.328 87.5696 37.6799C87.7687 39.0317 87.99 41.0273 88.0564 42.0787C88.1449 43.1302 88.1006 45.4047 87.9679 47.1213C87.7908 49.353 87.5253 51.0481 86.9722 53.1296C86.5739 54.7174 85.7552 57.1422 85.1799 58.494C84.6268 59.8459 83.786 61.584 83.3656 62.3564C82.923 63.1289 81.9495 64.6095 81.2193 65.661C80.467 66.7339 78.8739 68.6007 77.6569 69.8238C76.44 71.0684 74.692 72.6777 73.7848 73.4073C72.8776 74.1368 71.373 75.2097 70.4658 75.8105C69.5586 76.4114 67.7664 77.4199 66.483 78.0851C65.1997 78.7288 63.2083 79.63 62.0577 80.0807C60.9072 80.5098 58.96 81.1535 57.7431 81.4969C56.5261 81.8402 54.6232 82.2479 53.539 82.4196C52.4548 82.6127 50.3528 82.8058 48.8925 82.8702C47.41 82.956 45.0204 82.8916 43.4715 82.7629C41.9448 82.6341 39.7542 82.3123 38.6037 82.0762C37.4531 81.8617 35.3068 81.2608 33.8465 80.7888C32.3861 80.2952 30.1071 79.3511 28.7574 78.6859C27.4077 78.0207 25.2393 76.7547 23.8896 75.8749C22.562 74.9951 20.3936 73.257 19.066 72.0125C17.7384 70.7679 16.0347 69.0298 15.3045 68.1501C14.5743 67.2703 13.3795 65.6824 12.6714 64.6095C11.9413 63.5366 10.8792 61.7127 10.2818 60.5325C9.68436 59.3523 8.77717 57.1851 8.26826 55.7045C7.75935 54.2239 7.16194 52.0567 6.91855 50.8765C6.67516 49.6319 6.45389 47.2072 6.36539 45.0828C6.29901 42.7654 6.34326 40.5981 6.49815 39.1819C6.65303 37.9374 6.9628 36.0491 7.22832 34.9976C7.47171 33.9462 8.02487 32.1008 8.44528 30.9206C8.86568 29.7405 9.68436 27.8522 10.2818 26.7364C10.8571 25.6205 11.7421 24.0327 12.2732 23.1958C12.8042 22.3589 13.822 20.9213 14.5743 19.9771C15.3045 19.033 16.7206 17.4451 17.6941 16.458C18.6677 15.471 20.2608 14.0118 21.2344 13.2179C22.2079 12.424 24.0002 11.1365 25.2171 10.364C26.4341 9.59151 28.3812 8.51861 29.5318 8.00363C30.6824 7.46718 32.5853 6.73761 33.7358 6.37283C34.8864 5.98658 37.0769 5.45014 38.6037 5.14973Z" fill="#EFDAB3"/>
<path d="M0.811639 66.8626C1.07716 66.6909 1.7852 66.2832 2.40475 65.9614C3.02429 65.6395 3.66595 65.382 3.79871 65.3605C3.9536 65.3605 4.17486 65.5966 4.30762 65.897C4.41826 66.1974 4.52889 67.0128 4.52889 67.7209C4.52889 68.9226 4.48463 69.0084 4.01998 69.0084C3.75446 69.0084 2.98003 68.8582 2.31624 68.6865C1.65244 68.5149 0.833765 68.3647 0.479741 68.3647C0.0593381 68.3647 -0.0734209 68.2788 0.0372116 68.1072C0.125718 67.957 0.23635 67.678 0.258476 67.5063C0.302729 67.3347 0.546121 67.0343 0.811639 66.8626Z" fill="#EFDAB3"/>
<path d="M92.659 66.9281L92.6587 66.927C92.5923 66.648 92.6144 66.4334 92.7251 66.4334C92.8357 66.4334 93.3667 66.8411 93.9199 67.3132C94.473 67.7853 94.8713 68.2144 94.8049 68.2574C94.7386 68.3003 94.1411 68.3861 93.4773 68.4505C92.8136 68.5149 92.4374 68.5149 92.6587 68.4719C92.9242 68.3861 92.9906 68.2359 92.9021 67.8926C92.8358 67.614 92.7254 67.1858 92.659 66.9281Z" fill="#EFDAB3"/>
<path d="M2.31624 75.2312C2.449 74.9951 3.13492 74.1797 3.88722 73.4073C4.63952 72.6348 5.28119 72.0125 5.32544 72.0125C5.36969 72.0125 5.36969 72.1842 5.34757 72.3987C5.30331 72.5919 5.39182 73.021 5.56883 73.3643C5.85648 73.9437 5.85648 73.9437 4.48463 74.6089C3.71021 74.9951 2.8694 75.3814 2.60388 75.4672C2.13923 75.6389 2.1171 75.6174 2.31624 75.2312Z" fill="#EFDAB3"/>
<path d="M89.7159 73.9437C90.092 73.5789 90.1141 73.4287 89.915 72.9352L89.6937 72.3344L90.2469 72.8708C90.5567 73.1712 90.7337 73.5145 90.6452 73.6218C90.5567 73.7506 90.6009 73.772 90.7115 73.6862C90.8443 73.6004 91.1319 73.7935 91.3975 74.1154C91.663 74.4372 91.9285 74.9093 91.9949 75.1883C92.0834 75.4458 92.0834 75.6389 91.9728 75.596C91.8842 75.553 91.2426 75.2741 89.2733 74.3729L89.7159 73.9437Z" fill="#EFDAB3"/>
<path d="M37.0549 1.07281C38.4489 0.750941 40.6394 0.364699 41.9228 0.214494C43.4052 0.0428309 45.817 -0.0430006 48.5607 0.0213731C52.2558 0.0857467 53.34 0.193036 56.1944 0.750941C58.0087 1.09427 60.509 1.71655 61.726 2.12425C62.9429 2.53195 64.4918 3.06839 65.1556 3.32589C65.8194 3.58338 67.324 4.29149 68.4745 4.89231C69.6251 5.49313 71.3731 6.4802 72.3467 7.08102C73.3203 7.70329 75.1567 9.0766 76.4401 10.1495C77.7234 11.2224 79.3608 12.7674 80.1131 13.5828C80.8433 14.3767 82.1045 15.8573 82.901 16.8658C83.6976 17.8743 84.7375 19.312 85.2243 20.0845C85.7111 20.857 86.7731 22.7453 87.5697 24.2688C88.3663 25.7923 89.3841 28.0668 89.7823 29.3114C90.2028 30.5559 90.7559 32.4871 91.0214 33.603C91.2648 34.7188 91.6189 36.8002 91.818 38.2164C92.0171 39.697 92.1941 42.3578 92.1941 44.4392C92.1941 46.4562 92.0835 49.0526 91.9286 50.2328C91.7959 51.413 91.464 53.2584 91.2427 54.3098C90.9993 55.3612 90.6232 56.8848 90.3798 57.6787C90.1364 58.4941 89.8709 59.1378 89.7602 59.1378C89.6717 59.1378 89.4505 59.4597 89.2292 59.8245C89.0301 60.2107 88.8752 60.833 88.8752 61.1763C88.8973 61.5197 88.6318 62.3565 88.322 63.0003C87.9901 63.644 87.7467 64.2019 87.791 64.2019C87.8131 64.2233 88.4756 64.4375 89.2711 64.6947L89.2734 64.6954C90.07 64.9529 91.1542 65.3821 91.6852 65.6396C92.4597 66.0258 92.6588 66.2404 92.703 66.7554C92.7252 67.0987 92.8137 67.6137 92.9022 67.8712C92.9907 68.2574 92.9464 68.3647 92.6367 68.3862C92.3269 68.3862 92.3269 68.4291 92.703 68.5793C93.1013 68.751 93.1013 68.7724 92.5924 68.7724C92.2826 68.7939 90.9772 69.0514 89.6496 69.3732C88.3441 69.7166 87.2599 70.017 87.2599 70.0814C87.2599 70.1457 87.791 70.5963 88.4326 71.0899C89.0743 71.5834 89.9151 72.313 90.2691 72.6992C90.9108 73.3859 90.9108 73.3859 89.6938 72.3344L89.9151 72.9138C90.1143 73.4288 90.0921 73.579 89.716 73.9438C89.4726 74.1798 89.3398 74.4373 89.4283 74.5017C89.539 74.5661 89.4283 74.5661 89.2071 74.5017C88.9858 74.4158 88.8973 74.2656 88.9858 74.1154C89.1038 73.9295 89.0522 73.8794 88.8309 73.9652C88.6539 74.0511 87.5918 73.8794 86.5076 73.6004C85.4234 73.3215 84.0516 73.1069 83.4542 73.1069C82.8789 73.0855 82.4364 73.0211 82.4806 72.9138C82.5027 72.828 83.0338 71.798 83.6533 70.6178C84.2729 69.4376 85.6226 66.7768 86.6183 64.7169C87.6361 62.6569 88.7867 59.9962 89.2071 58.816C89.6275 57.6358 90.2028 55.5115 90.4904 54.0952C90.778 52.679 91.1321 50.4689 91.2427 49.1599C91.3755 47.851 91.4861 45.8769 91.4861 44.7611C91.4861 43.6452 91.3755 41.5638 91.2427 40.1476C91.1099 38.7314 90.778 36.4139 90.4904 34.9977C90.2028 33.5815 89.4947 31.1138 88.9416 29.526C88.3663 27.9381 87.3042 25.5133 86.574 24.1615C85.8438 22.8096 84.6269 20.7711 83.8746 19.6553C83.1223 18.5395 81.9275 16.9516 81.2194 16.1148C80.4892 15.2779 79.2059 13.9046 78.343 13.0463C77.48 12.1665 76.0197 10.8791 75.1125 10.1495C74.2053 9.41992 72.5458 8.28266 71.4616 7.596C70.3774 6.90935 68.2754 5.77209 66.8151 5.06398C65.3547 4.35587 62.9429 3.41172 61.4383 2.91819C59.9559 2.44611 57.3671 1.80238 55.6854 1.50197C53.6277 1.13718 51.5257 0.922604 49.1139 0.836773C47.034 0.772399 44.4894 0.815315 42.9185 0.96552C41.4581 1.11572 39.0685 1.48051 37.6081 1.78092C36.1478 2.08133 33.7138 2.74652 32.1871 3.28297C30.6604 3.81942 28.1822 4.87085 26.6555 5.62188C25.1288 6.39436 22.9825 7.63892 21.8983 8.38995C20.8141 9.16243 19.1546 10.4284 18.2474 11.2224C17.3402 11.9949 15.6586 13.6257 14.5302 14.8059C13.4017 16.0075 11.9414 17.7027 11.2997 18.5824C10.6359 19.4622 9.55172 21.0716 8.88792 22.123C8.24626 23.1744 7.25056 25.0627 6.6974 26.3073C6.12211 27.5518 5.30343 29.6762 4.8609 31.028C4.4405 32.3799 3.86521 34.5471 3.62182 35.856C3.28992 37.5298 3.11291 39.461 3.04653 42.508C2.95803 45.2117 3.02441 47.6364 3.20142 49.0526C3.33418 50.2972 3.64395 52.2284 3.88734 53.3442C4.13073 54.46 4.57326 56.1552 4.88303 57.0993C5.21493 58.0435 5.96723 59.9747 6.56464 61.3909C7.18418 62.8071 7.75947 64.0732 7.84798 64.1804C7.95861 64.2877 8.202 64.8671 8.40114 65.4679C8.60028 66.0473 9.50746 67.9356 10.4147 69.6522C11.3218 71.3688 12.0299 72.785 12.0078 72.8065C11.9635 72.828 11.1891 72.9567 10.2819 73.0855C9.37471 73.1927 7.91436 73.4932 7.07355 73.7292C6.23275 73.9867 5.59108 74.094 5.67958 74.0081C5.76809 73.9223 5.72384 73.6004 5.54682 73.3C5.39194 72.9996 5.30343 72.5705 5.36981 72.3344C5.43619 72.0126 5.17067 72.1628 4.37412 72.8709L4.34245 72.8995C3.42227 73.7296 3.40825 73.7422 4.08648 72.9996C4.50688 72.549 5.43619 71.7122 7.40545 70.0814L5.79022 69.6307C4.92728 69.3947 4.08648 69.1587 3.97584 69.1158C3.86521 69.0728 3.93159 69.0299 4.13073 69.0299C4.46263 69.0085 4.52901 68.7939 4.52901 67.6566C4.52901 66.927 4.39625 66.0902 4.21924 65.7898C3.93159 65.2533 3.93159 65.2533 5.45832 64.7598C6.277 64.5023 6.96292 64.1804 6.96292 64.0732C6.96292 63.9659 6.6974 63.3436 6.3655 62.7213C6.05573 62.1205 5.34769 60.3395 4.81665 58.816C4.28561 57.2925 3.59969 55.0179 3.28992 53.7734C2.98015 52.5288 2.604 50.5547 2.42699 49.3745C2.24998 48.1943 2.09509 45.6408 2.09509 43.6882C2.09509 41.6926 2.22785 39.2464 2.40486 38.1091C2.58188 36.9933 3.02441 34.9119 3.37843 33.4957C3.75458 32.0794 4.30774 30.1482 4.63964 29.2041C4.97154 28.2599 5.76809 26.436 6.38763 25.1271C7.0293 23.8182 8.1135 21.887 8.77729 20.8355C9.46321 19.7841 10.7023 18.0245 11.5431 16.9731C12.3839 15.9217 14.2204 13.9261 15.6144 12.5528C17.0083 11.1795 19.0882 9.37701 20.2388 8.54015C21.3894 7.72475 23.425 6.43728 24.7747 5.68625C26.1245 4.93523 28.0052 4.01254 28.9788 3.60484C29.9523 3.19714 31.5897 2.59632 32.6296 2.25299C33.6696 1.90967 35.661 1.37322 37.0549 1.07281Z" fill="#EFDAB3"/>
<path d="M13.7779 72.3773C13.0698 71.4761 12.4945 70.6822 12.5167 70.6178C12.5167 70.5534 12.8264 70.8538 13.2247 71.3045C13.6009 71.7551 14.3974 72.6348 15.017 73.2786C15.6365 73.9009 17.3402 75.36 18.8006 76.4973C20.2609 77.6345 22.2081 79.0078 23.1153 79.5657C24.0224 80.1236 26.0138 81.1536 27.5406 81.8403C29.0673 82.5484 31.3463 83.4496 32.6296 83.8788C33.913 84.2865 36.1035 84.8658 37.4975 85.1662C38.8914 85.4667 41.082 85.8314 42.3653 85.9816C43.8256 86.1319 46.1711 86.1962 48.6713 86.1104C51.2601 86.0246 53.4949 85.8314 55.088 85.531C56.4377 85.295 58.5619 84.7585 59.8452 84.3508C61.1286 83.9431 62.8544 83.3638 63.7174 83.0634C64.5803 82.763 66.2176 82.0334 67.3682 81.4755C68.5188 80.9176 70.3111 79.9091 71.351 79.2653C72.3909 78.6216 74.0283 77.5487 75.0019 76.8835C75.9754 76.1968 76.8162 75.7248 76.8826 75.7892C76.949 75.8535 76.5065 76.3471 75.8869 76.8835C75.2895 77.3985 73.6964 78.5358 72.3467 79.4155C70.997 80.2738 68.895 81.4755 67.6337 82.0763C66.3947 82.6771 64.6024 83.4711 63.6731 83.8359C62.7217 84.2006 60.7524 84.8229 59.2921 85.2092C57.8317 85.5954 55.4863 86.0889 54.0923 86.3035C52.2558 86.561 50.2423 86.6683 46.9012 86.6683C43.5823 86.6683 41.613 86.5825 40.042 86.325C38.8251 86.1318 36.6788 85.6812 35.2848 85.3594C33.8909 85.016 31.3906 84.2221 29.7532 83.5784C28.1158 82.9346 25.7262 81.8403 24.4428 81.1322C23.1595 80.4026 21.5221 79.3941 20.792 78.8791C20.0618 78.3641 18.7121 77.3127 17.8049 76.5402C16.8977 75.7677 15.902 74.9094 15.6144 74.609C15.3267 74.2871 14.4859 73.3 13.7779 72.3773Z" fill="#EFDAB3"/>
<path d="M2.02863 44.6536C1.98438 45.2544 1.96225 44.8038 1.96225 43.688C1.96225 42.5722 1.98438 42.0786 2.02863 42.6151C2.07288 43.1515 2.07288 44.0528 2.02863 44.6536Z" fill="#EFDAB3"/>
<path d="M91.4196 46.3702C91.3975 47.2071 91.3532 46.4775 91.3532 44.7609C91.3532 43.0442 91.3975 42.379 91.4196 43.2588C91.4639 44.1386 91.4639 45.5333 91.4196 46.3702Z" fill="#EFDAB3"/>
<path d="M89.2955 59.7814C89.4504 59.481 89.6716 59.1376 89.7823 59.0089C89.915 58.8587 90.0257 58.7729 90.0257 58.7943C90.0478 58.8372 89.8486 59.4166 89.5831 60.1247C89.3176 60.8114 89.0742 61.3049 89.0078 61.1761C88.9415 61.0474 88.8308 60.6612 88.7423 60.3178C88.6391 59.8887 88.6612 59.7814 88.8087 59.996C88.9636 60.2535 89.0521 60.232 89.2955 59.7814Z" fill="#EFDAB3"/>
<path d="M75.1124 72.4415C75.046 72.4415 75.7541 71.712 76.6613 70.8322C77.5684 69.9524 78.365 69.2228 78.4092 69.2228C78.4756 69.2228 77.7897 69.9524 76.8825 70.8322C75.9753 71.712 75.1788 72.4415 75.1124 72.4415Z" fill="#EFDAB3"/>
<path d="M13.7335 72.3772C13.6229 72.4844 13.6008 72.4415 13.6893 72.2699C13.7778 72.1411 13.8884 72.0124 13.9548 72.0124C14.0212 72.0124 14.7735 72.7634 17.2516 75.3383L15.5922 73.7719C14.685 72.9136 13.8442 72.2913 13.7335 72.3772Z" fill="#EFDAB3"/>
<path d="M48.5606 86.9677C48.0075 87.0106 47.0118 87.0106 46.348 86.9677C45.6842 86.9248 46.1267 86.9033 47.3437 86.9033C48.5606 86.9033 49.1138 86.9248 48.5606 86.9677Z" fill="#8D7D5E"/>
<path d="M58.5397 64.3957L58.9822 63.7091C59.2256 63.3228 59.469 63.001 59.5132 63.001C59.5575 63.001 59.6017 63.1297 59.5796 63.2799C59.5796 63.4087 59.5796 63.6876 59.6017 63.8593C59.6017 64.031 59.6681 64.1168 59.7345 64.031C59.8009 63.9237 60.1107 64.0095 60.4426 64.1812C60.7966 64.3528 61.1063 64.3957 61.1727 64.3099C61.2391 64.2026 61.6153 64.0524 61.9914 63.988C62.3897 63.9237 62.7216 63.9022 62.7216 63.9666C62.7216 64.031 62.4118 64.2241 62.0578 64.3957C61.7038 64.5674 61.1727 64.7176 60.8851 64.7176C60.6196 64.7176 59.9779 64.6532 58.5397 64.3957Z" fill="#515647"/>
<path d="M60.3538 58.3009C60.5087 58.0004 61.0619 57.5498 61.615 57.2709C62.1461 56.9919 62.6771 56.7773 62.7877 56.7773C62.8984 56.7773 63.009 57.0778 63.0754 57.4211C63.1418 57.9146 63.363 58.1506 63.9826 58.4296C64.4251 58.6442 64.9119 59.009 65.0668 59.245C65.2438 59.481 65.3987 59.9317 65.4208 60.275C65.465 60.7041 65.5757 60.8329 65.8191 60.7471C66.0846 60.6398 66.1067 60.6612 65.8633 60.8973C65.7084 61.0475 65.5978 61.262 65.5978 61.3908C65.5978 61.5195 65.7084 61.4552 65.8191 61.2835C66.0182 61.0045 66.0625 61.0045 66.2395 61.2835C66.3501 61.4552 66.3722 61.7341 66.3058 61.9058C66.2173 62.0774 65.5535 62.5495 64.8234 62.9572C64.0932 63.3649 63.363 63.7082 63.2303 63.7297C63.0754 63.7512 62.9426 63.7941 62.9426 63.8584C62.9426 63.9228 62.5665 63.9872 62.1018 64.0086C61.6593 64.0516 61.2389 64.1589 61.1725 64.2876C61.1061 64.3949 60.8185 64.3734 60.4645 64.1803C60.1104 64.0086 59.8007 63.9228 59.7343 64.0086C59.6679 64.1159 59.6015 64.0301 59.6015 63.8584C59.5794 63.6868 59.5794 63.3864 59.6015 63.2147C59.6236 63.0216 59.4688 63.1074 59.2032 63.4293C58.7828 63.9228 58.7386 63.9228 58.7386 63.5366C58.7386 63.3005 58.8935 62.5281 59.0705 61.8199C59.2475 61.1118 59.4024 60.2321 59.4024 59.8887C59.4245 59.3308 59.4688 59.3094 59.6236 59.6742C59.7564 59.996 59.8228 59.8458 59.8449 59.0304C59.867 58.4296 59.9334 58.1506 59.9998 58.3867C60.0883 58.7944 60.1104 58.7729 60.3538 58.3009Z" fill="#4B4E40"/>
<path d="M23.5577 41.6496C23.0488 41.1561 23.0045 40.9415 23.0045 39.2034C23.0045 37.7657 23.0709 37.3366 23.2922 37.4439C23.447 37.5082 23.5134 37.5941 23.447 37.6155C23.3807 37.6585 23.6683 38.1734 24.0445 38.7957C24.4427 39.3965 25.1729 40.2334 25.6597 40.6196C26.1465 41.0273 26.3677 41.3063 26.1686 41.2419C25.9031 41.1561 25.7703 41.2205 25.7703 41.435C25.7703 41.6282 25.4384 41.8427 24.9516 41.9715C24.1993 42.1646 24.0445 42.1217 23.5577 41.6496Z" fill="#555A4A"/>
<path d="M41.104 68.7295C40.9491 68.6436 40.7278 68.4076 40.6172 68.193C40.4402 67.8712 40.5287 67.8497 41.458 67.9784C42.0112 68.0643 43.914 68.193 45.6842 68.2788C47.8526 68.3861 49.5342 68.3432 50.8839 68.1501C52.654 67.9141 52.8974 67.9355 53.0965 68.2359C53.2293 68.4076 53.4727 68.5793 53.6497 68.5793C53.8267 68.6007 53.5833 68.7938 53.0965 69.0299C52.4106 69.3732 52.2779 69.5234 52.5434 69.6522C52.7868 69.7809 52.4991 69.9311 51.5477 70.2101C50.8175 70.4032 49.7776 70.5963 49.2244 70.6392C48.6712 70.6821 48.1845 70.768 48.1402 70.8323C48.0959 70.8967 47.6534 70.9396 47.1888 70.9396C46.7241 70.9396 46.348 70.8753 46.348 70.768C46.348 70.6821 46.0824 70.6392 45.7948 70.6607C45.485 70.7036 45.2416 70.6178 45.2416 70.5105C45.2416 70.4032 45.0867 70.3388 44.9097 70.4032C44.7327 70.4676 44.5778 70.4032 44.5778 70.2959C44.5778 70.1886 44.423 70.1242 44.2459 70.1886C44.0689 70.253 43.7592 70.1457 43.5821 69.974C43.4051 69.8024 43.206 69.7165 43.1396 69.8024C43.0732 69.9096 43.029 69.8453 43.029 69.6951C43.029 69.5663 42.9405 69.4805 42.8077 69.5449C42.675 69.6092 42.5865 69.5449 42.5865 69.4376C42.5865 69.3303 42.4979 69.2659 42.3652 69.3303C42.2324 69.3947 42.0997 69.2659 42.0333 69.0513C41.9669 68.8582 41.8342 68.7509 41.7456 68.8368C41.6571 68.9226 41.4359 68.8153 41.2589 68.6222C41.0819 68.4076 41.0155 68.3861 41.1482 68.5578C41.3031 68.7938 41.3031 68.8368 41.104 68.7295Z" fill="#555A4A"/>
<path d="M44.5336 74.3085C44.5115 73.9008 44.5778 73.5146 44.6885 73.4502C44.7991 73.3644 44.9097 73.3 44.954 73.3C44.9982 73.3 45.0204 73.7291 45.0204 74.2656C45.0204 74.845 44.9319 75.1883 44.7991 75.1239C44.6663 75.0595 44.5557 74.6948 44.5336 74.3085Z" fill="#555A4A"/>
<path d="M59.1812 61.2826C59.0485 61.6259 59.0042 61.068 59.0042 59.6303L59.0044 59.6161C59.0263 57.5485 59.0272 57.4636 59.4246 57.6991C59.7565 57.8922 59.845 58.1926 59.8229 59.0295C59.8229 59.8234 59.7565 59.9951 59.6238 59.6732C59.4689 59.3084 59.4246 59.3728 59.4025 59.9951C59.3804 60.4028 59.2697 60.9821 59.1812 61.2826Z" fill="#454739"/>
<path d="M69.1603 72.4406C69.0275 72.4406 68.9169 72.3334 68.9169 72.2261C68.9169 72.1188 69.0275 72.0115 69.1381 72.0115C69.2709 72.0115 69.4037 72.1402 69.4479 72.269C69.4922 72.4192 69.4258 72.7196 69.3373 72.9127C69.2266 73.1273 68.9169 73.299 68.6514 73.2775C68.3121 73.2632 68.2531 73.2203 68.4743 73.1488C68.6514 73.0629 68.939 72.8913 69.0939 72.7196C69.2709 72.5479 69.293 72.4406 69.1603 72.4406Z" fill="#454739"/>
<path d="M58.0527 66.2831C58.0306 66.1758 58.0306 66.047 58.0527 65.9612C58.0527 65.8539 58.1191 65.7896 58.1855 65.7896C58.2519 65.7896 58.5395 65.9183 58.8493 66.0685C59.159 66.1973 59.4024 66.4333 59.4024 66.5406C59.4024 66.6479 59.0705 67.0985 58.6723 67.5062C58.2961 67.9139 57.8093 68.5362 57.6323 68.8795C57.4553 69.2228 56.703 69.9524 55.9728 70.5103C54.8222 71.3901 54.4461 71.5617 53.207 71.7119C52.0122 71.8621 51.7467 71.9909 51.7024 72.3342C51.6582 72.5702 51.7688 72.935 51.9679 73.1496C52.2998 73.4715 52.2998 73.5358 51.9458 73.7933C51.7467 73.9221 51.2378 74.0508 50.7952 74.0723C50.2863 74.0723 49.6889 73.9006 48.2728 72.9779L49.3128 72.935C50.2863 72.8707 50.3306 72.8492 50.2199 72.2913C50.1093 71.7548 50.1314 71.7334 50.3748 72.0553C50.5297 72.2698 50.7288 72.42 50.8395 72.4415C50.928 72.4415 50.9501 72.2913 50.8837 72.1196C50.8174 71.9265 50.9501 71.7548 51.2156 71.6905C51.459 71.6261 51.6582 71.4544 51.6582 71.3257C51.6582 71.1755 51.8794 70.918 52.1449 70.7678C52.6096 70.5317 52.5432 70.5317 50.6625 70.7249L51.8794 70.3386C52.5432 70.124 53.8044 69.5876 54.6452 69.1584C55.5082 68.7293 56.5039 68.0855 56.8579 67.7208C57.234 67.356 57.5217 66.8839 57.5217 66.6908C57.5217 66.4977 57.6544 66.3475 57.8093 66.3904C57.9421 66.4118 58.0527 66.3689 58.0527 66.2831Z" fill="#EFDAB3"/>
<path d="M38.0504 67.2916C37.8734 67.2916 37.7185 67.1843 37.7185 67.077C37.7185 66.9697 37.8955 66.8624 38.1168 66.8624C38.3159 66.8624 38.8469 67.077 39.2673 67.3345C39.6877 67.5706 40.2188 68.0212 40.44 68.3001C40.6392 68.5576 41.7455 69.2443 42.8739 69.7807C43.9803 70.3172 45.3964 70.8322 45.9938 70.8965C46.5691 70.9824 47.1001 71.1111 47.1444 71.2184C47.1886 71.3042 47.0116 71.3901 46.7461 71.3901C46.3921 71.4115 46.3478 71.433 46.6354 71.4973C46.8346 71.5403 47.0116 71.6476 47.0116 71.7548C47.0116 71.8407 46.9231 72.2269 46.7903 72.6132C46.6133 73.1281 46.6576 73.4715 46.901 74.0079C47.1001 74.3727 47.2329 74.716 47.2329 74.7589C47.2329 74.7804 47.0559 74.8448 46.8567 74.8877C46.5912 74.9306 46.3257 74.7375 46.0823 74.3512C45.861 74.0079 45.684 73.5788 45.684 73.4071C45.684 73.2354 45.5955 73.0423 45.4627 72.9779C45.3521 72.9136 45.0423 72.9136 44.799 72.9779C44.4671 73.0638 44.3564 73.2569 44.3564 73.8363C44.3564 74.4585 44.29 74.5873 43.9139 74.5444C43.6484 74.5015 43.3829 74.244 43.2501 73.8363C43.1395 73.4929 42.8076 72.9136 42.542 72.5488C42.2544 72.2055 42.011 71.7119 41.9668 71.4759C41.9446 71.2399 41.8119 70.9394 41.6791 70.8322C41.5685 70.7249 41.48 70.4459 41.48 70.2528C41.48 70.0382 41.3251 69.8236 41.1481 69.7593C40.9711 69.6949 40.8162 69.5447 40.8162 69.4374C40.8162 69.3301 40.5507 68.9653 40.2188 68.622C39.8647 68.3001 39.3337 67.871 39.0018 67.6564C38.6478 67.4633 38.2274 67.2916 38.0504 67.2916Z" fill="#EFDAB3"/>
<path d="M49.9988 15.7932C50.0652 15.8575 50.4856 15.7932 50.9282 15.643C51.3928 15.4928 52.4106 15.3855 53.2072 15.364C54.402 15.364 54.8888 15.4713 56.0836 16.0507C56.9908 16.5013 57.6546 16.9948 58.2742 18.0462L57.4555 18.0677C57.0129 18.0892 56.8581 18.0462 57.1457 18.0248C57.4112 17.9819 57.6325 17.7888 57.6325 17.6171C57.6325 17.4025 57.5071 17.3381 57.2563 17.424C56.9244 17.5313 56.9244 17.5098 57.19 17.3381C57.4555 17.1665 57.3891 17.0377 56.7474 16.6729C56.327 16.4154 55.8402 16.2652 55.7075 16.3296C55.5526 16.394 55.4641 16.3296 55.5305 16.2223C55.5968 16.0936 55.4862 15.9648 55.3092 15.9005C55.1322 15.8361 54.9773 15.879 54.9773 16.0078C54.9773 16.115 54.8224 16.1794 54.6454 16.115C54.4684 16.0507 54.2471 16.1365 54.1586 16.2652C54.0259 16.4798 54.0701 16.4798 54.3135 16.3296C54.5569 16.1794 54.6012 16.1794 54.4684 16.3725C54.3356 16.5871 54.2471 16.5871 53.9374 16.3725C53.6497 16.158 53.6055 16.158 53.7161 16.3725C53.8046 16.5227 53.7382 16.7373 53.6055 16.8661C53.4137 17.0091 53.0597 17.002 52.5434 16.8446C52.123 16.6944 50.9503 16.63 49.9546 16.6729C48.9368 16.7159 48.1181 16.6944 48.1181 16.5871C48.1181 16.5013 48.2287 16.4369 48.3394 16.4369C48.4721 16.4369 48.6491 16.4154 48.7598 16.3725C48.8704 16.3511 49.0474 16.2652 49.158 16.1794C49.2465 16.0936 49.4678 16.0721 49.6227 16.1365C49.7555 16.1794 49.8882 16.0936 49.8882 15.9434C49.8882 15.8146 49.9325 15.7288 49.9988 15.7932Z" fill="#F2CC94"/>
<path d="M58.2963 19.6341C57.7874 19.6127 57.7874 19.5912 58.4069 19.4625C58.7609 19.3766 59.6239 19.3766 60.2877 19.4625C60.9515 19.5483 61.8808 19.7629 62.3454 19.956C62.788 20.1491 63.2084 20.3852 63.2747 20.5139C63.3411 20.6212 63.0535 20.5568 62.6773 20.3637C62.279 20.1706 61.2612 19.9345 60.3983 19.8487C59.5354 19.7414 58.606 19.6556 58.2963 19.6341Z" fill="#F2CC94"/>
<path d="M30.9701 20.3422C29.908 20.4495 29.8859 20.4495 30.5275 20.1706C30.9037 20.0204 31.479 19.8916 31.8551 19.8702C32.2313 19.8702 32.4083 19.956 32.2977 20.0633C32.1649 20.1706 31.5896 20.2993 30.9701 20.3422Z" fill="#F2CC94"/>
<path d="M56.3049 67.9144C56.8581 67.3994 57.3006 66.8844 57.2785 66.7986C57.2785 66.6913 57.3448 66.6698 57.4555 66.7342C57.544 66.7986 57.4112 67.1204 57.1457 67.4208C56.8581 67.7212 56.327 68.1719 55.973 68.4079C55.5083 68.7083 55.5968 68.5581 56.3049 67.9144Z" fill="#F2CC94"/>
<path d="M51.0609 70.6395C51.6362 70.7468 51.7026 70.7039 51.4371 70.5108C51.1494 70.2962 51.1494 70.2747 51.5034 70.382C51.7026 70.4464 52.0566 70.5108 52.2779 70.5322C52.5655 70.5322 52.5434 70.5966 52.1451 70.7897C51.8796 70.9399 51.6583 71.176 51.6583 71.3047C51.6583 71.4549 51.4592 71.6266 51.2158 71.691C50.9503 71.7553 50.8175 71.927 50.8839 72.1201C50.9503 72.2918 50.906 72.442 50.7733 72.442C50.6405 72.442 50.5078 72.2918 50.4414 72.1201C50.375 71.9484 50.2422 71.8412 50.1095 71.9055C49.9767 71.9699 49.8882 71.9055 49.8882 71.7982C49.8882 71.6695 49.3351 71.6051 48.5606 71.6266C47.8305 71.6695 47.233 71.7982 47.233 71.9055C47.233 72.0343 47.1667 72.0128 47.056 71.8841C46.9675 71.7553 46.7463 71.5837 46.5692 71.5193C46.348 71.4478 46.407 71.4049 46.7463 71.3905C47.0708 71.3762 47.1814 71.2833 47.0781 71.1116C46.9454 70.9185 47.1445 70.897 47.8526 71.0043C48.4057 71.0901 48.8261 71.0687 48.8925 70.9399C48.9589 70.8326 49.2465 70.7253 49.5563 70.7253C49.8661 70.7253 50.1095 70.8326 50.1095 70.9399C50.1095 71.0472 50.198 71.1116 50.3307 71.0472C50.4635 70.9828 50.5078 70.8326 50.4414 70.7253C50.375 70.5966 50.5963 70.5537 51.0609 70.6395Z" fill="#F2CC94"/>
<path d="M58.3403 19.1831C57.3446 19.226 57.1676 19.1616 57.1012 18.7968C57.0349 18.4535 57.1455 18.3677 57.6544 18.3677C58.1191 18.3677 58.274 18.4535 58.1855 18.6895C58.0969 18.9256 58.274 19.0329 58.7829 19.0758C59.2254 19.1187 59.0705 19.1616 58.3403 19.1831Z" fill="#5E5F3E"/>
<path d="M66.2395 26.4144L66.2837 25.4488L66.328 24.4832L66.4165 25.3844C66.4608 26.0496 66.328 26.6075 65.9297 27.38C65.4429 28.3241 65.2438 28.4958 64.1596 28.882C63.3852 29.161 61.8806 29.397 59.9998 29.5258C58.4067 29.6545 55.7737 29.8906 54.2027 30.0837C52.6317 30.2553 50.2863 30.5987 49.003 30.8347C47.7196 31.0707 45.7725 31.5214 44.6883 31.8218C43.582 32.1222 41.8561 32.6801 40.8162 33.0663C39.7762 33.4526 38.3822 34.0319 37.7184 34.3538C37.0547 34.6757 35.6607 35.4696 34.6207 36.1133C33.5808 36.7571 32.5187 37.5081 32.2311 37.7656C31.8549 38.1089 31.7443 38.1304 31.7443 37.8943C31.7443 37.7227 31.8549 36.8429 31.9656 35.9631C32.0762 35.0834 32.2532 34.0534 32.3417 33.7101C32.4523 33.238 32.4081 33.1092 32.2311 33.2165C32.0762 33.3238 31.7664 34.3323 31.523 35.4696C31.2575 36.6283 30.992 37.9158 30.9035 38.3235C30.7707 38.9887 30.638 39.096 29.3104 39.5466C28.5138 39.8041 27.6066 40.0401 27.2526 40.0401C26.8543 40.0401 26.3454 39.7612 25.748 39.2247C25.2612 38.7956 24.7302 38.0446 24.5753 37.5725C24.3983 37.1004 24.1107 36.0704 23.9115 35.255C23.7124 34.4611 23.5575 33.4526 23.5796 33.0019C23.5796 32.5728 23.6903 32.0149 23.8009 31.7789C23.9558 31.4355 23.9779 31.4784 23.9115 32.0363C23.8673 32.4655 23.9336 32.7445 24.0885 32.7445C24.2213 32.7445 24.4868 32.6372 24.6859 32.487C24.8851 32.3368 25.2391 31.7574 25.4604 31.1995C25.7038 30.6201 25.9029 30.191 25.9029 30.2339C25.925 30.2553 25.8587 30.7489 25.7701 31.3497C25.6816 31.9291 25.6816 32.7659 25.7923 33.1736C25.8808 33.5813 26.1905 34.0963 26.4782 34.3109C26.7658 34.5255 27.142 34.6971 27.319 34.6757C27.496 34.6757 28.1377 34.5469 28.7572 34.3967C29.3546 34.225 30.4167 33.8388 31.0805 33.5169C31.9434 33.0878 32.5851 32.5513 33.2932 31.6286C33.8463 30.942 34.7314 29.9549 36.236 28.5602L35.5501 29.5258C35.1739 30.0622 34.665 30.7274 34.4216 31.0278C34.0012 31.5643 34.0012 31.5643 34.488 32.4011C34.7314 32.8732 35.0411 33.2809 35.1739 33.3238C35.2845 33.3882 36.0368 33.2594 36.8334 33.0663C37.6299 32.8732 39.0682 32.3582 40.0417 31.9076C41.0153 31.457 43.2501 30.6201 45.0202 30.0622C46.7903 29.5043 48.7153 28.9679 49.3349 28.8606C49.9323 28.7318 51.5254 28.5602 52.8751 28.4529C54.2027 28.3456 56.5481 28.1525 58.0748 28.0023C60.7964 27.7448 60.8628 27.7233 62.2789 26.7792C63.0754 26.2642 63.8498 25.6419 63.9826 25.4273C64.1375 25.2127 64.3587 25.0625 64.4915 25.1269C64.6021 25.1913 64.7349 25.1484 64.7791 25.0196C64.8234 24.9123 65.0447 24.8909 65.2659 24.9767C65.4872 25.0625 65.797 25.4273 66.2395 26.4144Z" fill="#5E5F3E"/>
<path d="M57.7872 55.9833C57.765 55.8546 57.9421 55.6829 58.1855 55.64C58.4288 55.5756 58.6722 55.5327 58.7386 55.5113C58.805 55.4898 59.2696 55.8546 59.8007 56.3481C60.3096 56.8202 60.7743 57.2064 60.8406 57.2064C60.907 57.2064 60.907 57.1206 60.8406 56.9919C60.7743 56.8631 60.8406 56.7344 60.9513 56.67C61.084 56.6056 61.1725 56.6914 61.1725 56.8417C61.1725 56.9704 61.2389 57.0133 61.3274 56.9275C61.438 56.8202 61.5044 56.6271 61.5044 56.5198C61.5044 56.391 61.6593 56.2408 61.8363 56.1979C62.124 56.1121 62.124 56.1335 61.8363 56.3481C61.5487 56.5627 61.5708 56.5842 61.9027 56.4769C62.1018 56.4125 62.3895 56.3481 62.5001 56.3481C62.6329 56.3481 62.7214 56.1335 62.7214 55.876C62.7361 55.547 62.7951 55.4755 62.8984 55.6615C62.9869 55.8331 63.8277 56.0263 64.934 56.1335C66.3723 56.3052 67.1688 56.5198 68.253 57.0777C69.6027 57.7429 69.6912 57.8287 69.647 58.4725C69.5806 59.0518 69.6691 59.1591 70.2001 59.2664C70.7533 59.3951 70.709 59.4381 69.5806 59.7814C68.8504 59.996 68.0096 60.468 67.4786 60.9401C66.6599 61.6697 66.5714 61.7126 66.3059 61.3478C66.0625 61.0045 65.9961 61.0045 65.8191 61.2834C65.7085 61.4551 65.5978 61.5195 65.5978 61.3907C65.5978 61.262 65.7306 61.0474 65.8633 60.8972C66.1067 60.6612 66.0846 60.6397 65.8191 60.747C65.5757 60.8328 65.4872 60.6826 65.4429 60.1676C65.3987 59.6097 65.111 59.2235 64.1596 58.3866C63.4958 57.8073 62.9426 57.185 62.9426 57.0562C62.9426 56.8631 62.7656 56.8202 62.4559 56.906C62.1682 56.9919 61.6814 57.185 61.3495 57.3352C61.0176 57.5068 60.6857 57.7214 60.6194 57.8502C60.553 57.9789 60.3317 57.9789 60.0219 57.8073C59.7343 57.6785 59.1369 57.2708 58.6722 56.906C58.2297 56.5412 57.8314 56.1335 57.7872 55.9833Z" fill="#5E5F3E"/>
<path d="M38.7142 16.4362L38.7143 16.4361C40.2631 15.9211 40.9933 15.7924 42.0332 15.8353C43.0068 15.8997 43.737 16.0928 44.7548 16.6078C45.5071 16.9726 46.3036 17.2944 46.5249 17.2944C46.7241 17.2944 47.7419 17.1442 48.7818 16.9297C50.3528 16.6292 50.8617 16.6292 51.8795 16.8224C52.5433 16.9726 53.716 17.3803 54.4904 17.7236C55.5968 18.2386 56.0836 18.3459 57.0129 18.2815C57.6545 18.2386 57.9201 18.2386 57.5882 18.303C57.1014 18.3673 56.9907 18.4746 57.0792 18.818C57.1456 19.0325 57.2784 19.2257 57.4111 19.2257C57.5439 19.2257 57.5882 19.3115 57.5218 19.4402C57.4554 19.569 57.6324 19.6977 57.8979 19.7621C58.1856 19.8265 58.8936 19.8694 59.5132 19.8694C60.1106 19.8694 61.1063 19.9981 61.7258 20.1698C62.3232 20.3415 63.164 20.7062 63.5844 20.9852C64.027 21.2642 64.5801 21.9508 64.8899 22.5516C65.1997 23.131 65.6201 23.7747 65.8413 23.9464C66.129 24.1824 66.2396 24.5687 66.2396 25.3411C66.2396 26.414 66.2396 26.414 65.952 25.7703C65.7971 25.427 65.5094 25.0622 65.3103 24.9549C65.1112 24.8691 64.8899 24.8905 64.8235 25.0193C64.7571 25.148 64.6244 25.1909 64.4916 25.1266C64.3589 25.0622 64.1376 25.2124 63.9827 25.427C63.85 25.6416 63.0755 26.2638 62.279 26.7788C60.8629 27.723 60.7965 27.7444 58.0749 28.0019C56.5482 28.1521 54.2249 28.3453 52.8752 28.4525C51.5255 28.5598 49.9324 28.7315 49.335 28.8602C48.7376 28.9675 46.7904 29.504 45.0203 30.0619C43.2502 30.6198 41.0154 31.4566 40.0419 31.9073C39.0683 32.3579 37.6079 32.8943 36.7893 33.1089C35.4838 33.4522 35.2847 33.4522 34.9528 33.1733C34.7536 33.0016 34.5987 32.7227 34.6209 32.5939C34.6209 32.4437 34.4881 32.3793 34.3332 32.4652C34.2005 32.5295 34.1341 32.5081 34.2226 32.4008C34.3111 32.2935 34.289 32.0575 34.2005 31.8858C34.0456 31.6712 34.1341 31.3923 34.4217 31.0275C34.6651 30.7271 35.174 30.0619 36.2361 28.5598L35.2625 29.4611C34.7315 29.9546 33.8464 30.9417 33.2933 31.6283C32.5852 32.551 31.9436 33.0874 31.0806 33.5166C30.4168 33.8385 29.3769 34.2247 28.7573 34.3964C28.1599 34.5466 27.4961 34.6753 27.3191 34.6753C27.1421 34.6968 26.766 34.5251 26.4783 34.3105C26.1907 34.096 25.8809 33.581 25.7924 33.1733C25.6818 32.7656 25.6818 31.9287 25.7703 31.3494C25.8588 30.7485 25.903 30.255 25.8588 30.2335C25.8145 30.1906 25.5933 30.6627 25.3941 31.2635C25.1507 31.9502 24.7967 32.4652 24.5091 32.6154C24.2214 32.7441 23.9559 32.8085 23.8895 32.7441C23.8231 32.6797 23.8674 32.2077 24.0223 31.6712C24.155 31.1348 24.5533 30.3194 24.8852 29.8473C25.2171 29.3752 25.6818 28.8388 25.903 28.6671C26.1243 28.474 26.2349 28.4525 26.1464 28.6242C26.0358 28.8173 26.1022 28.8388 26.4341 28.6671C26.6775 28.5384 26.943 28.3238 27.0315 28.195C27.0979 28.0448 27.1864 27.7015 27.1864 27.444C27.2085 27.1651 27.1421 26.9505 27.0536 26.9505C26.943 26.9505 26.943 26.7359 27.0315 26.4784C27.12 26.178 27.0979 26.0278 26.9872 26.1136C26.8545 26.1995 26.8323 25.8776 26.943 25.2553C27.0315 24.7189 27.297 23.882 27.5183 23.4099C27.7395 22.9379 28.2042 22.2727 28.5582 21.9293C28.9122 21.586 29.6424 21.1139 30.1956 20.8779C30.7487 20.6419 31.8772 20.3844 32.718 20.32C34.1783 20.1913 34.2668 20.1483 35.1962 19.1827C35.7714 18.5819 36.1255 18.024 36.0591 17.8309C35.9927 17.6592 36.1255 17.4232 36.3246 17.3159C36.5459 17.2086 37.63 16.8224 38.7142 16.4362Z" fill="#899519"/>
<path d="M35.4174 12.8104C35.7715 12.4027 36.5016 11.8019 37.0548 11.4586C37.608 11.1367 38.2939 10.8578 38.6036 10.8578C38.9134 10.8363 39.2896 10.9865 39.4445 11.1796C39.6215 11.4157 39.6657 11.7161 39.5551 12.1023C39.4002 12.5315 38.9134 12.9177 37.4973 13.6687C36.1476 14.3554 35.3953 14.9133 34.8864 15.5999C34.4881 16.1149 33.9571 17.1664 33.7358 17.9389C33.5146 18.7113 33.3597 19.398 33.4261 19.4838C33.4703 19.5911 32.9835 19.6555 32.364 19.6555C31.6559 19.6555 30.793 19.8486 30.1956 20.1061C29.6424 20.3421 28.9122 20.7498 28.5361 21.0288C28.1599 21.2863 27.651 21.8442 27.3855 22.2519C27.12 22.6596 26.7881 23.5394 26.6553 24.2046C26.4783 25.1916 26.5005 25.6852 27.0979 27.5949L25.9694 28.6034C25.3278 29.1828 24.5976 30.0196 24.3099 30.4917C24.0223 30.9638 23.7125 31.8865 23.6461 32.5302C23.5355 33.3242 23.624 34.2254 23.8674 35.3197C24.0887 36.1995 24.5312 37.4441 24.841 38.0878C25.195 38.7745 25.726 39.4182 26.1022 39.6542C26.4783 39.8688 27.0094 40.0405 27.3191 40.0405C27.6289 40.0405 28.514 39.8044 29.3105 39.5469C30.6381 39.0963 30.7709 38.989 30.9036 38.3238C30.9921 37.9161 31.2577 36.6287 31.5232 35.4699C31.7666 34.3327 32.0763 33.3242 32.2312 33.2169C32.4304 33.1096 32.4525 33.2383 32.3197 33.7104C32.2312 34.0537 32.0542 35.1266 31.9436 36.0708C31.8329 37.0149 31.7444 37.8518 31.7444 37.9376C31.7444 38.0449 32.6737 37.4655 33.7801 36.693C34.9085 35.9206 36.745 34.8477 37.8292 34.3327C38.9134 33.8177 41.0597 33.0023 42.5864 32.5088C44.1131 32.0152 46.7904 31.3286 48.5606 30.9852C50.3307 30.6419 53.0744 30.2342 54.6453 30.0626C56.2163 29.8909 58.7166 29.6549 60.177 29.5476C61.925 29.4188 63.2304 29.1828 63.9827 28.9038C64.6244 28.6463 65.1775 28.4961 65.1997 28.5605C65.2439 28.6249 65.5537 28.1528 65.9077 27.5305C66.4609 26.5649 66.5273 26.2645 66.4388 25.1272C66.3724 24.4191 66.1069 23.4106 65.8413 22.8742C65.5758 22.3377 65.4873 22.0802 65.6422 22.2948C65.7971 22.5094 66.0626 22.8527 66.1954 23.0458C66.4388 23.3462 66.4388 23.3033 66.2617 22.7669C66.1511 22.4236 65.9077 21.9729 65.7086 21.8013C65.5094 21.6296 65.3546 21.5438 65.3767 21.6296C65.3767 21.7369 64.912 21.415 64.3146 20.9215C63.7393 20.4494 62.7658 19.8915 62.1683 19.6769C61.5488 19.4624 60.4425 19.2263 58.2962 19.0118L58.3405 18.3036C58.3847 17.9389 58.2298 17.3595 58.0086 17.0162C57.7873 16.6728 57.0571 16.1793 56.1942 15.7931C55.0879 15.2995 54.4462 15.1493 53.362 15.1493C52.5433 15.1493 51.26 15.3639 50.1094 15.6858C49.0695 15.9862 48.1402 16.1793 48.0074 16.1364C47.8746 16.0935 47.9631 16.0291 48.1623 16.0291C48.3835 16.0076 48.5606 15.9433 48.5606 15.836C48.5606 15.7502 48.2508 15.5356 47.8525 15.3425C47.4542 15.1493 46.4807 14.8704 45.6841 14.7202C44.8876 14.5914 43.6927 14.5271 43.0289 14.5914C42.3651 14.6558 41.1703 14.9133 40.3738 15.1708C39.5772 15.4068 38.3824 15.9004 37.7186 16.2437C36.5459 16.866 36.5238 16.866 37.1654 16.3295C37.5194 16.0291 38.4266 15.4927 39.1568 15.1493C39.887 14.7845 41.2367 14.3554 42.1439 14.1623C43.4715 13.9048 44.1131 13.8833 45.2858 14.055C46.1266 14.1837 47.1887 14.4841 47.6755 14.7202C48.1623 14.9562 48.7818 15.1493 49.0473 15.1493C49.335 15.1493 49.9545 14.9991 50.4413 14.8275C50.9281 14.6558 52.1229 14.5271 53.0965 14.5056C54.4905 14.5056 55.11 14.5914 56.0836 14.9991C56.7695 15.2995 57.6545 15.9004 58.1192 16.4153C58.5839 16.8874 59.0485 17.5312 59.1813 17.8316C59.3362 18.1964 59.6238 18.4109 60.1106 18.4968C60.5089 18.5611 61.4382 18.7972 62.1683 19.0118C63.0313 19.2692 63.8942 19.7413 64.6023 20.3636C65.1997 20.8786 65.9298 21.7154 66.1954 22.2519C66.483 22.7669 66.7928 23.7539 66.9255 24.4191C67.0804 25.3633 67.0804 26.007 66.837 27.0585C66.5494 28.4318 66.5494 28.4532 67.1911 29.6763C67.5451 30.363 68.1425 31.5861 68.4965 32.4229C68.8727 33.2598 69.4037 34.7833 69.7135 35.8562C70.0233 36.9076 70.3773 38.7959 70.51 40.0405C70.6428 41.285 70.7534 42.3794 70.7977 42.5081C70.8198 42.6154 71.4172 43.0446 72.1474 43.4523C72.8554 43.86 73.9396 44.6325 74.5149 45.1689C75.1123 45.7054 75.8646 46.5851 76.2187 47.1216C76.5727 47.658 77.0373 48.6665 77.2807 49.3746C77.5241 50.0828 77.7896 51.2844 77.8781 52.0569C77.9667 53.001 77.9224 53.9666 77.679 55.061C77.4799 55.9408 77.0152 57.2926 76.6169 58.0651C76.2187 58.8805 75.4 59.9534 74.6919 60.64C74.006 61.3052 72.9439 62.0563 72.3465 62.3352C71.727 62.6142 69.6913 63.215 67.8106 63.6871C65.9298 64.1377 64.3589 64.5668 64.3146 64.6097C64.2925 64.6741 64.6908 64.8458 65.1997 65.0174C65.7307 65.1891 66.4166 65.3822 66.7485 65.4466C67.2132 65.5539 67.3238 65.6612 67.1911 65.9187C67.1026 66.0903 66.6379 66.4337 66.1511 66.6697C65.6201 66.9057 64.7793 67.0774 64.0491 67.0774C63.3853 67.0774 62.2126 66.9272 61.4382 66.7555C60.6859 66.5839 59.6681 66.2405 59.1813 66.0045C58.6945 65.7685 58.3405 65.511 58.3847 65.4037C58.429 65.3179 59.0485 65.1891 59.7566 65.1247C60.7301 65.0389 61.5709 64.7385 63.0534 63.9875C64.1376 63.4081 65.5758 62.5712 66.1954 62.1206C66.837 61.67 67.4123 61.2838 67.4787 61.2838C67.5451 61.2838 67.5451 61.3696 67.4787 61.4984C67.4123 61.6271 67.7442 61.67 68.408 61.5842C69.0054 61.5198 69.9569 61.3267 70.5764 61.1765C71.1738 61.0048 72.2359 60.5542 72.8997 60.168C73.5635 59.7817 74.4707 58.9878 74.9353 58.387C75.3779 57.7861 75.9753 56.7776 76.2408 56.1339C76.5063 55.4901 76.7718 54.2885 76.8382 53.4516C76.9046 52.5504 76.8382 51.5204 76.6612 50.8767C76.5284 50.2759 76.3514 49.6321 76.3072 49.4176C76.2408 49.1172 75.9753 49.0528 74.8911 49.0528C73.9839 49.0528 73.5635 48.967 73.5635 48.7738C73.5635 48.6236 73.8733 48.5163 74.3822 48.5163C74.8247 48.5163 75.223 48.409 75.2672 48.2374C75.2894 48.1086 74.8247 47.4005 74.2273 46.6924C73.6077 45.9843 72.7227 45.2118 72.2359 44.9758C71.7491 44.7397 71.2181 44.5466 71.0632 44.5466C70.9304 44.5466 70.5985 44.7612 70.333 45.0187C70.0675 45.2977 69.5365 46.0916 69.1161 46.7997C68.7178 47.5078 67.7885 48.7095 67.0583 49.4819C66.3503 50.2544 65.5094 50.9411 65.1776 51.0484C64.8678 51.1342 64.3589 51.4346 64.0491 51.735C63.7393 52.014 62.8543 52.6792 60.6416 54.0954L60.6859 55.5331C60.708 56.3485 60.6637 56.9922 60.5531 56.9922C60.4646 56.9922 60.1327 56.606 59.7787 56.1339C59.3583 55.5116 59.0706 55.3185 58.783 55.4043C58.5839 55.4687 58.1414 55.576 57.7873 55.6618L57.7873 55.6618C57.4554 55.7476 57.1678 55.8549 57.1678 55.9193C57.1678 55.9837 57.5882 56.4128 59.0264 57.7432L58.9821 59.889C58.96 61.0692 58.783 62.7 58.6281 63.5368C58.4068 64.5668 58.075 65.3822 57.5439 66.1118C57.1235 66.6912 56.504 67.3778 56.1499 67.6353C55.818 67.8928 55.3091 68.1503 55.0215 68.2147C54.756 68.3005 54.1143 68.2576 53.6054 68.1288C52.8974 67.9572 51.968 67.9786 50.1094 68.1718C48.0959 68.3863 46.9011 68.4078 44.3565 68.1932C41.3252 67.9572 41.0376 67.8928 39.1568 67.0559C37.6522 66.3693 36.8999 66.1547 36.0591 66.1547C35.4617 66.1547 34.3996 66.3478 33.7358 66.5624C33.0499 66.777 31.8551 66.9487 30.97 66.9487C29.7973 66.9487 29.222 66.8628 28.6467 66.5195C28.2263 66.2835 27.8502 65.9187 27.8059 65.7256C27.7764 65.4824 27.9608 65.3179 28.3591 65.232C28.7131 65.1677 29.3326 64.996 30.5275 64.6527L29.6424 64.2664C29.1556 64.0518 28.2042 63.8158 27.5404 63.7514C26.8766 63.6656 25.5269 63.4296 24.5533 63.1935C23.5798 62.9575 22.1858 62.4425 21.4777 62.0777C20.7697 61.6915 19.7076 60.8975 19.1545 60.3182C18.6013 59.7173 17.8269 58.6015 17.4286 57.8505C17.0525 57.078 16.6099 55.8335 16.4772 55.061C16.3444 54.2885 16.278 53.1727 16.3665 52.5933C16.4329 51.9925 16.7206 50.8982 16.9861 50.1257C17.2295 49.3532 17.849 48.1516 18.3358 47.4649C18.8447 46.7568 19.6855 45.8126 20.2387 45.3406C20.7918 44.89 21.8318 44.1818 22.5619 43.7956C23.2921 43.4094 24.487 42.9158 25.2171 42.7442C25.9473 42.551 26.6775 42.2721 26.8324 42.1433C27.0757 41.9073 26.8987 41.6713 25.8809 40.7915C25.0844 40.1048 24.4427 39.3109 24.0887 38.5813C23.801 37.9805 23.447 36.7574 23.2921 35.8991C23.1594 35.0622 23.0266 33.6889 23.0266 32.8521C23.0266 31.6934 23.1372 31.114 23.5355 30.3844C23.8232 29.848 24.4206 28.9897 24.8852 28.4532C25.7039 27.5091 25.726 27.4447 25.7039 25.8783C25.7039 24.8483 25.8588 23.8398 26.1022 23.0887C26.3234 22.445 26.8766 21.5438 27.297 21.0717C27.7395 20.6211 28.4476 20.0846 28.868 19.8701C29.2884 19.6555 30.1956 19.3765 30.8594 19.2478C31.5232 19.0976 32.2312 19.0547 32.4082 19.119C32.6737 19.2049 32.8065 18.9474 33.0278 17.8959C33.2048 17.1449 33.6473 15.8789 34.0677 15.042C34.466 14.2052 35.0855 13.2181 35.4174 12.8104Z" fill="#231512"/>
<path d="M36.2804 73.6221L36.3467 72.6994V72.7208C36.4131 71.9698 36.5016 71.7981 36.8557 71.7981C37.2318 71.7981 37.2982 71.9698 37.3867 73.2573C37.4531 74.0512 37.4973 75.1027 37.4973 75.6176C37.4973 76.3258 37.4309 76.4974 37.1654 76.4116C36.9884 76.3472 36.745 76.3043 36.6123 76.3043C36.4795 76.3043 36.3246 75.9395 36.2582 75.5104C36.1476 74.8452 36.037 74.695 35.6608 74.7379C35.3953 74.7593 34.9528 74.7808 34.6651 74.7808C34.2447 74.8022 34.1784 74.931 34.112 75.8322C34.0677 76.6905 34.0013 76.8407 33.6252 76.8407C33.2269 76.8407 33.1605 76.6476 33.0056 75.1241C32.8729 73.9868 32.895 73.2144 33.0499 72.8281C33.1827 72.4848 33.4482 72.2273 33.6252 72.2273C33.8465 72.2273 34.0013 72.5062 34.0677 72.9783C34.1783 73.7293 34.1783 73.7293 36.2804 73.6221Z" fill="#231512"/>
<path d="M46.9232 72.7852C47.0117 72.4633 47.2994 72.0985 47.5427 71.9913C47.8083 71.884 48.3172 71.7981 48.6712 71.7767C49.0252 71.7767 49.5341 71.9054 49.7775 72.0771C50.0209 72.2488 50.1315 72.4633 50.043 72.5706C49.9324 72.6564 49.4899 72.7423 49.0695 72.7423C48.6269 72.7423 48.2287 72.8496 48.1844 72.9569C48.1402 73.0641 48.3835 73.2787 48.7154 73.4289C49.0695 73.5791 49.5563 73.8795 49.8218 74.137C50.1094 74.3731 50.3307 74.8237 50.3307 75.167C50.3528 75.4889 50.1758 75.8966 49.9545 76.0897C49.7333 76.2828 49.335 76.4974 49.0473 76.5832C48.7818 76.6476 48.2065 76.5618 47.7861 76.3901C47.2551 76.1755 46.9675 75.8966 46.879 75.4889C46.8126 75.1456 46.7904 74.8666 46.8347 74.8452C46.8789 74.8237 47.2108 74.9524 47.5649 75.1241C47.9189 75.2958 48.4278 75.4245 48.6491 75.3816C48.8925 75.3387 49.1137 75.2099 49.158 75.1026C49.2022 74.9954 48.7818 74.7593 48.2287 74.6306C47.587 74.4589 47.1445 74.18 46.9896 73.8796C46.8347 73.5791 46.8126 73.15 46.9232 72.7852Z" fill="#231512"/>
<path d="M51.8795 72.4204C51.8795 72.0771 52.0565 71.9698 52.8088 71.9269C53.3399 71.884 54.2028 71.8411 54.756 71.8625C55.5304 71.884 55.7517 71.9698 55.7959 72.2702C55.8402 72.5492 55.6853 72.6564 54.4241 72.7423L54.3577 74.7379L54.3576 74.743C54.3134 76.6906 54.313 76.712 53.7603 76.712C53.2292 76.712 53.2071 76.6262 53.0744 75.2743C53.008 74.4589 52.9416 73.6221 52.9195 73.386C52.8974 73.1071 52.6982 72.9354 52.3663 72.9139C52.0418 72.871 51.8795 72.7065 51.8795 72.4204Z" fill="#231512"/>
<path d="M57.3669 72.4419C57.3448 72.2058 57.4775 71.9698 57.6545 71.9269C57.8094 71.8625 58.4068 71.7981 58.96 71.7981C59.5132 71.7981 60.177 71.8196 60.4425 71.884C60.7744 71.9483 60.9514 72.1415 60.9514 72.4204C60.9514 72.7065 60.767 72.8853 60.3982 72.9569C59.8672 73.0641 59.8451 73.1285 59.7787 74.8452C59.7344 76.4974 59.7123 76.6047 59.2255 76.6691C58.8051 76.712 58.7166 76.5832 58.6281 75.8108C58.5617 75.2958 58.4953 74.4589 58.4511 73.9225C58.4068 73.1071 58.3405 72.9569 57.8979 72.9139C57.6103 72.871 57.389 72.6994 57.3669 72.4419Z" fill="#231512"/>
<path d="M62.0356 73.2358C62.0135 72.8496 62.2126 72.5277 62.633 72.2273C62.9649 71.9698 63.5844 71.7767 64.027 71.7767C64.4916 71.7552 65.0448 71.9269 65.3767 72.1844C65.8192 72.5062 65.8635 72.635 65.5979 72.7208C65.4209 72.7852 64.8678 72.871 64.381 72.8925C63.8942 72.9354 63.5181 73.0641 63.5402 73.1714C63.5623 73.2787 63.7615 73.4289 63.9827 73.4504C64.204 73.4933 64.7129 73.6864 65.1112 73.8796C65.5316 74.0941 65.8856 74.4589 65.952 74.7808C66.0184 75.0812 66.0184 75.5318 65.952 75.8108C65.8635 76.1326 65.5537 76.3687 64.9784 76.5189C64.5359 76.6476 63.85 76.6905 63.4959 76.6262C63.1419 76.5403 62.6551 76.3043 62.4339 76.1112C62.2126 75.918 62.0356 75.6176 62.0577 75.4889C62.0577 75.2743 62.3896 75.2529 63.3853 75.3816C64.4916 75.5103 64.7129 75.4674 64.7129 75.2099C64.7129 74.9954 64.4031 74.8237 63.7836 74.7379C63.2525 74.652 62.6551 74.3945 62.4339 74.2014C62.2126 73.9868 62.0356 73.5577 62.0356 73.2358Z" fill="#231512"/>
<path d="M39.7764 74.8237C40.1082 73.9225 40.5508 72.9569 40.7278 72.6994C40.9048 72.399 41.2588 72.2058 41.5907 72.2058C41.9669 72.2058 42.2766 72.4204 42.5864 72.9139C42.8298 73.2787 43.2281 74.2229 43.4936 74.9954C43.737 75.7678 43.8919 76.5189 43.8255 76.6691C43.737 76.8407 43.4272 76.8837 42.9626 76.8193C42.5864 76.7549 41.9005 76.6476 41.4801 76.5832C41.0154 76.4974 40.5065 76.5832 40.1968 76.7549C39.7985 76.9695 39.6436 76.9909 39.4223 76.7549C39.2232 76.5403 39.2896 76.1541 39.7764 74.8237Z" fill="#231512"/>
<path d="M45.2858 76.9266C45.1973 76.9266 45.1531 76.1326 45.1973 75.167C45.2416 73.9654 45.3301 73.4933 45.4629 73.7079C45.5956 73.8795 45.6841 74.4589 45.6841 74.9954C45.6841 75.5318 45.6399 76.1755 45.5735 76.4545C45.5071 76.712 45.3965 76.9266 45.2858 76.9266Z" fill="#231512"/>
<path d="M74.0281 48.3663C74.7804 48.3878 75.1123 48.3234 75.1123 48.1517V48.1303C75.1123 48.0015 75.1566 47.9371 75.2229 48.023C75.2893 48.1303 75.2672 48.3019 75.1787 48.4307C75.0681 48.5809 74.6698 48.6452 74.2936 48.6023C73.8068 48.538 73.5634 48.6023 73.5634 48.774C73.5634 48.9457 73.9617 49.0744 74.6255 49.1388C75.2008 49.1817 74.9795 49.1817 74.1166 49.1388C73.2537 49.0959 72.5235 49.01 72.4571 48.9457C72.3907 48.8813 72.4793 48.7096 72.6563 48.5809C72.8112 48.4307 73.4307 48.3448 74.0281 48.3663Z" fill="#472015"/>
<path d="M75.3336 54.0097C75.6876 53.0012 76.0416 51.5635 76.1523 50.791C76.2629 49.6752 76.3293 49.525 76.4399 50.04C76.5063 50.3833 76.4399 51.4991 76.2629 52.5077C76.108 53.5591 75.5991 55.2328 75.0902 56.4774C74.5813 57.6576 74.1387 58.7734 74.0502 58.945C73.9617 59.1811 74.0945 59.1382 74.4706 58.8377C74.8468 58.5373 74.8025 58.6232 74.3379 59.1167C73.9839 59.5029 73.1209 60.0823 72.4571 60.4256C71.7933 60.769 70.8419 61.1552 70.3551 61.2625C69.8683 61.3912 69.0054 61.5414 68.4301 61.6058C67.6336 61.6916 67.3902 61.6702 67.4344 61.4556C67.4565 61.3269 67.6336 60.9835 67.8106 60.7046C68.0318 60.3827 68.7178 60.0394 69.9126 59.6746C70.8861 59.3742 72.0367 58.9021 72.4571 58.6232C72.8775 58.3442 73.5635 57.5932 73.9617 56.9709C74.3379 56.3486 74.9574 55.0182 75.3336 54.0097Z" fill="#472015"/>
<path d="M64.4916 52.2931C64.6244 52.572 64.6686 52.5506 64.7792 52.2287C64.8677 52.0356 64.9562 51.8639 64.9784 51.8639C65.0226 51.8639 64.735 52.7866 64.381 53.9024C63.8721 55.4474 63.6287 55.9409 63.341 55.9409C63.1197 55.9409 62.9427 55.8336 62.9427 55.7263C62.9427 55.5976 63.2525 54.7178 63.6287 53.7308C64.0933 52.5291 64.381 52.0785 64.4916 52.2931Z" fill="#472015"/>
<path d="M60.6637 54.2672C60.6416 54.1814 61.2611 53.7093 62.0577 53.1943C62.8542 52.7008 63.4959 52.2931 63.4959 52.2931C63.4959 52.2931 63.2304 53.1299 62.8764 54.1599C62.3232 55.8551 62.1904 56.0911 60.7301 56.7992V55.6191C60.7301 54.9753 60.708 54.3745 60.6637 54.2672Z" fill="#472015"/>
<path d="M44.8875 76.5405C44.9539 76.2401 45.0424 75.4676 45.0645 74.8239C45.1083 73.7624 45.1088 73.7721 45.1731 75.1022L45.1752 75.1457C45.2194 76.0899 45.153 76.7336 44.9982 76.8624C44.799 77.0126 44.7769 76.9267 44.8875 76.5405Z" fill="#472015"/>
<path d="M69.0055 47.2294C69.3595 46.6286 69.8463 45.8346 70.1118 45.4698V45.4484C70.3994 44.9978 70.7535 44.7617 71.0632 44.7617C71.3509 44.7617 71.8377 44.8905 72.1917 45.0621C72.5236 45.2123 73.3201 45.899 73.9618 46.5642C74.5813 47.2294 75.1124 47.916 75.1124 48.0877C75.1124 48.3237 74.9132 48.3881 74.2937 48.3237C73.829 48.3023 73.2316 48.3452 72.9661 48.431C72.6785 48.5383 72.4572 48.71 72.4572 48.8387C72.4572 48.9675 72.8334 49.0962 73.298 49.1606C73.7405 49.225 74.6035 49.2893 76.263 49.3752L76.1081 50.7699C76.0417 51.5424 75.6655 52.9801 75.3115 53.9886C74.9575 54.9971 74.338 56.3275 73.9618 56.9498C73.5635 57.5721 72.8776 58.3016 72.4572 58.5806C72.0368 58.8595 71.4394 59.1385 71.1296 59.2243C70.8198 59.3316 70.3552 59.3316 70.0897 59.2672C69.6693 59.16 69.5808 59.0098 69.6471 58.4733C69.6914 57.851 69.6029 57.7437 68.2532 57.0571C67.1247 56.4777 66.4609 56.3061 65.1555 56.1988C64.2483 56.1344 63.6066 56.0271 63.7394 55.9413C63.8721 55.8769 64.0491 55.3834 64.1376 54.8469C64.204 54.3105 64.5802 53.259 64.9563 52.508C65.3546 51.7355 66.2397 50.5124 67.0141 49.7185C67.7664 48.946 68.6736 47.8087 69.0055 47.2294Z" fill="#B96B23"/>
<path d="M75.0017 56.6279C75.577 55.2975 76.1081 53.6238 76.263 52.6368C76.5285 51.0274 76.5506 50.9845 76.7497 51.6712C76.8972 52.1575 76.8825 52.9014 76.7055 53.9028C76.5506 54.7396 76.1302 55.9842 75.7762 56.6923C75.4221 57.4004 74.9354 58.1944 74.692 58.4518C74.4265 58.7308 74.1831 58.9454 74.1167 58.9454C74.0503 58.9454 74.4486 57.9154 75.0017 56.6279Z" fill="#B96B23"/>
<path d="M62.8986 54.3319C63.1862 53.3878 63.6287 52.4007 63.8721 52.1218C64.1376 51.8643 64.3589 51.6497 64.381 51.6497C64.4032 51.6497 64.0491 52.5724 63.5845 53.6882C63.0977 54.804 62.7216 55.8769 62.7216 56.0486C62.7216 56.2202 62.5445 56.3704 62.3454 56.3704C62.102 56.3704 62.0356 56.3061 62.1684 56.1988C62.3011 56.1129 62.633 55.2761 62.8986 54.3319Z" fill="#B96B23"/>
<path d="M39.887 15.5998C39.8649 15.4925 40.4845 15.235 41.281 15.0633C42.1882 14.8488 43.3388 14.7629 44.4672 14.8273C45.4408 14.8702 46.6135 15.0419 47.0781 15.1921C47.7419 15.4067 47.8968 15.5569 47.8083 15.8358C47.7419 16.0504 47.7641 16.2221 47.8968 16.2221C48.0075 16.2221 48.1181 16.3723 48.1181 16.5439C48.1181 16.7156 48.2066 16.8229 48.3394 16.7585C48.45 16.6941 48.5606 16.7371 48.5606 16.8658C48.5606 16.9946 47.9853 17.0804 47.2773 17.0804C46.3037 17.0804 45.6842 16.9302 44.5779 16.3937C43.5379 15.9002 42.8299 15.7071 42.0333 15.7285C41.4138 15.7285 40.5287 15.8573 40.0419 15.986C39.3781 16.2006 39.0905 16.2006 38.9356 16.0075C38.7807 15.8358 38.825 15.8144 39.1569 15.9431C39.4888 16.0504 39.5551 16.0289 39.4224 15.8358C39.3191 15.6642 39.3781 15.6141 39.5994 15.6856C39.7764 15.75 39.9092 15.7071 39.887 15.5998Z" fill="#F2CC94"/>
<path d="M54.6454 16.1148C54.8224 16.1792 54.9773 16.1362 54.9773 16.0075C54.9552 15.9002 55.1101 15.8573 55.3092 15.9002C55.4862 15.9646 55.5968 16.0933 55.5305 16.2221C55.4641 16.3294 55.5526 16.3937 55.6853 16.3294C55.8402 16.265 56.327 16.4152 56.7474 16.6727C57.3891 17.0375 57.4555 17.1662 57.19 17.3379C56.9244 17.5095 56.9244 17.531 57.2342 17.4237C57.5218 17.3379 57.6767 17.4237 57.7431 17.7241C57.8316 18.0674 57.7652 18.1318 57.4555 18.0245C57.2563 17.9387 56.8581 18.0245 56.5925 18.1747C56.1279 18.4537 55.9287 18.4108 54.7118 17.8099C53.9374 17.4666 53.2957 17.0589 53.2514 16.9087C53.2293 16.7585 53.3399 16.6727 53.4727 16.6941C53.6276 16.7371 53.7161 16.6083 53.6718 16.4366C53.6276 16.1792 53.6718 16.1577 53.9595 16.3723C54.225 16.5869 54.3578 16.5869 54.4463 16.3937C54.5348 16.2435 54.4905 16.2221 54.3356 16.3294C54.1807 16.4366 54.1365 16.4152 54.2029 16.265C54.2693 16.1148 54.4684 16.0504 54.6454 16.1148Z" fill="#F2CC94"/>
<path d="M30.1293 20.4493C30.3727 20.5566 30.4612 20.5351 30.3948 20.4064C30.3063 20.2776 30.5275 20.2132 30.9479 20.2776C31.5896 20.342 31.5675 20.3634 30.3063 20.8784C29.5761 21.1574 28.7795 21.4578 28.5362 21.5222C28.16 21.608 28.1821 21.5651 28.6468 21.2003C28.9566 20.9643 29.2663 20.7926 29.3548 20.857C29.4655 20.8999 29.5761 20.7926 29.6425 20.6209C29.7162 20.4064 29.8785 20.3491 30.1293 20.4493Z" fill="#F2CC94"/>
<path d="M64.1598 21.4149C63.6066 20.857 63.142 20.3634 63.1641 20.2991C63.1641 20.2347 63.6288 20.6424 64.204 21.2003C64.8015 21.7582 65.3989 22.5092 65.5316 22.874C65.6865 23.2173 65.7529 23.5607 65.6423 23.625C65.5538 23.668 65.3546 23.4534 65.1997 23.1315C65.0448 22.8096 64.9785 22.5307 65.0449 22.4878C65.1112 22.4663 64.713 21.9942 64.1598 21.4149Z" fill="#F2CC94"/>
<path d="M32.7844 75.4458C32.7402 76.0896 32.7181 75.6175 32.7181 74.3729C32.7181 73.1284 32.7402 72.5919 32.7844 73.1927C32.8287 73.7721 32.8287 74.8021 32.7844 75.4458Z" fill="#F2CC94"/>
<path d="M29.9301 73.9867C29.908 73.7721 29.9744 73.5361 30.0629 73.4502C30.1514 73.3859 30.3505 73.3644 30.5275 73.4288C30.6824 73.4717 30.8373 73.7721 30.8373 74.0511C30.8594 74.3515 30.8152 74.5875 30.7488 74.5875C30.6824 74.5875 30.4833 74.5446 30.3063 74.4802C30.1293 74.4158 29.9522 74.2013 29.9301 73.9867Z" fill="#F2CC94"/>
<path d="M35.7272 18.2598C35.705 18.1311 35.6829 17.9809 35.705 17.8951V17.8736C35.705 17.7878 35.8378 17.7234 35.9484 17.7234C36.0812 17.7234 36.1697 17.8092 36.1697 17.938C36.1697 18.0453 35.8378 18.4744 35.4616 18.8607C35.0634 19.2469 34.9085 19.3756 35.1298 19.1396C35.3289 18.8821 35.4395 18.6246 35.351 18.5388C35.2404 18.4315 35.0412 18.4959 34.8642 18.6461C34.5987 18.8607 34.5766 18.8392 34.7979 18.41C35.0191 18.0238 35.1298 17.9809 35.4174 18.1955C35.6165 18.3457 35.7493 18.3886 35.7272 18.2598Z" fill="#8D7D5E"/>
<path d="M27.2748 22.9162C27.6953 22.1652 28.1157 21.6931 28.4476 21.5858C28.7352 21.5 29.0228 21.4356 29.0671 21.4141C29.1113 21.3927 28.8237 21.7146 28.4476 22.0793C28.0493 22.4656 27.5404 23.3239 27.297 23.9676C26.9872 24.7616 26.8766 25.4268 26.9651 26.0061C27.0315 26.607 27.0093 26.7357 26.8766 26.4353C26.7659 26.1993 26.6774 25.577 26.6774 25.0405C26.6553 24.3539 26.8323 23.7316 27.2748 22.9162Z" fill="#8D7D5E"/>
<path d="M24.9516 41.9923C25.4384 41.8635 25.7702 41.6489 25.7702 41.4558C25.7702 41.2841 25.8809 41.1339 25.9915 41.1339C26.1243 41.1339 26.3677 41.2841 26.5447 41.4558C26.7881 41.6918 26.8102 41.8635 26.6553 42.0995C26.5004 42.3141 26.2792 42.3785 25.9473 42.2712C25.5711 42.1639 25.4826 42.1854 25.6154 42.3785C25.7186 42.5502 25.6596 42.6002 25.4384 42.5287C25.2613 42.4643 24.9737 42.5072 24.8409 42.636C24.6418 42.7862 24.332 42.6145 23.7789 42.0352C23.3585 41.606 23.2478 41.4558 23.5576 41.7133C24.0444 42.121 24.2214 42.1639 24.9516 41.9923Z" fill="#8D7D5E"/>
<path d="M53.6054 68.6C53.3841 68.6 53.2071 68.5356 53.2071 68.4498V68.4284C53.2071 68.3425 53.716 68.2782 54.3134 68.2782C54.9551 68.2782 55.3976 68.364 55.3534 68.4927C55.3091 68.6 54.7559 68.9648 54.1364 69.2867C53.3177 69.7158 52.8752 69.8231 52.6097 69.6944C52.2778 69.5442 52.3442 69.4369 53.0965 69.0721C53.6054 68.8146 53.8045 68.6215 53.6054 68.6Z" fill="#8D7D5E"/>
<path d="M59.9999 75.1661C59.9557 75.6382 59.9114 75.3593 59.9114 74.5224C59.9114 73.6855 59.9557 73.3208 59.9999 73.6641C60.0442 74.0074 60.0442 74.6941 59.9999 75.1661Z" fill="#8D7D5E"/>
<path d="M53.9373 76.8613C54.247 76.7969 54.3134 76.4965 54.3577 75.209L54.4019 73.6641L54.4683 75.0588C54.5125 75.8313 54.4904 76.5824 54.424 76.7111C54.3577 76.8613 54.1364 76.9686 53.9373 76.9686C53.5611 76.9471 53.5611 76.9257 53.9373 76.8613Z" fill="#8D7D5E"/>
<path d="M29.3106 59.2442C29.3106 59.0725 29.6868 58.7292 30.1514 58.5146H30.1293C30.5939 58.3 31.3684 58.1069 31.8552 58.0854C32.4968 58.0854 32.6517 58.1284 32.4083 58.2786C32.1649 58.4288 32.2977 58.4931 32.8951 58.4931C33.3598 58.4931 33.7359 58.579 33.7359 58.7077C33.7359 58.815 33.4925 58.9223 33.1827 58.9223C32.873 58.9223 32.5853 59.0725 32.5189 59.2442C32.4526 59.4158 32.0764 59.6304 31.6781 59.6948C31.302 59.7806 30.7046 59.9737 30.3506 60.1239C29.9744 60.3171 29.7753 60.5531 29.8416 60.7891C29.8859 61.0037 29.8195 61.3256 29.7089 61.4973C29.5319 61.7547 29.5097 61.7547 29.6204 61.4329C29.6868 61.2398 29.6646 61.0252 29.5319 60.9608C29.3991 60.8964 29.1557 61.0037 28.9787 61.1754C28.6911 61.4543 28.7796 61.6045 29.7974 62.4843C30.7488 63.2997 30.8373 63.4285 30.2399 63.1281C29.8638 62.9349 28.9123 62.2054 28.1379 61.4758C26.9209 60.3171 26.8546 60.2098 27.5847 60.6175C28.3813 61.0466 28.4477 61.0466 28.6247 60.6819C28.7132 60.4887 28.7796 60.1883 28.7353 60.0381C28.6911 59.9094 28.8017 59.7377 28.9787 59.6733C29.1557 59.609 29.3106 59.4158 29.3106 59.2442Z" fill="#515647"/>
<path d="M62.7437 59.2442C62.8544 59.3085 62.965 59.094 62.965 58.7506C62.965 58.4288 63.0314 58.2571 63.1199 58.3429C63.2084 58.4502 63.3411 58.6863 63.3633 58.8794C63.4075 59.094 63.4518 59.4802 63.4296 59.7806C63.4296 60.081 63.3411 60.3814 63.2526 60.4673C63.1641 60.5746 62.9429 60.2956 62.788 59.8879C62.6331 59.4588 62.611 59.1798 62.7437 59.2442Z" fill="#515647"/>
<path d="M32.9836 58.1936C33.2048 58.2366 33.5367 58.1507 33.7137 57.9576C33.8686 57.7859 34.0678 57.6357 34.1563 57.6357C34.2227 57.6357 34.6431 57.7859 35.0635 57.9791C35.4839 58.1936 35.9928 58.3653 36.1698 58.4082C36.3468 58.4297 36.5902 58.4726 36.7008 58.4726C36.8336 58.4941 36.8114 58.6228 36.6566 58.773C36.5017 58.9018 36.391 59.2022 36.391 59.4167C36.391 59.6099 36.2583 59.803 36.1255 59.8244C35.9706 59.8244 35.683 59.8459 35.506 59.8674C35.3068 59.8888 35.152 60.1463 35.1298 60.5326C35.0856 60.8759 34.9086 61.3265 34.7316 61.4982C34.5324 61.6698 34.3775 61.9488 34.3997 62.0775C34.3997 62.2277 34.1341 62.4852 33.8022 62.6569C33.4482 62.8285 32.6959 62.9573 32.0764 62.9788C31.479 62.9788 30.8152 63.1075 30.6382 63.2577C30.4611 63.4079 30.3726 63.4508 30.4833 63.365C30.5718 63.2792 30.3505 62.9788 29.9744 62.6783C29.3548 62.1848 29.3327 62.099 29.6203 61.6484C29.7974 61.3909 29.8859 61.0046 29.8416 60.7901C29.7752 60.554 29.9522 60.318 30.3726 60.1249C30.7045 59.9747 31.302 59.7815 31.7002 59.6957C32.0764 59.6313 32.4525 59.4167 32.5189 59.2451C32.5853 59.0734 32.8729 58.9232 33.1827 58.9232C33.4925 58.9232 33.7359 58.8374 33.7359 58.7086C33.7359 58.5799 33.3597 58.4941 32.9172 58.4941C32.3567 58.4941 32.1575 58.4225 32.3198 58.2795C32.4525 58.1722 32.7402 58.1293 32.9836 58.1936Z" fill="#4B4E40"/>
<path d="M37.2541 58.5368C37.5639 58.3866 38.0728 58.1291 38.3825 57.9789C38.6923 57.8072 38.9578 57.657 38.98 57.657C39.0021 57.6355 38.8914 57.8501 38.7144 58.1076C38.5595 58.3866 38.3162 59.3093 38.1834 60.1461C38.0506 61.0044 37.94 62.0559 37.94 62.4636C37.94 63.1288 37.8736 63.2146 37.3868 63.2146C37.0771 63.2146 36.5682 63.4506 36.2363 63.7296C35.8822 64.0085 35.3512 64.3089 35.0193 64.3733C34.6653 64.4377 34.3998 64.6094 34.3998 64.7166C34.3998 64.8239 34.5768 64.9312 34.7759 64.9527C34.9972 64.9527 35.0857 65.0171 34.9529 65.06C34.8202 65.1243 34.3776 65.0171 33.9572 64.8454C33.441 64.6165 33.3672 64.545 33.736 64.6308C34.2006 64.7166 34.2228 64.6952 33.913 64.5021C33.6917 64.3948 33.3598 64.3304 33.1828 64.3948C33.0058 64.4591 32.696 64.4591 32.519 64.3948C32.3199 64.3304 32.2535 64.1802 32.342 64.03C32.4748 63.8369 32.4084 63.8154 32.0765 63.9227C31.8331 64.03 31.7003 64.03 31.811 63.9227C31.8995 63.8369 31.7003 63.5794 30.7489 63L31.4127 62.9786C31.7888 62.9571 32.2978 62.9571 32.5633 62.9786C32.8509 63 33.382 62.8498 33.736 62.6781C34.09 62.5065 34.3998 62.2275 34.3998 62.0773C34.3776 61.9486 34.5325 61.6696 34.7317 61.498C34.9087 61.3263 35.0857 60.8757 35.1299 60.5324C35.1521 60.1461 35.307 59.8886 35.5061 59.8672C35.6831 59.8457 35.9708 59.8242 36.1035 59.8242C36.2584 59.8028 36.4575 59.5668 36.5239 59.3093C36.6124 59.0518 36.9222 58.7084 37.2541 58.5368Z" fill="#454739"/>
<path d="M62.5668 51.3706C63.3191 50.92 64.536 50.0832 65.2662 49.5038C65.9964 48.903 66.638 48.4309 66.7044 48.4309C66.7708 48.4309 66.2619 48.9244 65.576 49.5467C64.89 50.169 63.6288 51.0273 62.8102 51.4779C61.9693 51.9071 61.2613 52.2504 61.2392 52.229C61.217 52.186 61.8145 51.7998 62.5668 51.3706Z" fill="#EFDAB3"/>
<path d="M56.5262 64.4385C56.9909 63.7089 57.4555 62.7004 57.5441 62.1854C57.6104 61.6919 57.7211 61.2842 57.7874 61.2842C57.8317 61.2842 57.8317 61.7133 57.7653 62.2498C57.6989 62.7862 57.4334 63.5802 57.19 64.0093C56.9466 64.4599 56.5041 65.1037 56.1943 65.4685C55.8846 65.8118 55.6412 66.0478 55.6412 65.9405C55.6412 65.8547 56.0395 65.1895 56.5262 64.4385Z" fill="#EFDAB3"/>
<path d="M62.0577 30.3411C62.9649 30.2123 64.1154 29.9549 64.5801 29.7403C65.0669 29.5257 65.5537 29.4184 65.6864 29.5042C65.8192 29.5686 66.3281 30.5128 66.8591 31.5642C67.368 32.6156 68.054 34.3752 68.3859 35.4266C68.9611 37.2076 69.0054 37.6582 69.0275 44.6535L68.3195 46.1126C67.9212 46.9066 67.5008 47.5503 67.368 47.5503C67.2574 47.5503 67.191 47.6147 67.2574 47.722C67.3017 47.8078 66.7706 48.3228 66.0404 48.9022C65.3103 49.4601 64.7571 49.9965 64.8235 50.1253C64.8899 50.254 64.8014 50.4042 64.6686 50.5115C64.4768 50.6116 64.44 50.5759 64.558 50.4042C64.6465 50.254 64.6465 50.1253 64.558 50.1253C64.4473 50.1038 64.2482 50.2326 64.1154 50.3828C63.9606 50.533 63.8942 50.7475 64.0048 50.8548C64.0933 50.9621 64.0269 50.9836 63.8942 50.9192C63.7393 50.8334 63.4074 50.8548 63.164 50.9836C62.9206 51.1123 62.7657 51.284 62.8321 51.4127C62.8985 51.5415 62.7879 51.5629 62.5666 51.4771C62.2789 51.3698 62.2126 51.3913 62.3453 51.5844C62.4338 51.7346 62.3896 51.799 62.2347 51.7346C62.0798 51.6702 61.7479 51.7775 61.5045 51.9921C61.2611 52.2067 60.8628 52.3998 60.6195 52.4427C60.3761 52.4856 60.0884 52.6358 59.9557 52.7646C59.845 52.9148 59.6016 53.0221 59.4689 53.0221C59.314 53.0221 59.0927 53.0435 58.96 53.0865C58.8493 53.1079 58.783 53.2152 58.8493 53.3439C58.9157 53.4727 58.7608 53.4942 58.4732 53.4083C58.097 53.301 58.0085 53.3225 58.1413 53.5156C58.2445 53.6873 58.1339 53.7803 57.8094 53.7946C57.5217 53.816 57.1677 53.816 57.035 53.7946C56.8801 53.7946 56.7473 53.8375 56.7473 53.9448C56.7473 54.0306 56.1278 54.2237 55.3755 54.3954C54.0921 54.6529 54.0258 54.6958 54.5347 54.9104C54.8444 55.0391 55.1763 55.1464 55.3091 55.1464C55.4197 55.1679 55.9065 55.7901 56.349 56.5626C56.8137 57.3351 57.3669 58.4938 57.566 59.1376C57.8536 60.1461 57.8758 60.5323 57.6545 61.7125C57.4996 62.5065 57.1013 63.5579 56.7252 64.1373C56.3712 64.6952 56.0835 65.1887 56.0835 65.2531C56.0835 65.3174 56.2163 65.296 56.3712 65.2102C56.5482 65.0957 56.5851 65.1315 56.4818 65.3174C56.3712 65.4462 56.2163 65.532 56.0835 65.4676C55.9729 65.4033 55.7738 65.5964 55.641 65.8968C55.5304 66.1972 55.1542 66.562 54.8223 66.7337C54.4683 66.9053 53.8045 67.077 53.3177 67.1199C52.4769 67.1843 52.4327 67.1414 52.2335 66.4333C52.0786 65.8753 52.1008 65.4033 52.3663 64.6093C52.5433 64.03 52.8088 63.5579 52.9416 63.6008C53.0965 63.6223 53.1628 63.515 53.1186 63.3862C53.0965 63.236 53.4283 62.5708 53.9151 61.9271C54.3798 61.2834 54.7559 60.5538 54.7559 60.3178C54.7559 60.0817 54.6453 59.7598 54.4904 59.6096C54.3355 59.4594 54.1364 59.3522 54.0479 59.3522C53.9373 59.3522 53.4726 60.1032 52.9637 61.0259C52.4769 61.9271 51.9237 63.2575 51.7246 63.9656C51.5476 64.6952 51.4591 65.5964 51.5255 66.0685C51.6582 66.8195 51.614 66.8839 50.9502 67.1199C50.5519 67.2701 49.5341 67.3774 48.6712 67.3989C47.8303 67.3989 46.7462 67.3345 46.3036 67.2487C45.662 67.1199 45.4628 66.9697 45.4628 66.6478C45.4628 66.4118 45.3743 66.0256 45.2416 65.7895C45.1309 65.5535 44.9318 65.3604 44.799 65.3604C44.6884 65.3604 44.6441 65.4891 44.7105 65.6393C44.7769 65.7681 44.7326 66.1114 44.5999 66.3903C44.445 66.6693 44.1574 66.8624 43.8697 66.8624C43.5821 66.8624 43.051 66.6478 42.6749 66.3903C42.2766 66.1114 41.7456 65.5964 41.4579 65.2531C41.1703 64.9097 40.7941 64.502 40.6392 64.3948C40.4401 64.266 40.3073 63.751 40.3073 63.1073C40.2852 62.5279 40.3295 61.7984 40.3959 61.4979C40.4844 61.1975 40.772 60.425 41.6349 58.6011L41.5464 60.1032C41.48 60.94 41.5464 61.8627 41.6792 62.2061C41.8341 62.5708 42.0996 62.7854 42.3651 62.7854C42.7413 62.7854 42.7855 62.6996 42.6528 62.2061C42.5421 61.8627 42.4757 60.94 42.4757 60.1032C42.4757 59.2663 42.6306 58.0647 42.8076 57.378C43.0953 56.3051 43.0953 56.1335 42.8076 55.8331C42.4979 55.5112 42.4315 55.5112 42.0332 55.8545C41.7456 56.0906 41.7677 56.0262 42.0996 55.7043C42.4979 55.2752 42.8519 55.1464 43.8697 55.1035C44.5556 55.082 45.2416 54.9533 45.3522 54.846C45.4849 54.7172 45.2194 54.567 44.5778 54.4168C44.0246 54.2881 42.8519 53.9877 41.989 53.7516C41.1039 53.5371 39.8427 53.0865 39.2231 52.786C38.5815 52.4642 37.3645 51.7346 36.5237 51.1123C35.6829 50.5115 34.7315 49.6746 34.3774 49.2669C34.0456 48.8592 33.3818 47.7434 32.9171 46.7993C32.0984 45.147 32.0763 44.9968 32.0763 42.8296C32.0763 41.585 32.1427 40.319 32.2533 39.9971C32.3418 39.6538 32.6737 39.0959 33.0277 38.7097C33.3596 38.3449 34.466 37.4866 35.5059 36.8214C36.5458 36.1347 37.9841 35.2979 38.7142 34.9545C39.4444 34.5898 41.4358 33.8602 43.1395 33.3237C44.8433 32.7873 47.2329 32.165 48.4499 31.929C49.6668 31.6929 51.614 31.3925 52.7646 31.2638C53.9151 31.135 56.1057 30.9419 57.6324 30.8132C59.1591 30.6844 61.1505 30.4698 62.0577 30.3411Z" fill="#F2CC94"/>
<path d="M18.6898 56.4548C18.9553 56.6265 18.9774 56.5192 18.8447 55.7038C18.7561 55.0815 18.7783 54.8455 18.911 55.06C19.1102 55.339 19.1323 55.339 19.1323 55.06C19.1544 54.8025 19.1987 54.824 19.3536 55.103C19.4863 55.339 19.4863 55.5965 19.3757 55.7681C19.2651 55.9184 19.2872 56.4333 19.4421 57.0127C19.597 57.635 19.597 57.9569 19.4642 57.8496C19.3536 57.7423 19.0438 57.356 18.8004 56.9483C18.5128 56.4977 18.4685 56.3261 18.6898 56.4548Z" fill="#899519"/>
<path d="M34.1783 56.4333C34.3996 56.5192 34.82 56.2617 35.3953 55.7038C35.8599 55.2317 36.3025 54.8455 36.3688 54.8455C36.4352 54.8455 36.1476 55.1673 35.7714 55.5536C35.3731 55.9398 34.997 56.4763 34.9527 56.7338C34.8864 57.0127 34.997 57.3131 35.1961 57.4633C35.4838 57.6994 35.5944 57.6779 35.7272 57.4204C35.8378 57.2487 36.0591 56.9269 36.2139 56.7338C36.4131 56.4763 36.8556 56.3475 37.7185 56.3261C38.3823 56.3046 39.1346 56.3904 39.378 56.4763C39.7542 56.6479 39.7763 56.605 39.6436 56.1973C39.555 55.8969 39.5772 55.7467 39.7099 55.8111C39.8427 55.8754 39.9312 56.0042 39.9312 56.1329C39.9312 56.2617 39.5993 56.7338 39.2231 57.2058C38.8249 57.6994 38.1832 58.1714 37.8292 58.3002C37.4752 58.4075 36.8556 58.4718 36.5016 58.4289C36.1476 58.386 35.4838 58.1714 35.0634 57.9783C34.466 57.7208 34.1119 57.6779 33.5145 57.8496C33.0941 57.9783 32.3861 58.0641 31.9657 58.0641C31.5453 58.0641 30.7708 58.2573 30.2619 58.4933C29.7309 58.7293 29.3105 59.0727 29.3105 59.2443C29.3105 59.416 29.1556 59.6091 28.9786 59.6735C28.8016 59.7379 28.6909 59.9095 28.7352 60.0597C28.7794 60.1885 28.7131 60.4889 28.6246 60.7035C28.4475 61.0468 28.3812 61.0468 26.7659 60.1241L27.651 61.1755L27.12 60.7464C26.8544 60.5103 26.3677 59.931 26.1021 59.4589C25.8145 58.9868 25.4605 58.3431 25.3498 58.0212C25.195 57.635 25.195 57.4633 25.3277 57.5277C25.4605 57.5921 26.0136 57.3989 26.6111 57.12C27.1863 56.841 28.0493 56.4977 28.5361 56.369C29.0228 56.2402 29.9743 56.1329 30.6381 56.1115C31.3019 56.09 32.2533 56.1544 32.7401 56.2617C33.4924 56.4119 33.5809 56.3904 33.4039 56.1115C33.249 55.8969 33.2711 55.854 33.4703 55.9827C33.603 56.0686 33.6915 56.1973 33.6473 56.3046C33.5809 56.3904 33.7579 56.5835 34.0234 56.7552C34.4881 57.0342 34.4881 57.0342 34.1783 56.6908C33.8907 56.3475 33.8907 56.3261 34.1783 56.4333Z" fill="#899519"/>
<path d="M34.9527 64.3942C35.3068 64.3084 35.9042 64.008 36.2361 63.729C36.5901 63.4501 37.1211 63.214 37.4088 63.214C37.8292 63.214 37.9619 63.3428 38.0726 63.9221C38.1611 64.3799 38.1021 64.6589 37.8956 64.759C37.7407 64.8448 37.4088 64.9307 37.1654 64.9521C36.922 64.9736 36.3688 65.038 35.9484 65.0594C35.528 65.1023 34.9749 64.995 34.7315 64.8448C34.3111 64.5659 34.3111 64.5444 34.9527 64.3942Z" fill="#899519"/>
<path d="M35.7938 55.4904C36.1699 55.0827 36.6567 54.632 36.8337 54.4818C37.0107 54.3316 37.3205 54.2029 37.4975 54.2029C37.6745 54.2029 38.0949 54.3745 38.4268 54.632C38.7808 54.8681 39.2012 55.3616 39.3783 55.7049C39.5553 56.0483 39.7101 56.3916 39.7101 56.456C39.7101 56.5203 39.5331 56.4989 39.334 56.4345C39.1127 56.3487 38.3826 56.3058 37.7188 56.3272C36.8558 56.3487 36.4133 56.4774 36.2142 56.7349C36.0593 56.928 35.838 57.2499 35.7274 57.4216C35.5946 57.6791 35.484 57.7005 35.1963 57.4645C34.9751 57.3143 34.8866 57.0139 34.953 56.7135C35.0193 56.456 35.3955 55.8981 35.7938 55.4904Z" fill="#899519"/>
<path d="M28.6026 24.0754C28.8902 23.7321 29.3549 23.3673 29.6204 23.2815C29.8638 23.1957 30.4169 23.1098 30.7931 23.1098C31.1914 23.0884 31.5233 23.1313 31.5233 23.1957C31.5233 23.26 31.1471 23.4102 30.6825 23.539C30.2399 23.6677 29.5319 24.0754 29.1336 24.4617C28.7132 24.8265 28.2485 25.3844 28.0715 25.7277C27.8945 26.0496 27.7175 26.2856 27.6511 26.2641C27.5848 26.2212 27.6511 25.8564 27.7839 25.4487C27.9388 25.041 28.2928 24.4188 28.6026 24.0754Z" fill="#231512"/>
<path d="M48.7377 25.3414C48.7155 25.1698 49.0032 24.8908 49.3572 24.7192C49.7112 24.5475 50.3087 24.3973 50.6627 24.3973C51.0167 24.3758 51.4592 24.4617 51.6362 24.569C51.8133 24.6763 51.8796 24.9337 51.7911 25.2127C51.7247 25.4487 51.4814 25.7491 51.2601 25.8564C51.061 25.9423 50.552 26.0925 50.1538 26.1783C49.667 26.2641 49.3351 26.1998 49.1138 25.9852C48.9368 25.8135 48.7598 25.5131 48.7377 25.3414Z" fill="#231512"/>
<path d="M43.7371 26.5216C43.7813 26.0925 44.0247 25.9208 44.9098 25.6204C45.5072 25.4273 46.2153 25.2342 46.4586 25.2342C46.702 25.2342 47.0118 25.3414 47.1667 25.4917C47.388 25.7062 47.3658 25.8779 47.0782 26.2641C46.879 26.5216 46.4365 26.8864 46.0825 27.0581C45.7506 27.2297 45.1974 27.3799 44.8434 27.3799C44.5115 27.3799 44.1132 27.2941 43.9584 27.2083C43.8035 27.1225 43.6928 26.822 43.7371 26.5216Z" fill="#231512"/>
<path d="M32.2534 53.9448C31.656 52.8505 31.1692 51.8205 31.1471 51.6488C31.1029 51.3699 31.1471 51.3699 31.3905 51.6488C31.5454 51.8205 32.01 52.5715 32.3862 53.344C32.7845 54.1165 33.2491 54.9962 33.4261 55.3396C33.6032 55.6614 33.6474 55.9189 33.5147 55.9189C33.3819 55.9189 32.8287 55.0177 32.2534 53.9448Z" fill="#231512"/>
<path d="M51.8575 64.5021C51.9903 63.8583 52.5213 62.485 53.0302 61.4551C53.5391 60.4036 54.0259 59.5668 54.1365 59.5668C54.225 59.5668 54.3578 59.717 54.4242 59.8886C54.4906 60.0603 54.5348 60.3393 54.5348 60.4895C54.5569 60.6182 54.0923 61.4336 53.517 62.249C52.9417 63.0859 52.3443 64.0729 52.1673 64.4592C52.0124 64.824 51.8796 65.4033 51.8575 65.7466C51.8575 66.0685 51.7911 66.1973 51.7247 66.0041C51.6584 65.8325 51.7247 65.1458 51.8575 64.5021Z" fill="#231512"/>
<path d="M29.3991 46.7565C29.3106 46.5419 29.045 46.1986 28.7795 45.984C28.3149 45.5977 28.3149 45.5977 28.868 45.8552C29.1778 46.0054 30.0407 46.7565 30.8152 47.529C31.5896 48.3014 32.4525 49.4387 32.7402 50.0181C33.0278 50.6189 33.3818 51.7347 33.5146 52.5501C33.6252 53.344 33.8907 54.3955 34.0678 54.9105C34.2448 55.404 34.3997 55.9834 34.3997 56.1979C34.3997 56.4983 34.3333 56.5198 33.9571 56.3052C33.7359 56.155 33.581 55.9834 33.6252 55.919C33.6916 55.8546 33.581 55.5757 33.404 55.2752C33.2491 54.9748 32.7844 54.1165 32.3861 53.344C32.01 52.5716 31.5453 51.8205 31.3905 51.6918C31.2134 51.5416 31.0807 51.4987 31.0807 51.6274C31.0807 51.7562 31.2798 52.1853 31.5232 52.593C31.7666 53.0007 31.9215 53.344 31.8551 53.344C31.7887 53.344 31.5011 52.9363 31.2134 52.4428C30.9258 51.9278 30.1956 51.1339 29.6203 50.6403C29.0229 50.1468 28.1379 49.5675 27.6511 49.3314C27.1643 49.0954 26.4784 48.8164 25.4384 48.5589L26.766 48.2585L26.2129 48.001C25.6597 47.765 25.6597 47.765 26.3235 47.8508C26.6996 47.9152 27.2307 48.0225 27.5404 48.0869C27.9387 48.1727 27.8723 48.1083 27.3192 47.8294C26.8988 47.6362 26.0358 47.4646 25.3942 47.4646C24.7746 47.4431 24.1772 47.3573 24.0666 47.2715C23.9781 47.1642 24.0445 47.0998 24.2215 47.1213C24.3985 47.1427 24.9074 47.1642 25.3278 47.1427C25.7482 47.1427 26.0137 47.0569 25.9031 46.971C25.8146 46.8852 25.1508 46.735 23.2258 46.499L24.664 46.5848C25.4606 46.6277 26.766 46.9067 27.6068 47.2071C28.4255 47.529 29.1114 47.7006 29.1114 47.6148C29.1336 47.5075 29.1336 47.3787 29.1114 47.2929C29.1114 47.1856 29.1778 47.1213 29.3106 47.1213C29.4433 47.1213 29.4654 46.9496 29.3991 46.7565Z" fill="#B96B23"/>
<path d="M72.0147 47.6148C71.4615 47.5504 70.8641 47.4217 70.6871 47.3144C70.4437 47.1856 70.5543 47.1427 71.019 47.1427C71.373 47.1427 71.9926 47.2715 72.3466 47.4431C73.0104 47.7435 73.0104 47.7435 72.0147 47.6148Z" fill="#B96B23"/>
<path d="M68.917 54.2024C69.1604 54.2024 70.2446 53.387 71.4615 52.2711C72.6121 51.2197 73.6078 50.3399 73.6742 50.3399C73.7405 50.3399 73.652 50.576 73.4529 50.8764C73.1653 51.3485 73.1653 51.4128 73.4529 51.4128C73.6299 51.4128 73.7848 51.4987 73.7848 51.6274C73.7848 51.7562 73.2095 52.2926 72.5236 52.8291C71.8155 53.387 70.5543 54.1594 69.6914 54.5457C68.8285 54.9534 68.1204 55.2109 68.0983 55.168C68.054 55.1036 68.1204 54.8675 68.2532 54.6315C68.3859 54.3955 68.6736 54.2024 68.917 54.2024Z" fill="#B96B23"/>
<path d="M34.6652 53.9234C34.4882 52.7218 34.3111 51.5845 34.2448 51.4128C34.1563 51.1983 34.3554 51.2412 34.8643 51.5845C35.2847 51.8634 36.8778 52.6788 41.2589 54.7388L40.0419 56.3267L39.71 55.7688C39.533 55.4684 39.1126 54.9963 38.7586 54.7173C38.4267 54.4384 37.9178 54.2024 37.608 54.2024C37.254 54.2024 36.6566 54.5457 34.9528 56.1121L34.6652 53.9234Z" fill="#B96B23"/>
<path d="M24.0445 55.8117C23.9338 55.4684 23.7568 54.9748 23.6904 54.7388C23.6019 54.5028 23.9338 55.125 24.4427 56.1336C24.9295 57.1421 25.3499 58.0004 25.3499 58.0648C25.3499 58.1291 25.195 58.0219 24.9959 57.8502C24.7968 57.6785 24.6419 57.3781 24.664 57.2065C24.664 57.0348 24.5755 56.7988 24.487 56.67C24.3764 56.5413 24.1772 56.155 24.0445 55.8117Z" fill="#B96B23"/>
<path d="M19.4422 57.0133C19.2873 56.4769 19.243 55.9404 19.2873 55.8546C19.3536 55.7688 19.6855 56.0692 20.0396 56.5627C20.3936 57.0348 21.1459 57.7214 21.7212 58.0648C22.3628 58.451 23.0709 58.7085 23.4913 58.7085C24.0445 58.7085 24.2215 58.6227 24.2215 58.3437C24.2215 58.1291 24.0223 57.5283 23.7789 56.9919C23.5356 56.4554 23.3585 56.0048 23.3807 55.9619C23.4249 55.9404 23.7126 56.4769 24.0445 57.1421C24.3764 57.8287 24.664 58.5368 24.664 58.7085C24.664 58.8802 25.1065 59.481 25.6597 60.0604C26.2129 60.6183 26.6554 61.1547 26.6554 61.2835C26.6554 61.4122 26.3899 61.5624 26.0358 61.6268C25.7039 61.7126 24.9516 61.6268 24.3321 61.4337C23.7126 61.2405 22.7833 60.7899 22.2301 60.4466C21.6769 60.1033 20.991 59.5883 20.6812 59.3093C20.3715 59.0304 19.8847 58.5154 19.5749 58.1721C19.2651 57.8287 19.1766 57.6571 19.3536 57.7858C19.6413 57.9789 19.6634 57.8931 19.4422 57.0133Z" fill="#B96B23"/>
<path d="M41.7014 60.9616C41.7014 60.3822 41.812 59.5239 41.9227 59.0948C42.0554 58.6441 42.1882 58.2794 42.2103 58.2794C42.2324 58.2794 42.2103 58.9875 42.1661 59.8458C42.1218 60.7255 42.1882 61.5839 42.3431 61.8843C42.4758 62.1418 42.5422 62.4207 42.4758 62.528C42.4316 62.6138 42.2103 62.528 42.0333 62.3563C41.7899 62.1418 41.6793 61.6697 41.7014 60.9616Z" fill="#B96B23"/>
<path d="M23.3364 44.6534C23.4691 44.7178 23.5576 44.6749 23.5576 44.5461C23.5576 44.4174 23.9117 44.3315 24.3321 44.3315C24.7746 44.3315 25.0622 44.4174 24.9959 44.5461C24.9295 44.6749 25.1286 44.8465 25.4384 44.9753C25.7482 45.104 26.2128 45.1899 26.4783 45.1899C26.766 45.1899 27.3855 45.383 27.8723 45.5976C28.4697 45.898 28.8237 46.2198 28.9344 46.6275C29.045 47.0352 29.0229 47.2713 28.8237 47.3571C28.6689 47.4429 27.8059 47.2713 26.943 46.9923C25.9694 46.6705 24.7967 46.4773 24.0002 46.4773C23.27 46.4773 22.6726 46.3915 22.6726 46.2628C22.6726 46.134 22.3407 46.1769 21.8981 46.37C21.4777 46.5417 21.0795 46.6919 21.0131 46.6919C20.9467 46.6919 20.9025 46.5417 20.9025 46.37C20.9025 46.1984 21.2122 45.8336 21.5884 45.5546C21.9645 45.2971 22.3628 45.104 22.4734 45.1469C22.5841 45.1684 22.6726 45.104 22.6726 44.9753C22.6726 44.8465 22.7611 44.8036 22.8938 44.868C23.0266 44.9324 23.1151 44.8894 23.1151 44.7607C23.1151 44.632 23.2036 44.589 23.3364 44.6534Z" fill="#B96B23"/>
<path d="M26.766 47.8292C26.2792 47.7648 25.6818 47.6361 25.4384 47.5288C25.0401 47.3786 25.0622 47.3571 25.549 47.3571C25.8588 47.3571 26.4562 47.5073 27.651 47.9579L26.766 47.8292Z" fill="#B96B23"/>
<path d="M18.8889 48.6446C19.0881 48.3656 19.5306 48.0008 19.9068 47.8292C20.305 47.6575 20.9246 47.6146 21.4556 47.679C21.9424 47.7648 22.4071 47.9365 22.4734 48.0652C22.5619 48.194 22.7168 48.2369 22.8053 48.1725C22.916 48.0867 23.6019 48.151 24.3321 48.3013C25.0622 48.4729 26.0137 48.6875 26.4341 48.8162C26.8545 48.9664 27.6068 49.2883 28.0936 49.5673C28.5803 49.8462 29.4433 50.49 29.9964 51.0049C30.6381 51.6058 31.3904 52.7001 33.1827 56.1119H31.4125C30.439 56.0905 29.1999 56.2192 28.6467 56.348C28.0936 56.4982 27.1421 56.8415 26.5447 57.1419C25.9252 57.4209 25.372 57.5925 25.3056 57.4852C25.2392 57.3994 24.3763 55.7686 23.3806 53.8803C22.4071 51.992 21.4114 50.0393 21.1901 49.5458C20.9688 49.0523 20.7254 48.6875 20.6148 48.7304C20.5263 48.7948 20.5263 49.0952 20.5927 49.4171C20.6591 49.7604 20.9688 50.5972 21.2344 51.3054C21.522 52.0135 22.3186 53.8159 22.9823 55.318C23.6683 56.8415 24.2214 58.2148 24.2214 58.3865C24.2214 58.601 24.0002 58.7083 23.4913 58.7083C23.093 58.7083 22.3628 58.4508 21.7875 58.1075C21.2344 57.7856 20.5706 57.2277 20.305 56.8844C20.0395 56.5196 19.6855 55.8544 19.4864 55.3824C19.2872 54.8459 19.1545 54.6957 19.1545 54.9532C19.1323 55.318 19.0881 55.318 18.9111 55.0605C18.7783 54.8459 18.7562 55.0605 18.8447 55.7042C18.9332 56.3694 18.8889 56.6055 18.7341 56.4552C18.6234 56.3265 18.3579 55.7901 18.1588 55.2107C17.9596 54.6528 17.8047 53.5584 17.8047 52.7645C17.8047 51.9491 17.9596 50.8118 18.1809 50.2325C18.38 49.6316 18.6898 48.9235 18.8889 48.6446Z" fill="#B96B23"/>
<path d="M69.2932 41.8634C69.2489 42.3355 69.2046 42.0565 69.2046 41.2197C69.2046 40.3828 69.2489 40.018 69.2932 40.3613C69.3374 40.7047 69.3374 41.3913 69.2932 41.8634Z" fill="#C6B48E"/>
<path d="M43.9583 54.7381C44.5336 54.7381 44.9319 54.6737 44.8876 54.5879C44.8434 54.4806 44.954 54.4806 45.131 54.5879C45.3302 54.6737 45.3965 54.8025 45.308 54.8883C45.2195 54.9742 44.5779 55.0814 43.9141 55.1244C43.0511 55.2102 42.7414 55.1673 42.8299 54.9742C42.8963 54.8454 43.4052 54.7381 43.9583 54.7381Z" fill="#C6B48E"/>
<path d="M40.3075 57.5276C40.5066 57.1843 40.927 56.5835 41.3031 56.2187C41.6572 55.8325 42.0776 55.5535 42.2546 55.575C42.4095 55.575 42.675 55.6823 42.8077 55.811C42.9626 55.9398 43.0069 56.3475 42.9405 56.841C42.8741 57.2701 42.7192 57.592 42.5865 57.5276C42.4537 57.4633 42.321 57.6135 42.2546 57.8495C42.1882 58.0856 42.0554 58.2787 41.9227 58.2787C41.7899 58.2787 41.7678 58.4503 41.8563 58.6649C41.9669 58.9224 41.9448 58.9868 41.7457 58.8795C41.5687 58.7507 41.3253 59.0726 41.0155 59.8451C40.75 60.4459 40.4845 61.1969 40.4181 61.4974C40.3296 61.7978 40.2632 62.4844 40.2632 63.0209C40.2632 63.8363 40.3738 64.1367 40.9049 64.6302C41.2368 64.9735 41.6572 65.51 41.8342 65.8533C42.0112 66.1752 42.1882 66.4327 42.2546 66.4327C42.321 66.4327 42.2988 66.3039 42.2103 66.1752C42.0923 65.9892 42.1292 65.9534 42.321 66.0679C42.4537 66.1537 42.5422 66.3254 42.4759 66.4327C42.4095 66.54 42.5865 66.6472 42.852 66.6687C43.3388 66.6687 43.3388 66.6902 42.9184 66.8404C42.6307 66.9477 42.2325 66.8618 41.7235 66.5614C41.3031 66.3039 40.6836 65.7675 40.3517 65.3598C40.0198 64.9521 39.6215 64.3083 39.4888 63.965C39.3339 63.6217 39.179 62.7848 39.1348 62.1411C39.0684 61.3257 39.179 60.5317 39.5109 59.5661C39.7764 58.7937 40.1304 57.871 40.3075 57.5276Z" fill="#C6B48E"/>
<path d="M30.461 61.1107C30.4831 60.7888 30.5495 60.4455 30.6159 60.3382C30.6823 60.2523 30.815 60.2953 30.8814 60.4455C30.9699 60.6171 30.992 60.9605 30.9478 61.218C30.9035 61.4969 30.7708 61.7115 30.638 61.7115C30.5053 61.7115 30.4389 61.454 30.461 61.1107Z" fill="#515647"/>
<path d="M52.7203 50.4906C52.6981 50.2116 52.8088 49.8898 52.9858 49.7396C53.1628 49.5894 53.4062 49.5035 53.5168 49.5464C53.6496 49.5894 53.7823 49.8469 53.8266 50.1473C53.8709 50.4262 53.7602 50.791 53.5611 50.9412C53.3619 51.07 53.1186 51.1558 52.9858 51.0914C52.853 51.027 52.7424 50.7695 52.7203 50.4906Z" fill="#FBEDCE"/>
<path d="M52.4992 50.4468C52.477 50.1893 52.5877 49.8889 52.7647 49.7387C52.9417 49.5885 53.1187 49.4812 53.1851 49.4812C53.2515 49.4812 53.1851 49.6099 53.0302 49.7602C52.8753 49.8889 52.7647 50.2322 52.7647 50.5112C52.7647 50.7687 52.8532 51.0262 52.986 51.0905C53.1187 51.1549 53.3621 51.0691 53.5391 50.9403C53.8268 50.7258 53.8931 50.7258 53.871 50.9403C53.871 51.0691 53.7161 51.2407 53.5391 51.3051C53.3621 51.3695 53.0523 51.2837 52.8753 51.1549C52.6762 51.0047 52.4992 50.6828 52.4992 50.4468Z" fill="#EFDAB3"/>
<path d="M59.5575 33.6461C59.6239 33.453 59.7788 33.1526 59.9116 33.0238V33.0024C60.0222 32.8736 60.332 32.7449 60.5975 32.7449C60.8409 32.7449 61.2391 32.9165 61.4604 33.1311C61.6817 33.3242 61.8587 33.5603 61.8366 33.6461C61.8366 33.7534 61.5047 33.7963 61.1064 33.7749C60.7302 33.7534 60.1771 33.8178 59.8894 33.8821C59.4912 34.0109 59.4248 33.968 59.5575 33.6461Z" fill="#231512"/>
<path d="M41.5244 36.8433C41.6793 36.4571 42.1219 35.9421 42.4759 35.7275C42.8299 35.5129 43.2061 35.3413 43.2946 35.3413C43.4052 35.3413 43.7371 35.47 44.069 35.6417C44.423 35.7919 44.8877 36.1996 45.1311 36.5429C45.4851 37.0364 45.5736 37.5085 45.5736 38.8818C45.5515 39.826 45.4851 40.8345 45.3966 41.1349C45.3081 41.4782 44.8877 41.8645 43.2724 42.7442L42.4316 42.0791C41.9449 41.6928 41.4581 41.0705 41.3032 40.577C41.1262 40.062 41.0598 39.311 41.1262 38.6672C41.1926 38.0664 41.3696 37.251 41.5244 36.8433Z" fill="#231512"/>
<path d="M59.2699 37.4227C59.3363 36.9935 59.646 36.3927 59.9558 36.0923C60.3098 35.7275 60.7302 35.5559 61.217 35.5559C61.6153 35.5559 62.1463 35.6846 62.3897 35.8563C62.6331 36.0279 62.7659 36.2425 62.6774 36.3498C62.5889 36.4356 62.611 36.6931 62.7216 36.8862C62.8544 37.1008 63.0535 37.2081 63.1863 37.1008C63.319 37.015 63.5182 37.1008 63.6288 37.2725C63.7394 37.4441 63.8279 38.1737 63.8279 38.8818C63.8279 39.6972 63.6731 40.4483 63.4297 40.8989C63.2305 41.3066 62.6995 41.8216 62.2791 42.0576C61.7628 42.3437 61.3203 42.4367 60.9515 42.3365C60.6417 42.2722 60.1549 41.9932 59.8452 41.7572C59.3805 41.3709 59.2699 41.0705 59.2035 39.7616C59.1593 38.9247 59.1814 37.8733 59.2699 37.4227Z" fill="#231512"/>
<path d="M45.4187 45.6411C44.9541 45.1046 44.5558 44.5038 44.5779 44.2892C44.5779 44.0961 44.6443 43.9244 44.7328 43.9244C44.8434 43.9459 45.2859 44.3321 45.7285 44.7827C46.2153 45.2763 47.3216 45.9844 48.273 46.435C49.9768 47.2289 50.0431 47.2504 55.3092 47.2504L56.9687 46.3706C58.2078 45.7269 58.7388 45.3192 59.0707 44.7184C59.3141 44.2678 59.6903 43.9244 59.8894 43.9244C60.1107 43.9244 60.2877 44.0532 60.2877 44.1819C60.2877 44.3321 60.0222 44.8471 59.6682 45.3192C59.3141 45.7913 58.6725 46.4994 58.2299 46.8642C57.7874 47.2504 56.7917 47.8727 56.0173 48.2375C55.0659 48.7095 54.225 48.9456 53.2072 49.0099C52.0345 49.0958 51.4592 49.0099 50.1095 48.5379C49.2023 48.2375 47.9633 47.6796 47.3658 47.2933C46.7684 46.9071 45.8834 46.1775 45.4187 45.6411Z" fill="#231512"/>
<path d="M70.3553 53.559C70.5986 53.3015 71.1961 52.808 71.6828 52.4647C72.3024 52.0141 72.59 51.9282 72.6564 52.1213C72.7007 52.2715 72.5015 52.572 72.2139 52.7865C71.9262 53.0011 71.3731 53.3659 71.019 53.6019C70.665 53.8165 70.2446 54.0096 70.134 54.0096C70.0012 54.0096 70.1119 53.8165 70.3553 53.559Z" fill="#231512"/>
<path d="M26.6111 53.4083C26.2792 53.022 25.9915 52.6143 25.9915 52.4856C25.9915 52.3568 26.08 52.271 26.2128 52.271C26.3455 52.271 26.6774 52.5929 26.9651 52.9576C27.2749 53.3439 27.4519 53.7516 27.3855 53.8803C27.3191 54.0091 26.9651 53.773 26.6111 53.4083Z" fill="#472015"/>
<path d="M43.4051 37.4013C43.1396 37.4442 43.0289 37.3369 43.0511 37.0151C43.0658 36.7289 43.1912 36.6074 43.4272 36.6503C43.6485 36.6932 43.8034 36.8648 43.8034 37.0365C43.8034 37.2082 43.6264 37.3798 43.4051 37.4013Z" fill="#FBEDCE"/>
<path d="M61.1727 37.573C60.9956 37.573 60.8186 37.3584 60.7965 37.0794C60.7522 36.6932 60.8408 36.5859 61.1284 36.6503C61.3275 36.6932 61.5045 36.9078 61.5045 37.1438C61.5045 37.3798 61.3497 37.573 61.1727 37.573Z" fill="#FBEDCE"/>
<ellipse cx="2.17226" cy="1.09715" rx="2.17226" ry="1.09715" transform="matrix(0.978018 -0.208519 0.221039 0.975265 37.482 43.7156)" fill="#FC9D97"/>
<ellipse cx="1.92698" cy="1.06976" rx="1.92698" ry="1.06976" transform="matrix(0.987093 0.160147 -0.169959 0.985451 63.0364 42.5154)" fill="#FC9D97"/>
<path d="M29.2167 71.668H70.5424V71.668C70.5424 75.2098 67.6712 78.0811 64.1294 78.0811H29.2167V71.668Z" fill="#EFDAB3"/>
</svg>
