<svg width="16" height="16" viewBox="0 0 16 16" fill="none" xmlns="http://www.w3.org/2000/svg">
<path d="M14.5 1.71429H14.25V1.14286C14.25 0.839753 14.1446 0.549062 13.9571 0.334735C13.7696 0.120408 13.5152 0 13.25 0C12.9848 0 12.7304 0.120408 12.5429 0.334735C12.3554 0.549062 12.25 0.839753 12.25 1.14286V1.71429H10.75V1.14286C10.75 0.839753 10.6446 0.549062 10.4571 0.334735C10.2696 0.120408 10.0152 0 9.75 0C9.48478 0 9.23043 0.120408 9.04289 0.334735C8.85536 0.549062 8.75 0.839753 8.75 1.14286V1.71429H7.25V1.14286C7.25 0.839753 7.14464 0.549062 6.95711 0.334735C6.76957 0.120408 6.51522 0 6.25 0C5.98478 0 5.73043 0.120408 5.54289 0.334735C5.35536 0.549062 5.25 0.839753 5.25 1.14286V1.71429H3.75V1.14286C3.75 0.839753 3.64464 0.549062 3.45711 0.334735C3.26957 0.120408 3.01522 0 2.75 0C2.48478 0 2.23043 0.120408 2.04289 0.334735C1.85536 0.549062 1.75 0.839753 1.75 1.14286V1.71429H1.5C1.1023 1.71474 0.720997 1.8955 0.439778 2.21689C0.15856 2.53828 0.000397108 2.97405 0 3.42857L0 14.2857C0.000397108 14.7402 0.15856 15.176 0.439778 15.4974C0.720997 15.8188 1.1023 15.9995 1.5 16H14.5C14.8977 15.9995 15.279 15.8188 15.5602 15.4974C15.8414 15.176 15.9996 14.7402 16 14.2857V3.42857C15.9996 2.97405 15.8414 2.53828 15.5602 2.21689C15.279 1.8955 14.8977 1.71474 14.5 1.71429ZM12.75 1.14286C12.75 0.991305 12.8027 0.84596 12.8964 0.738796C12.9902 0.631632 13.1174 0.571429 13.25 0.571429C13.3826 0.571429 13.5098 0.631632 13.6036 0.738796C13.6973 0.84596 13.75 0.991305 13.75 1.14286V2.85714C13.75 3.0087 13.6973 3.15404 13.6036 3.2612C13.5098 3.36837 13.3826 3.42857 13.25 3.42857C13.1174 3.42857 12.9902 3.36837 12.8964 3.2612C12.8027 3.15404 12.75 3.0087 12.75 2.85714V1.14286ZM9.25 1.14286C9.25 0.991305 9.30268 0.84596 9.39645 0.738796C9.49021 0.631632 9.61739 0.571429 9.75 0.571429C9.88261 0.571429 10.0098 0.631632 10.1036 0.738796C10.1973 0.84596 10.25 0.991305 10.25 1.14286V2.85714C10.25 3.0087 10.1973 3.15404 10.1036 3.2612C10.0098 3.36837 9.88261 3.42857 9.75 3.42857C9.61739 3.42857 9.49021 3.36837 9.39645 3.2612C9.30268 3.15404 9.25 3.0087 9.25 2.85714V1.14286ZM5.75 1.14286C5.75 0.991305 5.80268 0.84596 5.89645 0.738796C5.99021 0.631632 6.11739 0.571429 6.25 0.571429C6.38261 0.571429 6.50979 0.631632 6.60355 0.738796C6.69732 0.84596 6.75 0.991305 6.75 1.14286V2.85714C6.75 3.0087 6.69732 3.15404 6.60355 3.2612C6.50979 3.36837 6.38261 3.42857 6.25 3.42857C6.11739 3.42857 5.99021 3.36837 5.89645 3.2612C5.80268 3.15404 5.75 3.0087 5.75 2.85714V1.14286ZM2.25 1.14286C2.25 0.991305 2.30268 0.84596 2.39645 0.738796C2.49021 0.631632 2.61739 0.571429 2.75 0.571429C2.88261 0.571429 3.00979 0.631632 3.10355 0.738796C3.19732 0.84596 3.25 0.991305 3.25 1.14286V2.85714C3.25 3.0087 3.19732 3.15404 3.10355 3.2612C3.00979 3.36837 2.88261 3.42857 2.75 3.42857C2.61739 3.42857 2.49021 3.36837 2.39645 3.2612C2.30268 3.15404 2.25 3.0087 2.25 2.85714V1.14286ZM1.5 2.28571H1.75V2.85714C1.75 3.16025 1.85536 3.45094 2.04289 3.66526C2.23043 3.87959 2.48478 4 2.75 4C3.01522 4 3.26957 3.87959 3.45711 3.66526C3.64464 3.45094 3.75 3.16025 3.75 2.85714V2.28571H5.25V2.85714C5.25 3.16025 5.35536 3.45094 5.54289 3.66526C5.73043 3.87959 5.98478 4 6.25 4C6.51522 4 6.76957 3.87959 6.95711 3.66526C7.14464 3.45094 7.25 3.16025 7.25 2.85714V2.28571H8.75V2.85714C8.75 3.16025 8.85536 3.45094 9.04289 3.66526C9.23043 3.87959 9.48478 4 9.75 4C10.0152 4 10.2696 3.87959 10.4571 3.66526C10.6446 3.45094 10.75 3.16025 10.75 2.85714V2.28571H12.25V2.85714C12.25 3.16025 12.3554 3.45094 12.5429 3.66526C12.7304 3.87959 12.9848 4 13.25 4C13.5152 4 13.7696 3.87959 13.9571 3.66526C14.1446 3.45094 14.25 3.16025 14.25 2.85714V2.28571H14.5C14.7652 2.28571 15.0196 2.40612 15.2071 2.62045C15.3946 2.83478 15.5 3.12547 15.5 3.42857V5.14286H0.5V3.42857C0.5 3.12547 0.605357 2.83478 0.792893 2.62045C0.98043 2.40612 1.23478 2.28571 1.5 2.28571ZM14.5 15.4286H1.5C1.23478 15.4286 0.98043 15.3082 0.792893 15.0938C0.605357 14.8795 0.5 14.5888 0.5 14.2857V5.71429H15.5V14.2857C15.5 14.5888 15.3946 14.8795 15.2071 15.0938C15.0196 15.3082 14.7652 15.4286 14.5 15.4286Z" fill="white"/>
<path d="M12 7.7147H5.716L5.49475 6.51299C5.48293 6.44882 5.45215 6.39125 5.40759 6.34994C5.36302 6.30863 5.30738 6.2861 5.25 6.28613H4C3.9337 6.28613 3.87011 6.31623 3.82322 6.36982C3.77634 6.4234 3.75 6.49607 3.75 6.57185C3.75 6.64762 3.77634 6.7203 3.82322 6.77388C3.87011 6.82746 3.9337 6.85756 4 6.85756H5.047L5.2515 7.96756C5.2505 7.97848 5.24999 7.98944 5.25 8.00042C5.24996 8.05123 5.26179 8.10114 5.28425 8.14499L5.942 11.7147H5.125C4.89294 11.7147 4.67038 11.8201 4.50628 12.0076C4.34219 12.1951 4.25 12.4495 4.25 12.7147C4.25 12.9799 4.34219 13.2343 4.50628 13.4218C4.67038 13.6093 4.89294 13.7147 5.125 13.7147H6.046C6.01639 13.8062 6.00083 13.9029 6 14.0004C6 14.2277 6.07902 14.4458 6.21967 14.6065C6.36032 14.7673 6.55109 14.8576 6.75 14.8576C6.94891 14.8576 7.13968 14.7673 7.28033 14.6065C7.42098 14.4458 7.5 14.2277 7.5 14.0004C7.49917 13.9029 7.48361 13.8062 7.454 13.7147H9.046C9.01639 13.8062 9.00083 13.9029 9 14.0004C9 14.2277 9.07902 14.4458 9.21967 14.6065C9.36032 14.7673 9.55109 14.8576 9.75 14.8576C9.94891 14.8576 10.1397 14.7673 10.2803 14.6065C10.421 14.4458 10.5 14.2277 10.5 14.0004C10.4992 13.9029 10.4836 13.8062 10.454 13.7147H11.5C11.5663 13.7147 11.6299 13.6846 11.6768 13.631C11.7237 13.5774 11.75 13.5048 11.75 13.429C11.75 13.3532 11.7237 13.2805 11.6768 13.227C11.6299 13.1734 11.5663 13.1433 11.5 13.1433H5.125C5.02554 13.1433 4.93016 13.0981 4.85984 13.0177C4.78951 12.9374 4.75 12.8284 4.75 12.7147C4.75 12.601 4.78951 12.492 4.85984 12.4117C4.93016 12.3313 5.02554 12.2861 5.125 12.2861H11C11.0544 12.2861 11.1073 12.2659 11.1507 12.2285C11.1941 12.191 11.2256 12.1385 11.2405 12.0787L12.2405 8.0787C12.2511 8.03618 12.2529 7.99143 12.2458 7.94797C12.2387 7.90451 12.2229 7.86353 12.1996 7.82825C12.1763 7.79296 12.1461 7.76435 12.1115 7.74464C12.0768 7.72494 12.0387 7.71469 12 7.7147ZM7 14.0004C7 14.0569 6.98534 14.1122 6.95787 14.1592C6.9304 14.2061 6.89135 14.2428 6.84567 14.2644C6.79999 14.286 6.74972 14.2917 6.70123 14.2806C6.65273 14.2696 6.60819 14.2424 6.57322 14.2024C6.53826 14.1625 6.51445 14.1116 6.5048 14.0562C6.49516 14.0007 6.50011 13.9433 6.51903 13.8911C6.53795 13.8389 6.57 13.7942 6.61111 13.7629C6.65222 13.7315 6.70055 13.7147 6.75 13.7147C6.8163 13.7147 6.87989 13.7448 6.92678 13.7984C6.97366 13.852 7 13.9246 7 14.0004ZM10 14.0004C10 14.0569 9.98534 14.1122 9.95787 14.1592C9.9304 14.2061 9.89135 14.2428 9.84567 14.2644C9.79999 14.286 9.74972 14.2917 9.70123 14.2806C9.65273 14.2696 9.60819 14.2424 9.57322 14.2024C9.53826 14.1625 9.51445 14.1116 9.5048 14.0562C9.49516 14.0007 9.50011 13.9433 9.51903 13.8911C9.53795 13.8389 9.57 13.7942 9.61111 13.7629C9.65222 13.7315 9.70055 13.7147 9.75 13.7147C9.8163 13.7147 9.87989 13.7448 9.92678 13.7984C9.97366 13.852 10 13.9246 10 14.0004ZM10.8115 11.7147H6.453L5.82125 8.28613H11.6685L10.8115 11.7147Z" fill="white"/>
</svg>
