<svg width="800" height="800" viewBox="0 0 800 800" fill="none" xmlns="http://www.w3.org/2000/svg">
<mask id="mask0_441_13" style="mask-type:luminance" maskUnits="userSpaceOnUse" x="66" y="33" width="668" height="668">
<path d="M400.002 700.267C584.439 700.267 733.323 551.378 733.323 366.934C733.323 182.489 584.439 33.6006 400.002 33.6006C215.564 33.6006 66.6804 182.489 66.6804 366.934C64.4583 551.378 215.564 700.267 400.002 700.267Z" fill="white"/>
</mask>
<g mask="url(#mask0_441_13)">
<path d="M235.563 215.823L-57.7598 600.267L20.0152 689.156L237.785 400.267L215.564 558.045L337.781 600.267L486.665 362.49C479.999 406.934 468.888 509.156 566.662 540.267C719.99 586.934 853.318 311.379 915.538 171.379L826.653 124.712C757.766 269.156 651.103 429.156 608.883 418.045C566.662 406.934 604.438 271.379 628.882 184.712V182.49L493.331 135.823L331.115 400.267L353.336 255.823L235.563 215.823Z" stroke="white" stroke-width="50" stroke-linecap="round" stroke-linejoin="round"/>
</g>
</svg>
