<svg width="24" height="24" viewBox="0 0 24 24" fill="none" xmlns="http://www.w3.org/2000/svg">
<path d="M9.77183 1.42065C10.1583 1.33777 10.6848 1.24898 10.948 1.22531C11.2113 1.19571 11.5865 1.17203 11.7882 1.17203C11.9898 1.16611 12.4435 1.18387 12.7963 1.21347C13.1492 1.24306 13.7149 1.32594 14.0565 1.39697C14.3982 1.468 14.9359 1.6219 15.2607 1.72845C15.5856 1.84092 16.1233 2.0777 16.4649 2.24936C16.8066 2.42102 17.3443 2.7525 17.6691 2.97744C17.994 3.20829 18.4701 3.59305 18.7333 3.83575C18.9965 4.07844 19.3606 4.4632 19.551 4.68813C19.7415 4.91307 20.0495 5.32151 20.2456 5.59972C20.436 5.87793 20.7272 6.34556 20.8897 6.6356C21.0521 6.92565 21.3041 7.44064 21.4441 7.77804C21.5842 8.10953 21.7858 8.6837 21.8922 9.0507C21.9986 9.41179 22.1219 10.0215 22.1667 10.3944C22.2171 10.7673 22.2731 11.3178 22.2899 11.6079C22.3123 11.8979 22.3011 12.5254 22.2675 12.9989C22.2227 13.6145 22.1555 14.0822 22.0154 14.6563C21.9146 15.0944 21.7074 15.7633 21.5618 16.1362C21.4217 16.5091 21.2089 16.9886 21.1025 17.2017C20.9905 17.4148 20.744 17.8232 20.5592 18.1132C20.3688 18.4092 19.9655 18.9242 19.6575 19.2616C19.3494 19.6049 18.9069 20.0489 18.6773 20.2501C18.4477 20.4514 18.0668 20.7474 17.8372 20.9131C17.6075 21.0788 17.1538 21.3571 16.829 21.5406C16.5041 21.7181 16.0001 21.9668 15.7088 22.0911C15.4176 22.2094 14.9247 22.387 14.6166 22.4817C14.3086 22.5765 13.8269 22.6889 13.5524 22.7363C13.278 22.7895 12.7459 22.8428 12.3763 22.8606C12.001 22.8843 11.3961 22.8665 11.004 22.831C10.6176 22.7955 10.0631 22.7067 9.77183 22.6416C9.48058 22.5824 8.93729 22.4166 8.56763 22.2864C8.19797 22.1503 7.62107 21.8898 7.27942 21.7063C6.93776 21.5228 6.38887 21.1736 6.04721 20.9309C5.71116 20.6882 5.16227 20.2087 4.82621 19.8654C4.49016 19.5221 4.05889 19.0426 3.87406 18.7999C3.68923 18.5572 3.38678 18.1192 3.20755 17.8232C3.02272 17.5272 2.75387 17.0241 2.60265 16.6985C2.45142 16.373 2.22178 15.7751 2.09296 15.3667C1.96414 14.9582 1.81292 14.3604 1.75131 14.0348C1.6897 13.6915 1.63369 13.0226 1.61128 12.4366C1.59448 11.7973 1.60568 11.1994 1.64489 10.8088C1.6841 10.4654 1.76251 9.94453 1.82972 9.65448C1.89133 9.36443 2.03135 8.85537 2.13777 8.5298C2.24419 8.20424 2.45142 7.68333 2.60265 7.37552C2.74827 7.06772 2.97231 6.62969 3.10673 6.39883C3.24115 6.16797 3.49879 5.77138 3.68923 5.51093C3.87406 5.25047 4.23251 4.81244 4.47896 4.54015C4.7254 4.26786 5.12866 3.86534 5.3751 3.64633C5.62154 3.42731 6.07522 3.07215 6.38327 2.85905C6.69132 2.64595 7.1842 2.34999 7.47545 2.20792C7.7667 2.05994 8.24838 1.85868 8.53962 1.75805C8.83087 1.6515 9.38536 1.50352 9.77183 1.42065Z" fill="#EFDAB3"/>
<path d="M0.205452 18.4447C0.272663 18.3974 0.451892 18.2849 0.608718 18.1961C0.765544 18.1073 0.927971 18.0363 0.961576 18.0304C1.00078 18.0304 1.05679 18.0955 1.0904 18.1784C1.1184 18.2612 1.14641 18.4862 1.14641 18.6815C1.14641 19.013 1.1352 19.0367 1.01759 19.0367C0.950374 19.0367 0.754342 18.9952 0.586314 18.9479C0.418287 18.9005 0.211053 18.8591 0.121438 18.8591C0.0150204 18.8591 -0.0185852 18.8354 0.00941944 18.7881C0.0318231 18.7466 0.0598277 18.6697 0.0654287 18.6223C0.0766305 18.575 0.138241 18.4921 0.205452 18.4447Z" fill="#EFDAB3"/>
<path d="M23.5165 18.7289C23.4997 18.6519 23.4717 18.5335 23.4549 18.4625C23.4381 18.3855 23.4437 18.3263 23.4717 18.3263C23.4997 18.3263 23.6341 18.4388 23.7741 18.569C23.9142 18.6993 24.015 18.8177 23.9982 18.8295C23.9814 18.8413 23.8301 18.865 23.6621 18.8828C23.4941 18.9005 23.3989 18.9005 23.4549 18.8887C23.5221 18.865 23.5389 18.8236 23.5165 18.7289Z" fill="#EFDAB3"/>
<path d="M0.586314 20.7533C0.61992 20.6882 0.793549 20.4632 0.98398 20.2501C1.17441 20.037 1.33684 19.8654 1.34804 19.8654C1.35924 19.8654 1.35924 19.9127 1.35364 19.9719C1.34244 20.0252 1.36484 20.1436 1.40965 20.2383C1.48246 20.3981 1.48246 20.3981 1.1352 20.5816C0.939173 20.6882 0.726337 20.7947 0.659126 20.8184C0.541507 20.8658 0.535906 20.8598 0.586314 20.7533Z" fill="#EFDAB3"/>
<path d="M22.71 20.3981C22.8052 20.2975 22.8108 20.2561 22.7604 20.1199L22.7044 19.9542L22.8444 20.1022C22.9228 20.185 22.9676 20.2797 22.9452 20.3093C22.9228 20.3448 22.934 20.3508 22.962 20.3271C22.9956 20.3034 23.0684 20.3567 23.1356 20.4455C23.2028 20.5343 23.2701 20.6645 23.2869 20.7414C23.3093 20.8125 23.3093 20.8658 23.2813 20.8539C23.2588 20.8421 23.0964 20.7651 22.5979 20.5165L22.71 20.3981Z" fill="#EFDAB3"/>
<path d="M9.37979 0.295945C9.73265 0.207154 10.2871 0.100606 10.612 0.0591702C10.9873 0.0118153 11.5978 -0.0118621 12.2923 0.00589596C13.2276 0.0236541 13.5021 0.0532509 14.2246 0.207154C14.6839 0.301864 15.3168 0.473526 15.6248 0.585993C15.9329 0.698461 16.3249 0.846445 16.493 0.917478C16.661 0.98851 17.0419 1.18385 17.3331 1.34959C17.6244 1.51533 18.0668 1.78762 18.3133 1.95337C18.5597 2.12503 19.0246 2.50387 19.3494 2.79983C19.6743 3.0958 20.0888 3.522 20.2792 3.74693C20.464 3.96595 20.7833 4.37438 20.9849 4.6526C21.1865 4.9308 21.4498 5.3274 21.573 5.5405C21.6962 5.7536 21.9651 6.2745 22.1667 6.69477C22.3683 7.11505 22.626 7.7425 22.7268 8.08582C22.8332 8.42915 22.9732 8.96189 23.0404 9.2697C23.1021 9.5775 23.1917 10.1517 23.2421 10.5424C23.2925 10.9508 23.3373 11.6848 23.3373 12.259C23.3373 12.8154 23.3093 13.5316 23.2701 13.8572C23.2365 14.1828 23.1525 14.6918 23.0965 14.9819C23.0348 15.2719 22.9396 15.6922 22.878 15.9112C22.8164 16.1362 22.7492 16.3137 22.7212 16.3137C22.6988 16.3137 22.6428 16.4025 22.5868 16.5032C22.5364 16.6097 22.4972 16.7814 22.4972 16.8761C22.5028 16.9708 22.4355 17.2016 22.3571 17.3792C22.2731 17.5568 22.2115 17.7107 22.2227 17.7107C22.2283 17.7166 22.3962 17.7758 22.5977 17.8468L22.598 17.8469C22.7996 17.9179 23.074 18.0363 23.2085 18.1073C23.4045 18.2139 23.4549 18.273 23.4661 18.4151C23.4717 18.5098 23.4941 18.6519 23.5165 18.7229C23.5389 18.8295 23.5277 18.8591 23.4493 18.865C23.3709 18.865 23.3709 18.8768 23.4661 18.9183C23.5669 18.9656 23.5669 18.9715 23.4381 18.9715C23.3597 18.9775 23.0292 19.0485 22.6932 19.1373C22.3627 19.232 22.0883 19.3149 22.0883 19.3326C22.0883 19.3504 22.2227 19.4747 22.3851 19.6108C22.5476 19.747 22.7604 19.9482 22.85 20.0548C23.0124 20.2442 23.0124 20.2442 22.7044 19.9541L22.7604 20.114C22.8108 20.256 22.8052 20.2975 22.71 20.3981C22.6484 20.4632 22.6148 20.5342 22.6372 20.552C22.6652 20.5698 22.6372 20.5698 22.5812 20.552C22.5252 20.5283 22.5028 20.4869 22.5252 20.4455C22.555 20.3942 22.542 20.3803 22.486 20.404C22.4411 20.4277 22.1723 20.3803 21.8979 20.3034C21.6234 20.2264 21.2762 20.1672 21.1249 20.1672C20.9793 20.1613 20.8673 20.1436 20.8785 20.114C20.8841 20.0903 21.0185 19.8062 21.1753 19.4806C21.3322 19.155 21.6738 18.421 21.9259 17.8528C22.1835 17.2845 22.4748 16.5505 22.5812 16.2249C22.6876 15.8994 22.8332 15.3134 22.906 14.9227C22.9788 14.532 23.0684 13.9223 23.0965 13.5612C23.1301 13.2002 23.1581 12.6556 23.1581 12.3478C23.1581 12.04 23.1301 11.4658 23.0965 11.0751C23.0628 10.6844 22.9788 10.0451 22.906 9.65446C22.8332 9.26378 22.654 8.58305 22.514 8.14502C22.3683 7.70699 22.0995 7.0381 21.9147 6.66518C21.7298 6.29226 21.4218 5.72992 21.2313 5.42211C21.0409 5.11431 20.7385 4.67627 20.5592 4.44542C20.3744 4.21456 20.0496 3.83572 19.8311 3.59895C19.6127 3.35625 19.243 3.00109 19.0134 2.79983C18.7837 2.59858 18.3637 2.28485 18.0892 2.09543C17.8148 1.90601 17.2827 1.59229 16.913 1.39695C16.5434 1.20161 15.9329 0.941155 15.552 0.80501C15.1767 0.674784 14.5214 0.497203 14.0958 0.414332C13.5749 0.313703 13.0428 0.254509 12.4323 0.230832C11.9058 0.213074 11.2617 0.224912 10.864 0.266348C10.4944 0.307783 9.88948 0.408413 9.51982 0.491284C9.15016 0.574155 8.53405 0.757655 8.14759 0.905639C7.76113 1.05362 7.13382 1.34367 6.74736 1.55085C6.3609 1.76395 5.81761 2.10727 5.54316 2.31445C5.26872 2.52754 4.84865 2.87679 4.61901 3.0958C4.38937 3.3089 3.9637 3.75877 3.67805 4.08434C3.39241 4.41582 3.02275 4.88345 2.86032 5.12614C2.69229 5.36884 2.41785 5.81279 2.24982 6.10284C2.08739 6.39289 1.83535 6.91379 1.69533 7.25711C1.5497 7.60044 1.34247 8.18645 1.23045 8.55937C1.12403 8.93229 0.978408 9.53015 0.916798 9.89123C0.832784 10.3529 0.787977 10.8857 0.771174 11.7262C0.74877 12.4721 0.765573 13.141 0.810381 13.5316C0.843986 13.875 0.922399 14.4077 0.984009 14.7155C1.04562 15.0233 1.15764 15.4909 1.23605 15.7514C1.32006 16.0119 1.5105 16.5446 1.66172 16.9353C1.81855 17.3259 1.96417 17.6752 1.98657 17.7048C2.01458 17.7344 2.07619 17.8942 2.1266 18.0599C2.17701 18.2198 2.40664 18.7407 2.63628 19.2142C2.86592 19.6878 3.04515 20.0785 3.03955 20.0844C3.02835 20.0903 2.83231 20.1258 2.60268 20.1613C2.37304 20.1909 2.00338 20.2738 1.79054 20.3389C1.57771 20.4099 1.41528 20.4395 1.43768 20.4159C1.46009 20.3922 1.44889 20.3034 1.40408 20.2205C1.36487 20.1376 1.34247 20.0193 1.35927 19.9541C1.37607 19.8654 1.30886 19.9068 1.10723 20.1021L1.09921 20.11C0.866287 20.339 0.862737 20.3425 1.03442 20.1376C1.14084 20.0133 1.37607 19.7825 1.87456 19.3326L1.46569 19.2083C1.24725 19.1432 1.03442 19.0781 1.00641 19.0662C0.978408 19.0544 0.995211 19.0426 1.04562 19.0426C1.12963 19.0366 1.14644 18.9774 1.14644 18.6637C1.14644 18.4625 1.11283 18.2316 1.06802 18.1487C0.995211 18.0008 0.995211 18.0008 1.38167 17.8646C1.58891 17.7936 1.76254 17.7048 1.76254 17.6752C1.76254 17.6456 1.69533 17.4739 1.61131 17.3023C1.5329 17.1365 1.35367 16.6452 1.21925 16.2249C1.08483 15.8047 0.911197 15.1772 0.832784 14.8339C0.754371 14.4906 0.659156 13.946 0.614348 13.6204C0.569541 13.2949 0.530334 12.5905 0.530334 12.0518C0.530334 11.5013 0.56394 10.8265 0.608747 10.5128C0.653555 10.205 0.765573 9.63078 0.855188 9.2401C0.950404 8.84942 1.09043 8.31668 1.17444 8.05623C1.25845 7.79578 1.46009 7.29263 1.61691 6.93155C1.77934 6.57047 2.05379 6.03773 2.22181 5.74768C2.39544 5.45763 2.70909 4.97224 2.92193 4.68219C3.13476 4.39214 3.59964 3.84164 3.9525 3.4628C4.30536 3.08396 4.83184 2.58674 5.12309 2.35588C5.41434 2.13095 5.92962 1.77579 6.27128 1.56861C6.61294 1.36143 7.08902 1.1069 7.33546 0.994429C7.5819 0.881962 7.99636 0.716219 8.25961 0.62151C8.52285 0.5268 9.02693 0.378816 9.37979 0.295945Z" fill="#EFDAB3"/>
<path d="M3.48762 19.966C3.30839 19.7174 3.16277 19.4984 3.16837 19.4806C3.16837 19.4628 3.24678 19.5457 3.3476 19.67C3.44281 19.7943 3.64445 20.037 3.80127 20.2146C3.9581 20.3863 4.38937 20.7888 4.75903 21.1025C5.12869 21.4162 5.62157 21.7951 5.85121 21.949C6.08085 22.1029 6.58493 22.387 6.9714 22.5764C7.35786 22.7718 7.93475 23.0204 8.25961 23.1388C8.58446 23.2512 9.13895 23.4111 9.49181 23.4939C9.84467 23.5768 10.3992 23.6774 10.724 23.7189C11.0937 23.7603 11.6874 23.7781 12.3203 23.7544C12.9756 23.7307 13.5413 23.6774 13.9445 23.5946C14.2862 23.5294 14.8239 23.3815 15.1487 23.269C15.4736 23.1565 15.9105 22.9967 16.1289 22.9138C16.3473 22.831 16.7618 22.6297 17.0531 22.4758C17.3443 22.3219 17.798 22.0437 18.0612 21.8661C18.3245 21.6885 18.7389 21.3925 18.9854 21.209C19.2318 21.0196 19.4447 20.8894 19.4615 20.9072C19.4783 20.9249 19.3662 21.0611 19.2094 21.209C19.0582 21.3511 18.6549 21.6648 18.3133 21.9075C17.9716 22.1443 17.4395 22.4758 17.1203 22.6415C16.8066 22.8073 16.3529 23.0263 16.1177 23.1269C15.8769 23.2276 15.3784 23.3992 15.0087 23.5058C14.6391 23.6123 14.0454 23.7485 13.6925 23.8077C13.2276 23.8787 12.7179 23.9083 11.8722 23.9083C11.0321 23.9083 10.5336 23.8846 10.1359 23.8136C9.82787 23.7603 9.28458 23.636 8.93172 23.5472C8.57886 23.4525 7.94596 23.2335 7.53149 23.0559C7.11702 22.8783 6.51212 22.5764 6.18727 22.3811C5.86241 22.1798 5.44794 21.9016 5.26311 21.7596C5.07828 21.6175 4.73663 21.3274 4.50699 21.1143C4.27735 20.9012 4.02531 20.6645 3.9525 20.5816C3.87969 20.4928 3.66685 20.2205 3.48762 19.966Z" fill="#EFDAB3"/>
<path d="M0.513507 12.3181C0.502305 12.4838 0.496704 12.3595 0.496704 12.0517C0.496704 11.7439 0.502305 11.6078 0.513507 11.7558C0.524709 11.9037 0.524709 12.1524 0.513507 12.3181Z" fill="#EFDAB3"/>
<path d="M23.1412 12.7917C23.1356 13.0225 23.1244 12.8213 23.1244 12.3477C23.1244 11.8742 23.1356 11.6907 23.1412 11.9333C23.1524 12.176 23.1524 12.5608 23.1412 12.7917Z" fill="#EFDAB3"/>
<path d="M22.6035 16.4913C22.6428 16.4084 22.6988 16.3137 22.7268 16.2782C22.7604 16.2367 22.7884 16.213 22.7884 16.219C22.794 16.2308 22.7436 16.3906 22.6764 16.586C22.6091 16.7754 22.5475 16.9115 22.5307 16.876C22.5139 16.8405 22.4859 16.7339 22.4635 16.6392C22.4374 16.5209 22.443 16.4913 22.4803 16.5504C22.5195 16.6215 22.5419 16.6156 22.6035 16.4913Z" fill="#EFDAB3"/>
<path d="M19.0134 19.9837C18.9966 19.9837 19.1758 19.7824 19.4054 19.5397C19.6351 19.297 19.8367 19.0958 19.8479 19.0958C19.8647 19.0958 19.6911 19.297 19.4614 19.5397C19.2318 19.7824 19.0302 19.9837 19.0134 19.9837Z" fill="#EFDAB3"/>
<path d="M3.4764 19.9659C3.44839 19.9955 3.44279 19.9837 3.46519 19.9363C3.4876 19.9008 3.5156 19.8653 3.5324 19.8653C3.54921 19.8653 3.73964 20.0725 4.36694 20.7828L3.94687 20.3507C3.71723 20.1139 3.5044 19.9422 3.4764 19.9659Z" fill="#EFDAB3"/>
<path d="M12.2923 23.9909C12.1522 24.0027 11.9002 24.0027 11.7322 23.9909C11.5641 23.9791 11.6762 23.9731 11.9842 23.9731C12.2923 23.9731 12.4323 23.9791 12.2923 23.9909Z" fill="#8D7D5E"/>
<path d="M14.8183 17.7642L14.9303 17.5747C14.9919 17.4682 15.0535 17.3794 15.0647 17.3794C15.0759 17.3794 15.0871 17.4149 15.0815 17.4563C15.0815 17.4919 15.0815 17.5688 15.0871 17.6162C15.0871 17.6635 15.1039 17.6872 15.1207 17.6635C15.1375 17.6339 15.2159 17.6576 15.2999 17.705C15.3896 17.7523 15.468 17.7642 15.4848 17.7405C15.5016 17.7109 15.5968 17.6694 15.692 17.6517C15.7928 17.6339 15.8768 17.628 15.8768 17.6458C15.8768 17.6635 15.7984 17.7168 15.7088 17.7642C15.6192 17.8115 15.4848 17.8529 15.412 17.8529C15.3448 17.8529 15.1823 17.8352 14.8183 17.7642Z" fill="#515647"/>
<path d="M15.2775 16.0829C15.3167 16 15.4567 15.8757 15.5967 15.7987C15.7312 15.7218 15.8656 15.6626 15.8936 15.6626C15.9216 15.6626 15.9496 15.7455 15.9664 15.8402C15.9832 15.9763 16.0392 16.0414 16.196 16.1184C16.3081 16.1776 16.4313 16.2782 16.4705 16.3433C16.5153 16.4084 16.5545 16.5327 16.5601 16.6275C16.5713 16.7458 16.5993 16.7814 16.6609 16.7577C16.7281 16.7281 16.7337 16.734 16.6721 16.7991C16.6329 16.8406 16.6049 16.8997 16.6049 16.9353C16.6049 16.9708 16.6329 16.953 16.6609 16.9057C16.7113 16.8287 16.7225 16.8287 16.7673 16.9057C16.7953 16.953 16.8009 17.03 16.7841 17.0773C16.7617 17.1247 16.5937 17.2549 16.4089 17.3674C16.224 17.4798 16.0392 17.5746 16.0056 17.5805C15.9664 17.5864 15.9328 17.5982 15.9328 17.616C15.9328 17.6337 15.8376 17.6515 15.72 17.6574C15.6079 17.6693 15.5015 17.6989 15.4847 17.7344C15.4679 17.764 15.3951 17.7581 15.3055 17.7048C15.2159 17.6574 15.1375 17.6337 15.1207 17.6574C15.1039 17.687 15.0871 17.6633 15.0871 17.616C15.0815 17.5686 15.0815 17.4858 15.0871 17.4384C15.0927 17.3851 15.0535 17.4088 14.9862 17.4976C14.8798 17.6337 14.8686 17.6337 14.8686 17.5272C14.8686 17.4621 14.9078 17.249 14.9526 17.0536C14.9974 16.8583 15.0366 16.6156 15.0366 16.5209C15.0423 16.367 15.0535 16.3611 15.0927 16.4617C15.1263 16.5505 15.1431 16.5091 15.1487 16.2841C15.1543 16.1184 15.1711 16.0414 15.1879 16.1065C15.2103 16.219 15.2159 16.2131 15.2775 16.0829Z" fill="#4B4E40"/>
<path d="M5.9632 11.4895C5.83438 11.3533 5.82318 11.2941 5.82318 10.8147C5.82318 10.4181 5.83998 10.2997 5.89599 10.3293C5.9352 10.347 5.952 10.3707 5.9352 10.3766C5.9184 10.3885 5.99121 10.5305 6.08642 10.7022C6.18724 10.8679 6.37207 11.0988 6.49529 11.2053C6.61851 11.3178 6.67452 11.3948 6.62411 11.377C6.5569 11.3533 6.5233 11.3711 6.5233 11.4303C6.5233 11.4835 6.43928 11.5427 6.31606 11.5783C6.12563 11.6315 6.08642 11.6197 5.9632 11.4895Z" fill="#555A4A"/>
<path d="M10.4047 18.9597C10.3655 18.936 10.3095 18.8709 10.2815 18.8117C10.2367 18.7229 10.2591 18.717 10.4944 18.7525C10.6344 18.7762 11.1161 18.8117 11.5641 18.8354C12.113 18.865 12.5387 18.8532 12.8803 18.7999C13.3284 18.7348 13.39 18.7407 13.4404 18.8236C13.474 18.8709 13.5357 18.9183 13.5805 18.9183C13.6253 18.9242 13.5637 18.9775 13.4404 19.0426C13.2668 19.1373 13.2332 19.1787 13.3004 19.2142C13.362 19.2497 13.2892 19.2912 13.0484 19.3681C12.8635 19.4214 12.6003 19.4747 12.4603 19.4865C12.3203 19.4984 12.197 19.522 12.1858 19.5398C12.1746 19.5576 12.0626 19.5694 11.945 19.5694C11.8274 19.5694 11.7322 19.5516 11.7322 19.522C11.7322 19.4984 11.6649 19.4865 11.5921 19.4924C11.5137 19.5043 11.4521 19.4806 11.4521 19.451C11.4521 19.4214 11.4129 19.4037 11.3681 19.4214C11.3233 19.4392 11.2841 19.4214 11.2841 19.3918C11.2841 19.3622 11.2449 19.3445 11.2001 19.3622C11.1553 19.38 11.0768 19.3504 11.032 19.303C10.9872 19.2557 10.9368 19.232 10.92 19.2557C10.9032 19.2853 10.892 19.2675 10.892 19.2261C10.892 19.1906 10.8696 19.1669 10.836 19.1846C10.8024 19.2024 10.78 19.1846 10.78 19.155C10.78 19.1254 10.7576 19.1077 10.724 19.1254C10.6904 19.1432 10.6568 19.1077 10.64 19.0485C10.6232 18.9952 10.5896 18.9656 10.5672 18.9893C10.5448 19.013 10.4887 18.9834 10.4439 18.9301C10.3991 18.8709 10.3823 18.865 10.4159 18.9123C10.4551 18.9775 10.4551 18.9893 10.4047 18.9597Z" fill="#555A4A"/>
<path d="M11.2729 20.4987C11.2673 20.3863 11.2841 20.2797 11.3121 20.262C11.3401 20.2383 11.3681 20.2205 11.3793 20.2205C11.3905 20.2205 11.3961 20.3389 11.3961 20.4869C11.3961 20.6467 11.3737 20.7414 11.3401 20.7237C11.3065 20.7059 11.2785 20.6053 11.2729 20.4987Z" fill="#555A4A"/>
<path d="M14.9807 16.9054C14.9471 17.0001 14.9359 16.8462 14.9359 16.4496L14.9359 16.4457C14.9415 15.8753 14.9417 15.8519 15.0423 15.9168C15.1263 15.9701 15.1487 16.053 15.1431 16.2838C15.1431 16.5028 15.1263 16.5502 15.0927 16.4614C15.0535 16.3608 15.0423 16.3785 15.0367 16.5502C15.0311 16.6627 15.0031 16.8225 14.9807 16.9054Z" fill="#454739"/>
<path d="M17.5067 19.9834C17.4731 19.9834 17.4451 19.9538 17.4451 19.9242C17.4451 19.8946 17.4731 19.865 17.5011 19.865C17.5347 19.865 17.5683 19.9006 17.5795 19.9361C17.5907 19.9775 17.5739 20.0604 17.5515 20.1136C17.5235 20.1728 17.4451 20.2202 17.3779 20.2143C17.292 20.2103 17.277 20.1985 17.333 20.1788C17.3779 20.1551 17.4507 20.1077 17.4899 20.0604C17.5347 20.013 17.5403 19.9834 17.5067 19.9834Z" fill="#454739"/>
<path d="M14.695 18.2848C14.6894 18.2552 14.6894 18.2197 14.695 18.196C14.695 18.1664 14.7118 18.1487 14.7286 18.1487C14.7454 18.1487 14.8182 18.1842 14.8966 18.2256C14.9751 18.2611 15.0367 18.3263 15.0367 18.3559C15.0367 18.3855 14.9527 18.5098 14.8518 18.6222C14.7566 18.7347 14.6334 18.9064 14.5886 19.0011C14.5438 19.0958 14.3534 19.297 14.1685 19.4509C13.8773 19.6936 13.7821 19.741 13.4684 19.7824C13.166 19.8239 13.0987 19.8594 13.0875 19.9541C13.0763 20.0192 13.1043 20.1198 13.1548 20.179C13.2388 20.2678 13.2388 20.2856 13.1492 20.3566C13.0987 20.3921 12.9699 20.4276 12.8579 20.4336C12.7291 20.4336 12.5779 20.3862 12.2194 20.1317L12.4826 20.1198C12.7291 20.1021 12.7403 20.0962 12.7123 19.9422C12.6843 19.7943 12.6899 19.7883 12.7515 19.8771C12.7907 19.9363 12.8411 19.9778 12.8691 19.9837C12.8915 19.9837 12.8971 19.9422 12.8803 19.8949C12.8635 19.8416 12.8971 19.7943 12.9643 19.7765C13.0259 19.7587 13.0763 19.7114 13.0763 19.6759C13.0763 19.6344 13.1324 19.5634 13.1996 19.522C13.3172 19.4569 13.3004 19.4569 12.8243 19.5101L13.1324 19.4036C13.3004 19.3444 13.6196 19.1964 13.8325 19.078C14.0509 18.9596 14.3029 18.7821 14.3926 18.6814C14.4878 18.5808 14.5606 18.4506 14.5606 18.3973C14.5606 18.344 14.5942 18.3026 14.6334 18.3144C14.667 18.3203 14.695 18.3085 14.695 18.2848Z" fill="#EFDAB3"/>
<path d="M9.63177 18.563C9.58697 18.563 9.54776 18.5334 9.54776 18.5038C9.54776 18.4742 9.59257 18.4446 9.64858 18.4446C9.69898 18.4446 9.83341 18.5038 9.93982 18.5749C10.0462 18.64 10.1807 18.7643 10.2367 18.8412C10.2871 18.9123 10.5671 19.1017 10.8528 19.2497C11.1328 19.3977 11.4913 19.5397 11.6425 19.5575C11.7881 19.5812 11.9226 19.6167 11.9338 19.6463C11.945 19.67 11.9001 19.6936 11.8329 19.6936C11.7433 19.6996 11.7321 19.7055 11.8049 19.7232C11.8553 19.7351 11.9001 19.7647 11.9001 19.7943C11.9001 19.8179 11.8777 19.9245 11.8441 20.031C11.7993 20.1731 11.8105 20.2678 11.8721 20.4158C11.9226 20.5164 11.9562 20.6111 11.9562 20.623C11.9562 20.6289 11.9113 20.6467 11.8609 20.6585C11.7937 20.6703 11.7265 20.6171 11.6649 20.5105C11.6089 20.4158 11.5641 20.2974 11.5641 20.2501C11.5641 20.2027 11.5417 20.1494 11.5081 20.1317C11.4801 20.1139 11.4017 20.1139 11.3401 20.1317C11.256 20.1553 11.228 20.2086 11.228 20.3684C11.228 20.5401 11.2112 20.5756 11.116 20.5638C11.0488 20.5519 10.9816 20.4809 10.948 20.3684C10.92 20.2737 10.836 20.1139 10.7688 20.0133C10.6959 19.9186 10.6343 19.7824 10.6231 19.7173C10.6175 19.6522 10.5839 19.5693 10.5503 19.5397C10.5223 19.5101 10.4999 19.4332 10.4999 19.3799C10.4999 19.3207 10.4607 19.2615 10.4159 19.2438C10.3711 19.226 10.3319 19.1846 10.3319 19.155C10.3319 19.1254 10.2647 19.0247 10.1807 18.93C10.091 18.8412 9.95663 18.7229 9.87261 18.6637C9.783 18.6104 9.67658 18.563 9.63177 18.563Z" fill="#EFDAB3"/>
<path d="M12.6563 4.35667C12.6731 4.37443 12.7795 4.35667 12.8916 4.31523C13.0092 4.2738 13.2668 4.2442 13.4684 4.23828C13.7709 4.23828 13.8941 4.26788 14.1966 4.4277C14.4262 4.55201 14.5942 4.68815 14.7511 4.9782L14.5438 4.98412C14.4318 4.99004 14.3926 4.9782 14.4654 4.97228C14.5326 4.96044 14.5886 4.90717 14.5886 4.85981C14.5886 4.80062 14.5569 4.78286 14.4934 4.80654C14.4094 4.83614 14.4094 4.83022 14.4766 4.78286C14.5438 4.73551 14.527 4.69999 14.3646 4.59936C14.2582 4.52833 14.135 4.48689 14.1013 4.50465C14.0621 4.52241 14.0397 4.50465 14.0565 4.47506C14.0733 4.43954 14.0453 4.40402 14.0005 4.38627C13.9557 4.36851 13.9165 4.38035 13.9165 4.41586C13.9165 4.44546 13.8773 4.46322 13.8325 4.44546C13.7877 4.4277 13.7317 4.45138 13.7093 4.48689C13.6757 4.54609 13.6869 4.54609 13.7485 4.50465C13.8101 4.46322 13.8213 4.46322 13.7877 4.51649C13.7541 4.57568 13.7317 4.57568 13.6533 4.51649C13.5805 4.4573 13.5693 4.4573 13.5973 4.51649C13.6197 4.55793 13.6029 4.61712 13.5693 4.65264C13.5207 4.6921 13.4311 4.69013 13.3004 4.64672C13.194 4.60528 12.8972 4.58752 12.6451 4.59936C12.3875 4.6112 12.1802 4.60528 12.1802 4.57568C12.1802 4.55201 12.2082 4.53425 12.2362 4.53425C12.2698 4.53425 12.3147 4.52833 12.3427 4.51649C12.3707 4.51057 12.4155 4.48689 12.4435 4.46322C12.4659 4.43954 12.5219 4.43362 12.5611 4.45138C12.5947 4.46322 12.6283 4.43954 12.6283 4.3981C12.6283 4.36259 12.6395 4.33891 12.6563 4.35667Z" fill="#F2CC94"/>
<path d="M14.7567 5.41623C14.6278 5.41032 14.6278 5.4044 14.7847 5.36888C14.8743 5.3452 15.0927 5.3452 15.2607 5.36888C15.4288 5.39256 15.664 5.45175 15.7816 5.50502C15.8936 5.5583 16.0001 5.62341 16.0169 5.65893C16.0337 5.68853 15.9609 5.67077 15.8656 5.61749C15.7648 5.56422 15.5072 5.49911 15.2887 5.47543C15.0703 5.44583 14.8351 5.42215 14.7567 5.41623Z" fill="#F2CC94"/>
<path d="M7.83952 5.61157C7.57067 5.64117 7.56507 5.64117 7.7275 5.56422C7.82272 5.52278 7.96834 5.48727 8.06355 5.48135C8.15877 5.48135 8.20358 5.50502 8.17557 5.53462C8.14197 5.56422 7.99634 5.59973 7.83952 5.61157Z" fill="#F2CC94"/>
<path d="M14.2526 18.7348C14.3926 18.5927 14.5046 18.4507 14.499 18.427C14.499 18.3974 14.5158 18.3915 14.5438 18.4092C14.5662 18.427 14.5326 18.5158 14.4654 18.5987C14.3926 18.6815 14.2582 18.8058 14.1686 18.8709C14.0509 18.9538 14.0733 18.9124 14.2526 18.7348Z" fill="#F2CC94"/>
<path d="M12.9252 19.4866C13.0708 19.5162 13.0876 19.5043 13.0204 19.451C12.9476 19.3918 12.9476 19.3859 13.0372 19.4155C13.0876 19.4333 13.1772 19.451 13.2332 19.457C13.306 19.457 13.3004 19.4747 13.1996 19.528C13.1324 19.5694 13.0764 19.6345 13.0764 19.6701C13.0764 19.7115 13.026 19.7589 12.9644 19.7766C12.8972 19.7944 12.8635 19.8417 12.8803 19.895C12.8972 19.9424 12.8859 19.9838 12.8523 19.9838C12.8187 19.9838 12.7851 19.9424 12.7683 19.895C12.7515 19.8476 12.7179 19.818 12.6843 19.8358C12.6507 19.8536 12.6283 19.8358 12.6283 19.8062C12.6283 19.7707 12.4883 19.7529 12.2923 19.7589C12.1074 19.7707 11.9562 19.8062 11.9562 19.8358C11.9562 19.8713 11.9394 19.8654 11.9114 19.8299C11.889 19.7944 11.833 19.747 11.7882 19.7293C11.7322 19.7095 11.7471 19.6977 11.833 19.6937C11.9151 19.6898 11.9431 19.6641 11.917 19.6168C11.8834 19.5635 11.9338 19.5576 12.113 19.5872C12.253 19.6109 12.3595 19.6049 12.3763 19.5694C12.3931 19.5398 12.4659 19.5102 12.5443 19.5102C12.6227 19.5102 12.6843 19.5398 12.6843 19.5694C12.6843 19.599 12.7067 19.6168 12.7403 19.599C12.7739 19.5813 12.7851 19.5398 12.7683 19.5102C12.7515 19.4747 12.8075 19.4629 12.9252 19.4866Z" fill="#F2CC94"/>
<path d="M14.7678 5.29183C14.5158 5.30367 14.471 5.28591 14.4542 5.18528C14.4374 5.09057 14.4654 5.06689 14.5942 5.06689C14.7118 5.06689 14.751 5.09057 14.7286 5.15568C14.7062 5.2208 14.751 5.25039 14.8798 5.26223C14.9919 5.27407 14.9526 5.28591 14.7678 5.29183Z" fill="#5E5F3E"/>
<path d="M16.7673 7.28666L16.7785 7.02028L16.7898 6.75391L16.8122 7.00253C16.8234 7.18603 16.7897 7.33993 16.6889 7.55303C16.5657 7.81348 16.5153 7.86083 16.2409 7.96738C16.0448 8.04433 15.664 8.10945 15.1879 8.14496C14.7846 8.18048 14.1181 8.24559 13.7204 8.29887C13.3228 8.34622 12.7291 8.44093 12.4042 8.50604C12.0794 8.57116 11.5865 8.69546 11.312 8.77833C11.032 8.86121 10.5951 9.01511 10.3319 9.12166C10.0686 9.22821 9.71578 9.38803 9.54776 9.47682C9.37973 9.56561 9.02687 9.78463 8.76363 9.96221C8.50038 10.1398 8.23154 10.347 8.15873 10.418C8.06351 10.5127 8.03551 10.5186 8.03551 10.4535C8.03551 10.4062 8.06351 10.1635 8.09151 9.92077C8.11952 9.67808 8.16433 9.39395 8.18673 9.29924C8.21474 9.16901 8.20353 9.1335 8.15873 9.16309C8.11952 9.19269 8.04111 9.4709 7.9795 9.78463C7.91229 10.1043 7.84507 10.4594 7.82267 10.5719C7.78907 10.7554 7.75546 10.785 7.4194 10.9093C7.21777 10.9803 6.98813 11.0455 6.89852 11.0455C6.7977 11.0455 6.66888 10.9685 6.51766 10.8205C6.39443 10.7021 6.26001 10.4949 6.22081 10.3647C6.176 10.2345 6.10319 9.95037 6.05278 9.72543C6.00237 9.50642 5.96316 9.22821 5.96876 9.1039C5.96876 8.98551 5.99677 8.83161 6.02477 8.7665C6.06398 8.67179 6.06958 8.68362 6.05278 8.83753C6.04158 8.95592 6.05838 9.03287 6.09759 9.03287C6.13119 9.03287 6.1984 9.00327 6.24881 8.96184C6.29922 8.9204 6.38883 8.76058 6.44484 8.60667C6.50645 8.44685 6.55686 8.32846 6.55686 8.3403C6.56246 8.34622 6.54566 8.48237 6.52326 8.64811C6.50085 8.80793 6.50085 9.03879 6.52886 9.15125C6.55126 9.26372 6.62967 9.40579 6.70249 9.46498C6.7753 9.52417 6.87051 9.57153 6.91532 9.56561C6.96013 9.56561 7.12256 9.53009 7.27938 9.48866C7.43061 9.4413 7.69945 9.33475 7.86748 9.24596C8.08591 9.12758 8.24834 8.97959 8.42757 8.72506C8.56759 8.53564 8.79163 8.26335 9.17249 7.87859L8.99886 8.14496C8.90365 8.29295 8.77483 8.47645 8.71322 8.55932C8.6068 8.7073 8.6068 8.7073 8.73002 8.93816C8.79163 9.06838 8.87004 9.18085 8.90365 9.19269C8.93165 9.21045 9.12208 9.17493 9.32372 9.12166C9.52535 9.06838 9.88941 8.92632 10.1359 8.80201C10.3823 8.67771 10.948 8.44685 11.3961 8.29295C11.8441 8.13904 12.3314 7.99106 12.4882 7.96146C12.6395 7.92595 13.0427 7.87859 13.3844 7.84899C13.7204 7.8194 14.3141 7.76612 14.7006 7.72469C15.3895 7.65366 15.4063 7.64774 15.7648 7.38728C15.9664 7.24522 16.1624 7.07356 16.1961 7.01436C16.2353 6.95517 16.2913 6.91374 16.3249 6.93149C16.3529 6.94925 16.3865 6.93741 16.3977 6.9019C16.4089 6.8723 16.4649 6.86638 16.5209 6.89006C16.5769 6.91374 16.6553 7.01436 16.7673 7.28666Z" fill="#5E5F3E"/>
<path d="M14.6278 15.4435C14.6222 15.408 14.667 15.3607 14.7286 15.3488C14.7902 15.3311 14.8518 15.3192 14.8686 15.3133C14.8854 15.3074 15.0031 15.408 15.1375 15.5442C15.2663 15.6744 15.3839 15.7809 15.4007 15.7809C15.4175 15.7809 15.4175 15.7573 15.4007 15.7217C15.3839 15.6862 15.4007 15.6507 15.4287 15.633C15.4623 15.6152 15.4847 15.6389 15.4847 15.6803C15.4847 15.7158 15.5015 15.7277 15.5239 15.704C15.5519 15.6744 15.5687 15.6211 15.5687 15.5915C15.5687 15.556 15.608 15.5146 15.6528 15.5027C15.7256 15.4791 15.7256 15.485 15.6528 15.5442C15.58 15.6034 15.5856 15.6093 15.6696 15.5797C15.72 15.5619 15.7928 15.5442 15.8208 15.5442C15.8544 15.5442 15.8768 15.485 15.8768 15.4139C15.8805 15.3232 15.8955 15.3034 15.9216 15.3547C15.944 15.4021 16.1568 15.4554 16.4369 15.485C16.801 15.5323 17.0026 15.5915 17.277 15.7454C17.6187 15.9289 17.6411 15.9526 17.6299 16.1302C17.6131 16.29 17.6355 16.3196 17.7699 16.3492C17.9099 16.3847 17.8987 16.3966 17.6131 16.4913C17.4283 16.5505 17.2154 16.6807 17.081 16.8109C16.8738 17.0122 16.8514 17.024 16.7841 16.9234C16.7225 16.8287 16.7057 16.8287 16.6609 16.9056C16.6329 16.953 16.6049 16.9707 16.6049 16.9352C16.6049 16.8997 16.6385 16.8405 16.6721 16.7991C16.7337 16.734 16.7281 16.728 16.6609 16.7576C16.5993 16.7813 16.5769 16.7399 16.5657 16.5978C16.5545 16.4439 16.4817 16.3374 16.2409 16.1065C16.0728 15.9467 15.9328 15.775 15.9328 15.7395C15.9328 15.6862 15.888 15.6744 15.8096 15.6981C15.7368 15.7217 15.6136 15.775 15.5295 15.8165C15.4455 15.8638 15.3615 15.923 15.3447 15.9585C15.3279 15.994 15.2719 15.994 15.1935 15.9467C15.1207 15.9112 14.9694 15.7987 14.8518 15.6981C14.7398 15.5974 14.639 15.485 14.6278 15.4435Z" fill="#5E5F3E"/>
<path d="M9.79982 4.53407L9.79982 4.53407C10.1919 4.392 10.3767 4.35649 10.64 4.36833C10.8864 4.38608 11.0712 4.43936 11.3289 4.58142C11.5193 4.68205 11.7209 4.77084 11.7769 4.77084C11.8274 4.77084 12.085 4.72941 12.3482 4.67021C12.7459 4.58734 12.8747 4.58734 13.1324 4.64062C13.3004 4.68205 13.5972 4.79452 13.7933 4.88923C14.0733 5.0313 14.1965 5.06089 14.4318 5.04313C14.5942 5.0313 14.6614 5.0313 14.5774 5.04905C14.4542 5.06681 14.4262 5.09641 14.4486 5.19112C14.4654 5.25031 14.499 5.30359 14.5326 5.30359C14.5662 5.30359 14.5774 5.32726 14.5606 5.36278C14.5438 5.3983 14.5886 5.43381 14.6558 5.45157C14.7286 5.46933 14.9079 5.48117 15.0647 5.48117C15.2159 5.48117 15.468 5.51668 15.6248 5.56404C15.776 5.61139 15.9888 5.71202 16.0953 5.78897C16.2073 5.86593 16.3473 6.05534 16.4257 6.22109C16.5041 6.38091 16.6105 6.55849 16.6666 6.60585C16.7394 6.67096 16.7674 6.77751 16.7674 6.9906C16.7674 7.28657 16.7674 7.28657 16.6946 7.10899C16.6554 7.01428 16.5825 6.91365 16.5321 6.88406C16.4817 6.86038 16.4257 6.8663 16.4089 6.90181C16.3921 6.93733 16.3585 6.94917 16.3249 6.93141C16.2913 6.91365 16.2353 6.95509 16.1961 7.01428C16.1625 7.07348 15.9664 7.24514 15.7648 7.3872C15.4063 7.64765 15.3895 7.65357 14.7006 7.7246C14.3142 7.76604 13.7261 7.81931 13.3844 7.84891C13.0428 7.87851 12.6395 7.92586 12.4883 7.96138C12.337 7.99098 11.8442 8.13896 11.3961 8.29286C10.948 8.44677 10.3823 8.67762 10.1359 8.80193C9.88944 8.92624 9.51978 9.07422 9.31254 9.13341C8.98209 9.22812 8.93168 9.22812 8.84766 9.15117C8.79726 9.10382 8.75805 9.02686 8.76365 8.99135C8.76365 8.94991 8.73005 8.93215 8.69084 8.95583C8.65723 8.97359 8.64043 8.96767 8.66283 8.93807C8.68524 8.90848 8.67964 8.84336 8.65723 8.79601C8.61803 8.73682 8.64043 8.65986 8.71324 8.55924C8.77485 8.47636 8.90367 8.29286 9.17252 7.87851L8.92608 8.12712C8.79166 8.26327 8.56762 8.53556 8.4276 8.72498C8.24837 8.97951 8.08594 9.12749 7.8675 9.24588C7.69948 9.33467 7.43623 9.44122 7.27941 9.48857C7.12818 9.53001 6.96015 9.56553 6.91535 9.56553C6.87054 9.57145 6.77532 9.52409 6.70251 9.4649C6.6297 9.4057 6.55129 9.26364 6.52888 9.15117C6.50088 9.0387 6.50088 8.80785 6.52328 8.64803C6.54569 8.48228 6.55689 8.34614 6.54569 8.34022C6.53448 8.32838 6.47847 8.45861 6.42807 8.62435C6.36646 8.81377 6.27684 8.95583 6.20403 8.99727C6.13122 9.03278 6.06401 9.05054 6.0472 9.03278C6.0304 9.01503 6.0416 8.8848 6.08081 8.73682C6.11441 8.58883 6.21523 8.3639 6.29925 8.23367C6.38326 8.10344 6.50088 7.95546 6.55689 7.90811C6.6129 7.85483 6.6409 7.84891 6.6185 7.89627C6.59049 7.94954 6.6073 7.95546 6.69131 7.90811C6.75292 7.87259 6.82013 7.8134 6.84253 7.77788C6.85934 7.73644 6.88174 7.64173 6.88174 7.5707C6.88734 7.49375 6.87054 7.43456 6.84814 7.43456C6.82013 7.43456 6.82013 7.37536 6.84253 7.30433C6.86494 7.22146 6.85934 7.18002 6.83133 7.2037C6.79773 7.22738 6.79213 7.13859 6.82013 6.96693C6.84253 6.81894 6.90975 6.58809 6.96575 6.45786C7.02176 6.32764 7.13938 6.14414 7.229 6.04943C7.31861 5.95472 7.50344 5.82449 7.64347 5.75938C7.78349 5.69426 8.06914 5.62323 8.28197 5.60547C8.65163 5.56996 8.67404 5.55812 8.90928 5.29175C9.0549 5.12601 9.14451 4.9721 9.12771 4.91883C9.11091 4.87147 9.14451 4.80636 9.19492 4.77676C9.25093 4.74717 9.52537 4.64062 9.79982 4.53407Z" fill="#899519"/>
<path d="M8.96529 3.53385C9.0549 3.42139 9.23973 3.25564 9.37975 3.16093C9.51978 3.07214 9.69341 2.99519 9.77182 2.99519C9.85023 2.98927 9.94545 3.03071 9.98465 3.08398C10.0295 3.1491 10.0407 3.23197 10.0127 3.33852C9.97345 3.4569 9.85023 3.56345 9.49177 3.77063C9.15012 3.96005 8.95968 4.11395 8.83086 4.30337C8.73005 4.44544 8.59562 4.73549 8.53962 4.94858C8.48361 5.16168 8.4444 5.3511 8.4612 5.37478C8.4724 5.40437 8.34918 5.42213 8.19236 5.42213C8.01313 5.42213 7.79469 5.47541 7.64347 5.54644C7.50344 5.61155 7.31861 5.72402 7.2234 5.80097C7.12818 5.872 6.99936 6.02591 6.93215 6.13837C6.86494 6.25084 6.78093 6.49354 6.74732 6.67704C6.70251 6.94933 6.70811 7.08547 6.85934 7.6123L6.57369 7.89051C6.41126 8.05033 6.22643 8.28118 6.15362 8.41141C6.08081 8.54164 6.0024 8.79617 5.98559 8.97375C5.95759 9.19277 5.97999 9.44138 6.0416 9.74327C6.09761 9.98596 6.20963 10.3293 6.28804 10.5069C6.37766 10.6963 6.51208 10.8739 6.6073 10.939C6.70251 10.9982 6.83694 11.0455 6.91535 11.0455C6.99376 11.0455 7.2178 10.9804 7.41943 10.9094C7.75549 10.7851 7.78909 10.7555 7.8227 10.572C7.8451 10.4595 7.91231 10.1043 7.97952 9.7847C8.04113 9.47098 8.11955 9.19277 8.15875 9.16317C8.20916 9.13357 8.21476 9.16909 8.18116 9.29931C8.15875 9.39402 8.11395 9.68999 8.08594 9.95044C8.05794 10.2109 8.03553 10.4418 8.03553 10.4654C8.03553 10.495 8.27077 10.3352 8.55082 10.1221C8.83646 9.90901 9.30134 9.61304 9.57579 9.47098C9.85023 9.32891 10.3935 9.10398 10.78 8.96783C11.1664 8.83168 11.8442 8.64226 12.2922 8.54755C12.7403 8.45285 13.4348 8.34038 13.8325 8.29302C14.2302 8.24567 14.8631 8.18055 15.2327 8.15096C15.6752 8.11544 16.0056 8.05033 16.1961 7.97338C16.3585 7.90234 16.4985 7.86091 16.5041 7.87867C16.5153 7.89643 16.5937 7.7662 16.6834 7.59454C16.8234 7.32817 16.8402 7.2453 16.8178 6.93157C16.801 6.73623 16.7338 6.45802 16.6666 6.31004C16.5993 6.16205 16.5769 6.09102 16.6161 6.15021C16.6554 6.20941 16.7226 6.30412 16.7562 6.35739C16.8178 6.44026 16.8178 6.42842 16.773 6.28044C16.745 6.18573 16.6834 6.06142 16.6329 6.01407C16.5825 5.96671 16.5433 5.94304 16.5489 5.96671C16.5489 5.99631 16.4313 5.90752 16.2801 5.77137C16.1345 5.64115 15.888 5.48724 15.7368 5.42805C15.58 5.36886 15.2999 5.30374 14.7566 5.24455L14.7678 5.04921C14.779 4.94858 14.7398 4.78876 14.6838 4.69405C14.6278 4.59934 14.443 4.46319 14.2246 4.35665C13.9445 4.2205 13.7821 4.17907 13.5076 4.17907C13.3004 4.17907 12.9755 4.23826 12.6843 4.32705C12.4211 4.40992 12.1858 4.46319 12.1522 4.45136C12.1186 4.43952 12.141 4.42176 12.1914 4.42176C12.2474 4.41584 12.2922 4.39808 12.2922 4.36848C12.2922 4.34481 12.2138 4.28561 12.113 4.23234C12.0122 4.17907 11.7657 4.10211 11.5641 4.06068C11.3625 4.02516 11.06 4.0074 10.892 4.02516C10.724 4.04292 10.4215 4.11395 10.2199 4.18498C10.0183 4.2501 9.71581 4.38624 9.54778 4.48095C9.25093 4.65261 9.24533 4.65261 9.40776 4.50463C9.49737 4.42176 9.72701 4.27378 9.91184 4.17907C10.0967 4.07844 10.4383 3.96005 10.668 3.90677C11.004 3.83574 11.1664 3.82982 11.4633 3.87718C11.6761 3.91269 11.945 3.99557 12.0682 4.06068C12.1914 4.12579 12.3482 4.17907 12.4155 4.17907C12.4883 4.17907 12.6451 4.13763 12.7683 4.09027C12.8915 4.04292 13.194 4.0074 13.4404 4.00148C13.7933 4.00148 13.9501 4.02516 14.1965 4.13763C14.3702 4.2205 14.5942 4.38624 14.7118 4.52831C14.8295 4.65853 14.9471 4.83611 14.9807 4.91899C15.0199 5.01961 15.0927 5.07881 15.2159 5.10249C15.3167 5.12024 15.552 5.18536 15.7368 5.24455C15.9552 5.31558 16.1737 5.44581 16.3529 5.61747C16.5041 5.75954 16.689 5.99039 16.7562 6.13837C16.829 6.28044 16.9074 6.55273 16.941 6.73623C16.9802 6.99668 16.9802 7.17426 16.9186 7.46431C16.8458 7.84315 16.8458 7.84907 17.0082 8.18647C17.0978 8.37589 17.249 8.7133 17.3387 8.94415C17.4339 9.17501 17.5683 9.59528 17.6467 9.89125C17.7251 10.1813 17.8147 10.7022 17.8483 11.0455C17.882 11.3888 17.91 11.6907 17.9212 11.7263C17.9268 11.7558 18.078 11.8742 18.2628 11.9867C18.442 12.0992 18.7165 12.3123 18.8621 12.4603C19.0133 12.6082 19.2038 12.8509 19.2934 12.9989C19.383 13.1469 19.5006 13.4251 19.5622 13.6204C19.6238 13.8158 19.6911 14.1473 19.7135 14.3604C19.7359 14.6208 19.7247 14.8872 19.663 15.1891C19.6126 15.4318 19.495 15.8047 19.3942 16.0178C19.2934 16.2427 19.0862 16.5387 18.9069 16.7281C18.7333 16.9116 18.4644 17.1188 18.3132 17.1957C18.1564 17.2727 17.6411 17.4384 17.165 17.5687C16.689 17.693 16.2913 17.8114 16.2801 17.8232C16.2745 17.841 16.3753 17.8883 16.5041 17.9357C16.6385 17.983 16.8122 18.0363 16.8962 18.0541C17.0138 18.0836 17.0418 18.1132 17.0082 18.1843C16.9858 18.2316 16.8682 18.3263 16.745 18.3915C16.6105 18.4566 16.3977 18.5039 16.2129 18.5039C16.0449 18.5039 15.748 18.4625 15.552 18.4151C15.3615 18.3678 15.1039 18.2731 14.9807 18.208C14.8575 18.1428 14.7678 18.0718 14.779 18.0422C14.7902 18.0185 14.9471 17.983 15.1263 17.9653C15.3727 17.9416 15.5856 17.8587 15.9608 17.6515C16.2353 17.4917 16.5993 17.2609 16.7562 17.1365C16.9186 17.0122 17.0642 16.9057 17.081 16.9057C17.0978 16.9057 17.0978 16.9294 17.081 16.9649C17.0642 17.0004 17.1482 17.0122 17.3163 16.9886C17.4675 16.9708 17.7083 16.9175 17.8652 16.8761C18.0164 16.8287 18.2852 16.7044 18.4532 16.5979C18.6213 16.4913 18.8509 16.2723 18.9685 16.1066C19.0806 15.9408 19.2318 15.6626 19.299 15.485C19.3662 15.3075 19.4334 14.976 19.4502 14.7451C19.467 14.4965 19.4502 14.2124 19.4054 14.0348C19.3718 13.8691 19.327 13.6915 19.3158 13.6323C19.299 13.5494 19.2318 13.5317 18.9573 13.5317C18.7277 13.5317 18.6213 13.508 18.6213 13.4547C18.6213 13.4133 18.6997 13.3837 18.8285 13.3837C18.9405 13.3837 19.0413 13.3541 19.0525 13.3067C19.0581 13.2712 18.9405 13.0759 18.7893 12.8805C18.6325 12.6852 18.4084 12.4721 18.2852 12.407C18.162 12.3419 18.0276 12.2886 17.9884 12.2886C17.9548 12.2886 17.8708 12.3478 17.8035 12.4188C17.7363 12.4958 17.6019 12.7148 17.4955 12.9101C17.3947 13.1055 17.1594 13.4369 16.9746 13.65C16.7954 13.8631 16.5825 14.0526 16.4985 14.0822C16.4201 14.1058 16.2913 14.1887 16.2129 14.2716C16.1345 14.3485 15.9104 14.532 15.3503 14.9227L15.3615 15.3193C15.3671 15.5442 15.3559 15.7218 15.3279 15.7218C15.3055 15.7218 15.2215 15.6153 15.1319 15.485C15.0255 15.3134 14.9527 15.2601 14.8799 15.2838C14.8295 15.3015 14.7175 15.3311 14.6279 15.3548L14.6278 15.3548C14.5438 15.3785 14.471 15.4081 14.471 15.4259C14.471 15.4436 14.5774 15.562 14.9415 15.929L14.9303 16.5209C14.9247 16.8465 14.8799 17.2964 14.8407 17.5272C14.7846 17.8114 14.7006 18.0363 14.5662 18.2376C14.4598 18.3974 14.303 18.5868 14.2133 18.6578C14.1293 18.7289 14.0005 18.7999 13.9277 18.8176C13.8605 18.8413 13.6981 18.8295 13.5692 18.794C13.39 18.7466 13.1548 18.7525 12.6843 18.8058C12.1746 18.865 11.8722 18.8709 11.2281 18.8117C10.4607 18.7466 10.3879 18.7289 9.91184 18.498C9.53098 18.3086 9.34055 18.2494 9.12771 18.2494C8.97649 18.2494 8.70764 18.3027 8.53962 18.3619C8.36599 18.4211 8.06354 18.4684 7.8395 18.4684C7.54265 18.4684 7.39703 18.4447 7.2514 18.35C7.14499 18.2849 7.04977 18.1843 7.03857 18.131C7.0311 18.0639 7.07777 18.0185 7.17859 17.9949C7.26821 17.9771 7.42503 17.9297 7.72748 17.835L7.50344 17.7285C7.38022 17.6693 7.13938 17.6042 6.97136 17.5864C6.80333 17.5627 6.46167 17.4976 6.21523 17.4325C5.96879 17.3674 5.61593 17.2253 5.4367 17.1247C5.25748 17.0182 4.98863 16.7991 4.84861 16.6393C4.70858 16.4736 4.51255 16.1658 4.41174 15.9586C4.31652 15.7455 4.2045 15.4022 4.1709 15.1891C4.13729 14.976 4.12049 14.6682 4.14289 14.5084C4.15969 14.3426 4.23251 14.0407 4.29972 13.8276C4.36133 13.6145 4.51815 13.283 4.64137 13.0936C4.77019 12.8983 4.98303 12.6378 5.12305 12.5076C5.26308 12.3833 5.52632 12.188 5.71115 12.0814C5.89598 11.9749 6.19843 11.8387 6.38326 11.7914C6.56809 11.7381 6.75292 11.6611 6.79213 11.6256C6.85374 11.5605 6.80893 11.4954 6.55129 11.2527C6.34965 11.0633 6.18723 10.8443 6.09761 10.643C6.0248 10.4773 5.93519 10.1399 5.89598 9.90309C5.86237 9.67223 5.82877 9.29339 5.82877 9.06254C5.82877 8.74289 5.85677 8.58307 5.95759 8.38181C6.0304 8.23383 6.18163 7.99705 6.29925 7.84907C6.50648 7.58862 6.51208 7.57086 6.50648 7.13875C6.50648 6.85462 6.54569 6.57641 6.6073 6.36923C6.66331 6.19165 6.80333 5.94304 6.90975 5.81281C7.02177 5.6885 7.20099 5.54052 7.30741 5.48133C7.41383 5.42213 7.64347 5.34518 7.8115 5.30966C7.97952 5.26823 8.15875 5.25639 8.20356 5.27415C8.27077 5.29782 8.30438 5.22679 8.36039 4.93674C8.40519 4.72957 8.51721 4.38032 8.62363 4.14947C8.72445 3.91861 8.88127 3.64632 8.96529 3.53385Z" fill="#231512"/>
<path d="M9.18372 20.3093L9.20052 20.0548V20.0607C9.21733 19.8535 9.23973 19.8062 9.32935 19.8062C9.42456 19.8062 9.44136 19.8535 9.46377 20.2087C9.48057 20.4277 9.49177 20.7178 9.49177 20.8598C9.49177 21.0552 9.47497 21.1025 9.40776 21.0788C9.36295 21.0611 9.30134 21.0492 9.26774 21.0492C9.23413 21.0492 9.19492 20.9486 9.17812 20.8302C9.15012 20.6467 9.12211 20.6053 9.0269 20.6171C8.95968 20.6231 8.84767 20.629 8.77485 20.629C8.66844 20.6349 8.65163 20.6704 8.63483 20.919C8.62363 21.1558 8.60683 21.1972 8.51161 21.1972C8.41079 21.1972 8.39399 21.144 8.35478 20.7237C8.32118 20.41 8.32678 20.1969 8.36599 20.0903C8.39959 19.9956 8.4668 19.9246 8.51161 19.9246C8.56762 19.9246 8.60683 20.0015 8.62363 20.1317C8.65163 20.3389 8.65163 20.3389 9.18372 20.3093Z" fill="#231512"/>
<path d="M11.8778 20.0785C11.9002 19.9897 11.973 19.8891 12.0346 19.8595C12.1018 19.8299 12.2306 19.8062 12.3202 19.8003C12.4099 19.8003 12.5387 19.8358 12.6003 19.8831C12.6619 19.9305 12.6899 19.9897 12.6675 20.0193C12.6395 20.043 12.5275 20.0666 12.4211 20.0666C12.309 20.0666 12.2082 20.0962 12.197 20.1258C12.1858 20.1554 12.2474 20.2146 12.3314 20.2561C12.4211 20.2975 12.5443 20.3804 12.6115 20.4514C12.6843 20.5165 12.7403 20.6408 12.7403 20.7355C12.7459 20.8243 12.7011 20.9368 12.6451 20.9901C12.5891 21.0433 12.4883 21.1025 12.4155 21.1262C12.3482 21.144 12.2026 21.1203 12.0962 21.0729C11.9618 21.0137 11.889 20.9368 11.8666 20.8243C11.8498 20.7296 11.8442 20.6527 11.8554 20.6467C11.8666 20.6408 11.9506 20.6763 12.0402 20.7237C12.1298 20.771 12.2586 20.8066 12.3146 20.7947C12.3762 20.7829 12.4323 20.7474 12.4435 20.7178C12.4547 20.6882 12.3482 20.6231 12.2082 20.5875C12.0458 20.5402 11.9338 20.4632 11.8946 20.3804C11.8554 20.2975 11.8498 20.1791 11.8778 20.0785Z" fill="#231512"/>
<path d="M13.1324 19.9778C13.1324 19.8831 13.1772 19.8535 13.3676 19.8417C13.502 19.8299 13.7205 19.818 13.8605 19.8239C14.0565 19.8299 14.1125 19.8535 14.1237 19.9364C14.1349 20.0134 14.0957 20.043 13.7765 20.0666L13.7597 20.6171L13.7596 20.6186C13.7485 21.1558 13.7484 21.1617 13.6084 21.1617C13.474 21.1617 13.4684 21.138 13.4348 20.7651C13.418 20.5402 13.4012 20.3093 13.3956 20.2442C13.39 20.1673 13.3396 20.1199 13.2556 20.114C13.1734 20.1022 13.1324 20.0568 13.1324 19.9778Z" fill="#231512"/>
<path d="M14.5214 19.9838C14.5158 19.9186 14.5494 19.8535 14.5942 19.8417C14.6334 19.8239 14.7846 19.8062 14.9247 19.8062C15.0647 19.8062 15.2327 19.8121 15.2999 19.8299C15.3839 19.8476 15.4287 19.9009 15.4287 19.9778C15.4287 20.0568 15.3821 20.1061 15.2887 20.1258C15.1543 20.1554 15.1487 20.1732 15.1319 20.6467C15.1207 21.1025 15.1151 21.1321 14.9919 21.1499C14.8855 21.1617 14.8631 21.1262 14.8407 20.9131C14.8238 20.771 14.807 20.5402 14.7958 20.3922C14.7846 20.1673 14.7678 20.1258 14.6558 20.114C14.583 20.1022 14.527 20.0548 14.5214 19.9838Z" fill="#231512"/>
<path d="M15.7032 20.2028C15.6976 20.0962 15.748 20.0074 15.8544 19.9246C15.9384 19.8535 16.0953 19.8003 16.2073 19.8003C16.3249 19.7943 16.4649 19.8417 16.5489 19.9127C16.661 20.0015 16.6722 20.037 16.6049 20.0607C16.5601 20.0785 16.4201 20.1021 16.2969 20.1081C16.1737 20.1199 16.0785 20.1554 16.0841 20.185C16.0897 20.2146 16.1401 20.2561 16.1961 20.262C16.2521 20.2738 16.3809 20.3271 16.4817 20.3804C16.5881 20.4396 16.6778 20.5402 16.6946 20.629C16.7114 20.7118 16.7114 20.8362 16.6946 20.9131C16.6722 21.0019 16.5937 21.067 16.4481 21.1084C16.3361 21.144 16.1625 21.1558 16.0729 21.138C15.9832 21.1144 15.86 21.0492 15.804 20.996C15.748 20.9427 15.7032 20.8598 15.7088 20.8243C15.7088 20.7651 15.7928 20.7592 16.0449 20.7947C16.3249 20.8302 16.3809 20.8184 16.3809 20.7474C16.3809 20.6882 16.3025 20.6408 16.1457 20.6171C16.0112 20.5935 15.86 20.5224 15.804 20.4692C15.748 20.41 15.7032 20.2916 15.7032 20.2028Z" fill="#231512"/>
<path d="M10.0687 20.6408C10.1527 20.3922 10.2647 20.1258 10.3095 20.0548C10.3543 19.9719 10.4439 19.9186 10.5279 19.9186C10.6232 19.9186 10.7016 19.9778 10.78 20.114C10.8416 20.2146 10.9424 20.4751 11.0096 20.6882C11.0712 20.9013 11.1104 21.1084 11.0936 21.1499C11.0712 21.1972 10.9928 21.2091 10.8752 21.1913C10.78 21.1736 10.6064 21.144 10.4999 21.1262C10.3823 21.1025 10.2535 21.1262 10.1751 21.1736C10.0743 21.2327 10.0351 21.2387 9.97905 21.1736C9.92864 21.1144 9.94545 21.0078 10.0687 20.6408Z" fill="#231512"/>
<path d="M11.4633 21.2209C11.4409 21.2209 11.4297 21.0019 11.4409 20.7355C11.4521 20.404 11.4745 20.2738 11.5081 20.333C11.5417 20.3804 11.5641 20.5402 11.5641 20.6882C11.5641 20.8362 11.5529 21.0137 11.5361 21.0907C11.5193 21.1617 11.4913 21.2209 11.4633 21.2209Z" fill="#231512"/>
<path d="M18.7389 13.3423C18.9293 13.3482 19.0133 13.3305 19.0133 13.2831V13.2772C19.0133 13.2417 19.0245 13.2239 19.0413 13.2476C19.0581 13.2772 19.0525 13.3245 19.0301 13.3601C19.0021 13.4015 18.9013 13.4193 18.8061 13.4074C18.6829 13.3897 18.6213 13.4074 18.6213 13.4548C18.6213 13.5021 18.7221 13.5376 18.8901 13.5554C19.0357 13.5672 18.9797 13.5672 18.7613 13.5554C18.5429 13.5436 18.358 13.5199 18.3412 13.5021C18.3244 13.4844 18.3468 13.437 18.3916 13.4015C18.4308 13.3601 18.5877 13.3364 18.7389 13.3423Z" fill="#472015"/>
<path d="M19.0693 14.8991C19.159 14.6209 19.2486 14.2243 19.2766 14.0112C19.3046 13.7034 19.3214 13.662 19.3494 13.804C19.3662 13.8987 19.3494 14.2065 19.3046 14.4847C19.2654 14.7748 19.1366 15.2365 19.0077 15.5798C18.8789 15.9054 18.7669 16.2132 18.7445 16.2606C18.7221 16.3257 18.7557 16.3138 18.8509 16.231C18.9461 16.1481 18.9349 16.1718 18.8173 16.3079C18.7277 16.4145 18.5092 16.5743 18.3412 16.669C18.1732 16.7637 17.9324 16.8702 17.8091 16.8998C17.6859 16.9354 17.4675 16.9768 17.3219 16.9946C17.1202 17.0182 17.0586 17.0123 17.0698 16.9531C17.0754 16.9176 17.1202 16.8229 17.165 16.7459C17.221 16.6572 17.3947 16.5624 17.6971 16.4618C17.9436 16.3789 18.2348 16.2487 18.3412 16.1718C18.4476 16.0948 18.6213 15.8876 18.7221 15.716C18.8173 15.5443 18.9741 15.1773 19.0693 14.8991Z" fill="#472015"/>
<path d="M16.3249 14.4256C16.3585 14.5025 16.3697 14.4966 16.3977 14.4078C16.4201 14.3545 16.4425 14.3072 16.4481 14.3072C16.4593 14.3072 16.3865 14.5617 16.2969 14.8695C16.1681 15.2957 16.1065 15.4318 16.0336 15.4318C15.9776 15.4318 15.9328 15.4022 15.9328 15.3726C15.9328 15.3371 16.0112 15.0944 16.1065 14.8221C16.2241 14.4907 16.2969 14.3664 16.3249 14.4256Z" fill="#472015"/>
<path d="M15.3559 14.9701C15.3503 14.9465 15.5072 14.8162 15.7088 14.6742C15.9104 14.538 16.0728 14.4256 16.0728 14.4256C16.0728 14.4256 16.0056 14.6564 15.916 14.9405C15.776 15.4082 15.7424 15.4733 15.3727 15.6686V15.3431C15.3727 15.1655 15.3671 14.9997 15.3559 14.9701Z" fill="#472015"/>
<path d="M11.3625 21.1144C11.3793 21.0316 11.4017 20.8185 11.4073 20.6409C11.4184 20.3481 11.4185 20.3507 11.4347 20.7177L11.4353 20.7297C11.4465 20.9901 11.4297 21.1677 11.3905 21.2032C11.3401 21.2447 11.3345 21.221 11.3625 21.1144Z" fill="#472015"/>
<path d="M17.4675 13.0286C17.5571 12.8629 17.6803 12.6439 17.7475 12.5432V12.5373C17.8203 12.413 17.91 12.3479 17.9884 12.3479C18.0612 12.3479 18.1844 12.3834 18.274 12.4308C18.358 12.4722 18.5597 12.6616 18.7221 12.8451C18.8789 13.0286 19.0133 13.218 19.0133 13.2654C19.0133 13.3305 18.9629 13.3483 18.8061 13.3305C18.6885 13.3246 18.5373 13.3364 18.4701 13.3601C18.3972 13.3897 18.3412 13.4371 18.3412 13.4726C18.3412 13.5081 18.4364 13.5436 18.5541 13.5614C18.6661 13.5791 18.8845 13.5969 19.3046 13.6206L19.2654 14.0053C19.2486 14.2184 19.1534 14.615 19.0638 14.8932C18.9741 15.1714 18.8173 15.5384 18.7221 15.7101C18.6213 15.8818 18.4477 16.083 18.3412 16.16C18.2348 16.2369 18.0836 16.3139 18.0052 16.3376C17.9268 16.3671 17.8091 16.3671 17.7419 16.3494C17.6355 16.3198 17.6131 16.2784 17.6299 16.1304C17.6411 15.9587 17.6187 15.9291 17.2771 15.7397C16.9914 15.5799 16.8234 15.5325 16.4929 15.5029C16.2633 15.4852 16.1009 15.4556 16.1345 15.4319C16.1681 15.4141 16.2129 15.278 16.2353 15.13C16.2521 14.982 16.3473 14.692 16.4425 14.4848C16.5433 14.2717 16.7674 13.9343 16.9634 13.7153C17.1538 13.5022 17.3835 13.1884 17.4675 13.0286Z" fill="#B96B23"/>
<path d="M18.9853 15.6213C19.131 15.2543 19.2654 14.7926 19.3046 14.5203C19.3718 14.0764 19.3774 14.0645 19.4278 14.2539C19.4652 14.3881 19.4614 14.5933 19.4166 14.8695C19.3774 15.1004 19.271 15.4437 19.1814 15.6391C19.0918 15.8344 18.9685 16.0534 18.9069 16.1245C18.8397 16.2014 18.7781 16.2606 18.7613 16.2606C18.7445 16.2606 18.8453 15.9765 18.9853 15.6213Z" fill="#B96B23"/>
<path d="M15.9216 14.9879C15.9944 14.7275 16.1065 14.4552 16.1681 14.3782L16.1681 14.3782C16.2353 14.3072 16.2913 14.248 16.2969 14.248C16.3025 14.248 16.2129 14.5025 16.0953 14.8104C15.972 15.1182 15.8768 15.4141 15.8768 15.4615C15.8768 15.5088 15.832 15.5503 15.7816 15.5503C15.72 15.5503 15.7032 15.5325 15.7368 15.5029C15.7704 15.4792 15.8544 15.2484 15.9216 14.9879Z" fill="#B96B23"/>
<path d="M10.0967 4.30334C10.0911 4.27374 10.2479 4.20271 10.4495 4.15535C10.6792 4.09616 10.9704 4.07248 11.2561 4.09024C11.5025 4.10208 11.7994 4.14943 11.917 4.19087C12.085 4.25006 12.1242 4.2915 12.1018 4.36845C12.085 4.42764 12.0906 4.475 12.1242 4.475C12.1522 4.475 12.1802 4.51643 12.1802 4.56379C12.1802 4.61114 12.2026 4.64074 12.2362 4.62298C12.2642 4.60522 12.2922 4.61706 12.2922 4.65258C12.2922 4.6881 12.1466 4.71177 11.9674 4.71177C11.721 4.71177 11.5641 4.67034 11.2841 4.52235C11.0208 4.38621 10.8416 4.33293 10.64 4.33885C10.4832 4.33885 10.2591 4.37437 10.1359 4.40989C9.96787 4.46908 9.89505 4.46908 9.85585 4.41581C9.81664 4.36845 9.82784 4.36253 9.91186 4.39805C9.99587 4.42764 10.0127 4.42172 9.97907 4.36845C9.95293 4.3211 9.96787 4.30728 10.0239 4.32701C10.0687 4.34477 10.1023 4.33293 10.0967 4.30334Z" fill="#F2CC94"/>
<path d="M13.8325 4.4454C13.8773 4.46316 13.9165 4.45132 13.9165 4.41581C13.9109 4.38621 13.9501 4.37437 14.0005 4.38621C14.0453 4.40397 14.0733 4.43948 14.0565 4.475C14.0397 4.5046 14.0621 4.52235 14.0957 4.5046C14.135 4.48684 14.2582 4.52827 14.3646 4.59931C14.527 4.69993 14.5438 4.73545 14.4766 4.78281C14.4094 4.83016 14.4094 4.83608 14.4878 4.80648C14.5606 4.78281 14.5998 4.80648 14.6166 4.88935C14.639 4.98406 14.6222 5.00182 14.5438 4.97223C14.4934 4.94855 14.3926 4.97223 14.3254 5.01366C14.2078 5.09061 14.1574 5.07877 13.8493 4.91303C13.6533 4.81832 13.4908 4.70585 13.4796 4.66442C13.474 4.62298 13.502 4.59931 13.5357 4.60522C13.5749 4.61706 13.5973 4.58155 13.5861 4.53419C13.5749 4.46316 13.5861 4.45724 13.6589 4.51643C13.7261 4.57563 13.7597 4.57563 13.7821 4.52235C13.8045 4.48092 13.7933 4.475 13.7541 4.5046C13.7149 4.53419 13.7037 4.52827 13.7205 4.48684C13.7373 4.4454 13.7877 4.42764 13.8325 4.4454Z" fill="#F2CC94"/>
<path d="M7.62668 5.64111C7.68829 5.67071 7.71069 5.66479 7.69389 5.62927C7.67149 5.59376 7.7275 5.576 7.83391 5.59376C7.99634 5.61152 7.99074 5.61744 7.67149 5.7595C7.48666 5.83645 7.28502 5.91932 7.22341 5.93708C7.1282 5.96076 7.1338 5.94892 7.25142 5.84829C7.32983 5.78318 7.40824 5.73582 7.43065 5.75358C7.45865 5.76542 7.48666 5.73582 7.50346 5.68847C7.52213 5.62927 7.5632 5.61349 7.62668 5.64111Z" fill="#F2CC94"/>
<path d="M16.2409 5.90748C16.1009 5.75358 15.9833 5.61744 15.9889 5.59968C15.9889 5.58192 16.1065 5.69439 16.2521 5.84829C16.4033 6.00219 16.5546 6.20937 16.5882 6.31C16.6274 6.40471 16.6442 6.49942 16.6162 6.51718C16.5938 6.52902 16.5433 6.46982 16.5041 6.38103C16.4649 6.29224 16.4481 6.21529 16.4649 6.20345C16.4817 6.19753 16.3809 6.06731 16.2409 5.90748Z" fill="#F2CC94"/>
<path d="M8.29879 20.8124C8.28759 20.99 8.28199 20.8598 8.28199 20.5165C8.28199 20.1731 8.28759 20.0252 8.29879 20.1909C8.30999 20.3507 8.30999 20.6349 8.29879 20.8124Z" fill="#F2CC94"/>
<path d="M7.57627 20.4099C7.57067 20.3507 7.58747 20.2856 7.60988 20.2619C7.63228 20.2442 7.68269 20.2383 7.7275 20.256C7.7667 20.2679 7.80591 20.3507 7.80591 20.4277C7.81151 20.5105 7.80031 20.5757 7.78351 20.5757C7.7667 20.5757 7.71629 20.5638 7.67149 20.5461C7.62668 20.5283 7.58187 20.4691 7.57627 20.4099Z" fill="#F2CC94"/>
<path d="M9.04369 5.03714C9.03809 5.00163 9.03249 4.96019 9.03809 4.93652V4.9306C9.03809 4.90692 9.07169 4.88916 9.0997 4.88916C9.1333 4.88916 9.15571 4.91284 9.15571 4.94835C9.15571 4.97795 9.07169 5.09634 8.97648 5.20289C8.87566 5.30943 8.83646 5.34495 8.89246 5.27984C8.94287 5.20881 8.97088 5.13777 8.94847 5.1141C8.92047 5.0845 8.87006 5.10226 8.82525 5.14369C8.75804 5.20289 8.75244 5.19697 8.80845 5.07858C8.86446 4.97203 8.89246 4.96019 8.96528 5.01939C9.01568 5.06082 9.04929 5.07266 9.04369 5.03714Z" fill="#8D7D5E"/>
<path d="M6.90414 6.32165C7.01055 6.11447 7.11697 5.98424 7.20099 5.95465C7.2738 5.93097 7.34661 5.91321 7.35781 5.90729C7.36901 5.90137 7.2962 5.99016 7.20099 6.09079C7.10017 6.19734 6.97135 6.43411 6.90974 6.61169C6.83132 6.83071 6.80332 7.01421 6.82572 7.17403C6.84253 7.33978 6.83693 7.37529 6.80332 7.29242C6.77532 7.22731 6.75291 7.05565 6.75291 6.90766C6.74731 6.71824 6.79212 6.54658 6.90414 6.32165Z" fill="#8D7D5E"/>
<path d="M6.31604 11.584C6.43926 11.5484 6.52327 11.4892 6.52327 11.436C6.52327 11.3886 6.55128 11.3472 6.57928 11.3472C6.61289 11.3472 6.6745 11.3886 6.71931 11.436C6.78092 11.5011 6.78652 11.5484 6.74731 11.6136C6.7081 11.6727 6.6521 11.6905 6.56808 11.6609C6.47287 11.6313 6.45046 11.6372 6.48407 11.6905C6.51021 11.7379 6.49527 11.7517 6.43926 11.7319C6.39445 11.7142 6.32164 11.726 6.28804 11.7615C6.23763 11.803 6.15921 11.7556 6.01919 11.5958C5.91277 11.4774 5.88477 11.436 5.96318 11.507C6.0864 11.6195 6.13121 11.6313 6.31604 11.584Z" fill="#8D7D5E"/>
<path d="M13.5692 18.924C13.5132 18.924 13.4684 18.9062 13.4684 18.8825V18.8766C13.4684 18.8529 13.5972 18.8352 13.7485 18.8352C13.9109 18.8352 14.0229 18.8589 14.0117 18.8944C14.0005 18.924 13.8605 19.0246 13.7037 19.1134C13.4964 19.2318 13.3844 19.2614 13.3172 19.2259C13.2332 19.1844 13.25 19.1548 13.4404 19.0542C13.5692 18.9832 13.6196 18.9299 13.5692 18.924Z" fill="#8D7D5E"/>
<path d="M15.1879 20.7353C15.1767 20.8655 15.1655 20.7886 15.1655 20.5577C15.1655 20.3269 15.1767 20.2262 15.1879 20.3209C15.1991 20.4156 15.1991 20.6051 15.1879 20.7353Z" fill="#8D7D5E"/>
<path d="M13.6532 21.2029C13.7317 21.1852 13.7485 21.1023 13.7597 20.7471L13.7709 20.3209L13.7877 20.7057C13.7989 20.9188 13.7933 21.126 13.7765 21.1615C13.7597 21.2029 13.7037 21.2325 13.6532 21.2325C13.558 21.2266 13.558 21.2207 13.6532 21.2029Z" fill="#8D7D5E"/>
<path d="M7.41945 16.3431C7.41945 16.2957 7.51467 16.201 7.63229 16.1418H7.62669C7.74431 16.0826 7.94034 16.0294 8.06356 16.0234C8.22598 16.0234 8.26519 16.0353 8.20358 16.0767C8.14197 16.1181 8.17558 16.1359 8.3268 16.1359C8.44442 16.1359 8.53964 16.1596 8.53964 16.1951C8.53964 16.2247 8.47803 16.2543 8.39961 16.2543C8.3212 16.2543 8.24839 16.2957 8.23159 16.3431C8.21478 16.3904 8.11957 16.4496 8.01875 16.4674C7.92354 16.4911 7.77231 16.5443 7.6827 16.5858C7.58748 16.6391 7.53707 16.7042 7.55387 16.7693C7.56508 16.8285 7.54827 16.9173 7.52027 16.9646C7.47546 17.0356 7.46986 17.0356 7.49787 16.9469C7.51467 16.8936 7.50907 16.8344 7.47546 16.8166C7.44186 16.7989 7.38025 16.8285 7.33544 16.8758C7.26263 16.9528 7.28503 16.9942 7.54267 17.2369C7.78351 17.4618 7.80592 17.4974 7.65469 17.4145C7.55948 17.3612 7.31864 17.16 7.1226 16.9587C6.81455 16.6391 6.79775 16.6095 6.98258 16.7219C7.18421 16.8403 7.20102 16.8403 7.24582 16.7397C7.26823 16.6864 7.28503 16.6035 7.27383 16.5621C7.26263 16.5266 7.29063 16.4792 7.33544 16.4615C7.38025 16.4437 7.41945 16.3904 7.41945 16.3431Z" fill="#515647"/>
<path d="M15.8824 16.3431C15.9105 16.3608 15.9385 16.3016 15.9385 16.2069C15.9385 16.1181 15.9553 16.0708 15.9777 16.0945C16.0001 16.1241 16.0337 16.1892 16.0393 16.2425C16.0505 16.3016 16.0617 16.4082 16.0561 16.4911C16.0561 16.5739 16.0337 16.6568 16.0113 16.6805C15.9889 16.7101 15.9329 16.6331 15.8936 16.5207C15.8544 16.4023 15.8488 16.3253 15.8824 16.3431Z" fill="#515647"/>
<path d="M8.34919 16.0533C8.4052 16.0652 8.48922 16.0415 8.53402 15.9882C8.57323 15.9408 8.62364 15.8994 8.64604 15.8994C8.66284 15.8994 8.76926 15.9408 8.87568 15.9941C8.9821 16.0533 9.11092 16.1007 9.15573 16.1125C9.20053 16.1184 9.26214 16.1303 9.29015 16.1303C9.32375 16.1362 9.31815 16.1717 9.27895 16.2131C9.23974 16.2487 9.21173 16.3315 9.21173 16.3907C9.21173 16.444 9.17813 16.4973 9.14452 16.5032C9.10532 16.5032 9.03251 16.5091 8.9877 16.515C8.93729 16.5209 8.89808 16.592 8.89248 16.6985C8.88128 16.7932 8.83647 16.9175 8.79167 16.9649C8.74126 17.0123 8.70205 17.0892 8.70765 17.1247C8.70765 17.1662 8.64044 17.2372 8.55643 17.2845C8.46681 17.3319 8.27638 17.3674 8.11955 17.3733C7.96833 17.3733 7.8003 17.4089 7.75549 17.4503C7.71069 17.4917 7.68828 17.5036 7.71629 17.4799C7.73869 17.4562 7.68268 17.3733 7.58747 17.2905C7.43064 17.1543 7.42504 17.1306 7.49785 17.0063C7.54266 16.9353 7.56506 16.8288 7.55386 16.7696C7.53706 16.7044 7.58187 16.6393 7.68828 16.5861C7.7723 16.5446 7.92352 16.4914 8.02434 16.4677C8.11955 16.4499 8.21477 16.3907 8.23157 16.3434C8.24838 16.296 8.32119 16.2546 8.3996 16.2546C8.47801 16.2546 8.53962 16.2309 8.53962 16.1954C8.53962 16.1599 8.44441 16.1362 8.33239 16.1362C8.1905 16.1362 8.14009 16.1165 8.18116 16.077C8.21477 16.0474 8.28758 16.0356 8.34919 16.0533Z" fill="#4B4E40"/>
<path d="M9.43021 16.1479C9.50862 16.1065 9.63744 16.0354 9.71586 15.994C9.79427 15.9466 9.86148 15.9052 9.86708 15.9052C9.87268 15.8993 9.84468 15.9585 9.79987 16.0295C9.76066 16.1065 9.69905 16.361 9.66545 16.5918C9.63184 16.8286 9.60384 17.1187 9.60384 17.2311C9.60384 17.4146 9.58704 17.4383 9.46382 17.4383C9.3854 17.4383 9.25658 17.5034 9.17257 17.5804C9.08295 17.6573 8.94853 17.7402 8.86452 17.758C8.7749 17.7757 8.70769 17.8231 8.70769 17.8527C8.70769 17.8823 8.7525 17.9119 8.80291 17.9178C8.85892 17.9178 8.88132 17.9355 8.84771 17.9474C8.81411 17.9651 8.70209 17.9355 8.59567 17.8882C8.46498 17.825 8.44631 17.8053 8.53966 17.829C8.65728 17.8527 8.66288 17.8467 8.58447 17.7935C8.52846 17.7639 8.44445 17.7461 8.39964 17.7639C8.35483 17.7816 8.27642 17.7816 8.23161 17.7639C8.1812 17.7461 8.1644 17.7047 8.18681 17.6632C8.22041 17.61 8.20361 17.6041 8.11959 17.6336C8.05798 17.6632 8.02438 17.6632 8.05238 17.6336C8.07479 17.61 8.02438 17.5389 7.78354 17.3791L7.95157 17.3732C8.04678 17.3673 8.1756 17.3673 8.24281 17.3732C8.31563 17.3791 8.45005 17.3377 8.53966 17.2903C8.62928 17.243 8.70769 17.166 8.70769 17.1246C8.70209 17.0891 8.7413 17.0121 8.7917 16.9648C8.83651 16.9174 8.88132 16.7931 8.89252 16.6984C8.89812 16.5918 8.93733 16.5208 8.98774 16.5149C9.03254 16.509 9.10536 16.503 9.13896 16.503C9.17817 16.4971 9.22858 16.432 9.24538 16.361C9.26778 16.29 9.3462 16.1952 9.43021 16.1479Z" fill="#454739"/>
<path d="M15.8377 14.1711C16.0281 14.0468 16.3361 13.8159 16.521 13.6561C16.7058 13.4903 16.8682 13.3601 16.885 13.3601C16.9018 13.3601 16.773 13.4963 16.5994 13.6679C16.4257 13.8396 16.1065 14.0764 15.8993 14.2007C15.6864 14.319 15.5072 14.4138 15.5016 14.4078C15.496 14.396 15.6472 14.2894 15.8377 14.1711Z" fill="#EFDAB3"/>
<path d="M14.3086 17.776C14.4262 17.5747 14.5438 17.2965 14.5662 17.1544C14.583 17.0183 14.6111 16.9058 14.6279 16.9058C14.6391 16.9058 14.6391 17.0242 14.6223 17.1722C14.6054 17.3202 14.5382 17.5392 14.4766 17.6576C14.415 17.7819 14.303 17.9595 14.2246 18.0601C14.1462 18.1548 14.0846 18.2199 14.0846 18.1903C14.0846 18.1666 14.1854 17.9831 14.3086 17.776Z" fill="#EFDAB3"/>
<path d="M15.7088 8.36989C15.9384 8.33437 16.2297 8.26334 16.3473 8.20415C16.4705 8.14495 16.5937 8.11536 16.6273 8.13903C16.6609 8.15679 16.7898 8.41724 16.9242 8.70729C17.053 8.99734 17.2266 9.48273 17.3107 9.77278C17.4563 10.2641 17.4675 10.3884 17.4731 12.3181L17.2938 12.7206C17.193 12.9396 17.0866 13.1172 17.053 13.1172C17.025 13.1172 17.0082 13.135 17.025 13.1646C17.0362 13.1882 16.9018 13.3303 16.717 13.4901C16.5321 13.644 16.3921 13.792 16.4089 13.8275C16.4257 13.8631 16.4033 13.9045 16.3697 13.9341C16.3212 13.9617 16.3118 13.9518 16.3417 13.9045C16.3641 13.8631 16.3641 13.8275 16.3417 13.8275C16.3137 13.8216 16.2633 13.8571 16.2297 13.8986C16.1905 13.94 16.1737 13.9992 16.2017 14.0288C16.2241 14.0584 16.2073 14.0643 16.1737 14.0466C16.1345 14.0229 16.0504 14.0288 15.9888 14.0643C15.9272 14.0998 15.888 14.1472 15.9048 14.1827C15.9216 14.2182 15.8936 14.2241 15.8376 14.2005C15.7648 14.1709 15.748 14.1768 15.7816 14.2301C15.804 14.2715 15.7928 14.2893 15.7536 14.2715C15.7144 14.2537 15.6304 14.2833 15.5688 14.3425C15.5072 14.4017 15.4063 14.455 15.3447 14.4668C15.2831 14.4787 15.2103 14.5201 15.1767 14.5556C15.1487 14.5971 15.0871 14.6267 15.0535 14.6267C15.0143 14.6267 14.9583 14.6326 14.9247 14.6444C14.8967 14.6503 14.8799 14.6799 14.8967 14.7154C14.9135 14.751 14.8742 14.7569 14.8014 14.7332C14.7062 14.7036 14.6838 14.7095 14.7174 14.7628C14.7436 14.8102 14.7156 14.8358 14.6334 14.8398C14.5606 14.8457 14.471 14.8457 14.4374 14.8398C14.3982 14.8398 14.3646 14.8516 14.3646 14.8812C14.3646 14.9049 14.2077 14.9581 14.0173 15.0055C13.6925 15.0765 13.6757 15.0884 13.8045 15.1476C13.8829 15.1831 13.9669 15.2127 14.0005 15.2127C14.0285 15.2186 14.1517 15.3903 14.2637 15.6033C14.3814 15.8164 14.5214 16.1361 14.5718 16.3137C14.6446 16.5919 14.6502 16.6984 14.5942 17.024C14.555 17.243 14.4542 17.5331 14.359 17.6929C14.2694 17.8468 14.1965 17.9829 14.1965 18.0007C14.1965 18.0184 14.2301 18.0125 14.2694 17.9889C14.3142 17.9573 14.3235 17.9671 14.2974 18.0184C14.2694 18.054 14.2301 18.0776 14.1965 18.0599C14.1685 18.0421 14.1181 18.0954 14.0845 18.1783C14.0565 18.2611 13.9613 18.3618 13.8773 18.4091C13.7877 18.4565 13.6196 18.5038 13.4964 18.5157C13.2836 18.5334 13.2724 18.5216 13.222 18.3263C13.1828 18.1724 13.1884 18.0421 13.2556 17.8231C13.3004 17.6633 13.3676 17.5331 13.4012 17.5449C13.4404 17.5508 13.4572 17.5212 13.446 17.4857C13.4404 17.4443 13.5244 17.2608 13.6476 17.0832C13.7653 16.9056 13.8605 16.7044 13.8605 16.6392C13.8605 16.5741 13.8325 16.4853 13.7933 16.4439C13.7541 16.4025 13.7037 16.3729 13.6813 16.3729C13.6532 16.3729 13.5356 16.58 13.4068 16.8346C13.2836 17.0832 13.1436 17.4502 13.0932 17.6455C13.0483 17.8468 13.0259 18.0954 13.0427 18.2256C13.0764 18.4328 13.0652 18.4506 12.8971 18.5157C12.7963 18.5571 12.5387 18.5867 12.3202 18.5926C12.1074 18.5926 11.8329 18.5749 11.7209 18.5512C11.5585 18.5157 11.5081 18.4742 11.5081 18.3854C11.5081 18.3203 11.4857 18.2138 11.4521 18.1487C11.4241 18.0836 11.3737 18.0303 11.3401 18.0303C11.3121 18.0303 11.3009 18.0658 11.3177 18.1072C11.3345 18.1428 11.3233 18.2375 11.2897 18.3144C11.2505 18.3914 11.1776 18.4446 11.1048 18.4446C11.032 18.4446 10.8976 18.3854 10.8024 18.3144C10.7016 18.2375 10.5671 18.0954 10.4943 18.0007C10.4215 17.906 10.3263 17.7935 10.2871 17.7639C10.2367 17.7284 10.2031 17.5863 10.2031 17.4088C10.1975 17.2489 10.2087 17.0477 10.2255 16.9648C10.2479 16.8819 10.3207 16.6688 10.5391 16.1657L10.5167 16.58C10.4999 16.8109 10.5167 17.0654 10.5503 17.1601C10.5895 17.2608 10.6568 17.32 10.724 17.32C10.8192 17.32 10.8304 17.2963 10.7968 17.1601C10.7688 17.0654 10.752 16.8109 10.752 16.58C10.752 16.3492 10.7912 16.0177 10.836 15.8283C10.9088 15.5323 10.9088 15.485 10.836 15.4021C10.7576 15.3133 10.7408 15.3133 10.64 15.408C10.5671 15.4731 10.5727 15.4554 10.6568 15.3666C10.7576 15.2482 10.8472 15.2127 11.1048 15.2008C11.2785 15.1949 11.4521 15.1594 11.4801 15.1298C11.5137 15.0943 11.4465 15.0528 11.2841 15.0114C11.144 14.9759 10.8472 14.893 10.6288 14.8279C10.4047 14.7687 10.0855 14.6444 9.92864 14.5615C9.76621 14.4728 9.45816 14.2715 9.24532 14.0998C9.03249 13.9341 8.79165 13.7032 8.70203 13.5908C8.61802 13.4783 8.44999 13.1705 8.33237 12.91C8.12514 12.4542 8.11954 12.4128 8.11954 11.815C8.11954 11.4716 8.13634 11.1224 8.16434 11.0336C8.18675 10.9389 8.27076 10.785 8.36038 10.6784C8.44439 10.5778 8.72444 10.341 8.98768 10.1575C9.25092 9.96812 9.61498 9.73726 9.79981 9.64255C9.98464 9.54192 10.4887 9.34066 10.92 9.19268C11.3513 9.0447 11.9562 8.87303 12.2642 8.80792C12.5723 8.74281 13.0652 8.65994 13.3564 8.62442C13.6476 8.5889 14.2021 8.53563 14.5886 8.50011C14.9751 8.4646 15.4791 8.4054 15.7088 8.36989Z" fill="#F2CC94"/>
<path d="M4.73098 15.5736C4.79819 15.6209 4.80379 15.5913 4.77018 15.3664C4.74778 15.1948 4.75338 15.1296 4.78699 15.1888C4.8374 15.2658 4.843 15.2658 4.843 15.1888C4.8486 15.1178 4.8598 15.1237 4.89901 15.2007C4.93261 15.2658 4.93261 15.3368 4.90461 15.3842C4.8766 15.4256 4.8822 15.5677 4.92141 15.7275C4.96062 15.8992 4.96062 15.9879 4.92701 15.9583C4.89901 15.9288 4.82059 15.8222 4.75898 15.7097C4.68617 15.5854 4.67497 15.5381 4.73098 15.5736Z" fill="#899519"/>
<path d="M8.65162 15.5677C8.70763 15.5913 8.81405 15.5203 8.95968 15.3664C9.07729 15.2362 9.18931 15.1296 9.20612 15.1296C9.22292 15.1296 9.15011 15.2184 9.05489 15.325C8.95407 15.4315 8.85886 15.5795 8.84766 15.6505C8.83085 15.7275 8.85886 15.8104 8.90927 15.8518C8.98208 15.9169 9.01008 15.911 9.04369 15.84C9.07169 15.7926 9.1277 15.7038 9.16691 15.6505C9.21732 15.5795 9.32934 15.544 9.54777 15.5381C9.7158 15.5322 9.90623 15.5558 9.96784 15.5795C10.0631 15.6269 10.0687 15.615 10.0351 15.5026C10.0126 15.4197 10.0182 15.3783 10.0519 15.396C10.0855 15.4138 10.1079 15.4493 10.1079 15.4848C10.1079 15.5203 10.0238 15.6505 9.92863 15.7808C9.82782 15.9169 9.66539 16.0471 9.57578 16.0827C9.48616 16.1123 9.32934 16.13 9.23972 16.1182C9.15011 16.1063 8.98208 16.0471 8.87566 15.9939C8.72444 15.9228 8.63482 15.911 8.4836 15.9583C8.37718 15.9939 8.19795 16.0175 8.09153 16.0175C7.98511 16.0175 7.78908 16.0708 7.66026 16.1359C7.52584 16.201 7.41942 16.2958 7.41942 16.3431C7.41942 16.3905 7.38021 16.4437 7.33541 16.4615C7.2906 16.4793 7.2626 16.5266 7.2738 16.568C7.285 16.6036 7.2682 16.6864 7.24579 16.7456C7.20099 16.8403 7.18418 16.8403 6.77532 16.5858L6.99935 16.8759L6.86493 16.7575C6.79772 16.6924 6.6745 16.5325 6.60729 16.4023C6.53448 16.2721 6.44486 16.0945 6.41686 16.0057C6.37765 15.8992 6.37765 15.8518 6.41126 15.8696C6.44486 15.8873 6.58488 15.834 6.73611 15.7571C6.88173 15.6801 7.10017 15.5854 7.22339 15.5499C7.34661 15.5144 7.58745 15.4848 7.75548 15.4789C7.9235 15.473 8.16434 15.4907 8.28756 15.5203C8.478 15.5618 8.5004 15.5558 8.45559 15.4789C8.41639 15.4197 8.42199 15.4078 8.47239 15.4434C8.506 15.467 8.5284 15.5026 8.5172 15.5322C8.5004 15.5558 8.54521 15.6091 8.61242 15.6565C8.73004 15.7334 8.73004 15.7334 8.65162 15.6387C8.57881 15.544 8.57881 15.5381 8.65162 15.5677Z" fill="#899519"/>
<path d="M8.84766 17.7638C8.93727 17.7401 9.0885 17.6572 9.17251 17.5803C9.26212 17.5033 9.39655 17.4382 9.46936 17.4382C9.57578 17.4382 9.60938 17.4737 9.63739 17.6335C9.65979 17.7598 9.64485 17.8368 9.59258 17.8644C9.55337 17.8881 9.46936 17.9117 9.40775 17.9177C9.34614 17.9236 9.20612 17.9413 9.0997 17.9473C8.99328 17.9591 8.85326 17.9295 8.79165 17.8881C8.68523 17.8111 8.68523 17.8052 8.84766 17.7638Z" fill="#899519"/>
<path d="M9.06055 15.3076C9.15576 15.1951 9.27898 15.0708 9.32379 15.0293C9.3686 14.9879 9.44701 14.9524 9.49182 14.9524C9.53663 14.9524 9.64304 14.9997 9.72706 15.0708C9.81667 15.1359 9.92309 15.272 9.9679 15.3667C10.0127 15.4615 10.0519 15.5562 10.0519 15.5739C10.0519 15.5917 10.0071 15.5858 9.95669 15.568C9.90069 15.5443 9.71586 15.5325 9.54783 15.5384C9.32939 15.5443 9.21737 15.5798 9.16696 15.6509C9.12776 15.7042 9.07175 15.7929 9.04374 15.8403C9.01014 15.9113 8.98213 15.9172 8.90932 15.8521C8.85331 15.8107 8.83091 15.7278 8.84771 15.645C8.86451 15.5739 8.95973 15.42 9.06055 15.3076Z" fill="#899519"/>
<path d="M7.24023 6.64145C7.31304 6.54674 7.43066 6.44611 7.49787 6.42243C7.55948 6.39875 7.69951 6.37507 7.79472 6.37507C7.89554 6.36916 7.97955 6.38099 7.97955 6.39875C7.97955 6.41651 7.88434 6.45795 7.76672 6.49346C7.6547 6.52898 7.47547 6.64145 7.37465 6.74799C7.26823 6.84862 7.15061 7.00253 7.10581 7.09724C7.061 7.18603 7.01619 7.25114 6.99939 7.24522C6.98259 7.23338 6.99939 7.13275 7.033 7.02029C7.0722 6.90782 7.16182 6.73616 7.24023 6.64145Z" fill="#231512"/>
<path d="M12.3371 6.99069C12.3315 6.94333 12.4043 6.86638 12.4939 6.81903C12.5835 6.77167 12.7347 6.73024 12.8243 6.73024C12.914 6.72432 13.026 6.74799 13.0708 6.77759C13.1156 6.80719 13.1324 6.87822 13.11 6.95517C13.0932 7.02029 13.0316 7.10316 12.9756 7.13275C12.9252 7.15643 12.7963 7.19787 12.6955 7.22154C12.5723 7.24522 12.4883 7.22746 12.4323 7.16827C12.3875 7.12091 12.3427 7.03804 12.3371 6.99069Z" fill="#231512"/>
<path d="M11.0713 7.31625C11.0825 7.19787 11.1441 7.15051 11.3681 7.06764C11.5193 7.01437 11.6986 6.96109 11.7602 6.96109C11.8218 6.96109 11.9002 6.99069 11.9394 7.03212C11.9954 7.09132 11.9898 7.13867 11.917 7.24522C11.8666 7.31625 11.7546 7.41688 11.665 7.46424C11.5809 7.51159 11.4409 7.55303 11.3513 7.55303C11.2673 7.55303 11.1665 7.52935 11.1273 7.50567C11.0881 7.482 11.0601 7.39912 11.0713 7.31625Z" fill="#231512"/>
<path d="M8.16438 14.8812C8.01316 14.5793 7.88994 14.2952 7.88434 14.2478C7.87313 14.1709 7.88434 14.1709 7.94595 14.2478C7.98515 14.2952 8.10277 14.5024 8.19799 14.7155C8.2988 14.9286 8.41642 15.1712 8.46123 15.266C8.50604 15.3547 8.51724 15.4258 8.48363 15.4258C8.45003 15.4258 8.31001 15.1772 8.16438 14.8812Z" fill="#231512"/>
<path d="M13.1268 17.7935C13.1604 17.6159 13.2948 17.2371 13.4236 16.953C13.5525 16.6629 13.6757 16.4321 13.7037 16.4321C13.7261 16.4321 13.7597 16.4735 13.7765 16.5209C13.7933 16.5682 13.8045 16.6452 13.8045 16.6866C13.8101 16.7221 13.6925 16.9471 13.5469 17.172C13.4012 17.4028 13.25 17.6751 13.2052 17.7817C13.166 17.8823 13.1324 18.0421 13.1268 18.1368C13.1268 18.2256 13.11 18.2612 13.0932 18.2079C13.0764 18.1605 13.0932 17.9711 13.1268 17.7935Z" fill="#231512"/>
<path d="M7.44185 12.8982C7.41944 12.839 7.35223 12.7443 7.28502 12.6851C7.1674 12.5786 7.1674 12.5786 7.30742 12.6496C7.38584 12.691 7.60427 12.8982 7.80031 13.1113C7.99634 13.3244 8.21477 13.6381 8.28759 13.798C8.3604 13.9637 8.45001 14.2715 8.48362 14.4964C8.51162 14.7155 8.57883 15.0055 8.62364 15.1476C8.66845 15.2837 8.70765 15.4435 8.70765 15.5027C8.70765 15.5856 8.69085 15.5915 8.59564 15.5323C8.53963 15.4909 8.50042 15.4435 8.51162 15.4258C8.52843 15.408 8.50042 15.3311 8.45561 15.2482C8.41641 15.1653 8.29879 14.9286 8.19797 14.7155C8.10276 14.5024 7.98514 14.2952 7.94593 14.2597C7.90112 14.2182 7.86752 14.2064 7.86752 14.2419C7.86752 14.2774 7.91792 14.3958 7.97953 14.5083C8.04114 14.6208 8.08035 14.7155 8.06355 14.7155C8.04675 14.7155 7.97393 14.603 7.90112 14.4668C7.82831 14.3248 7.64348 14.1058 7.49786 13.9696C7.34663 13.8335 7.12259 13.6737 6.99937 13.6085C6.87615 13.5434 6.70252 13.4665 6.43928 13.3954L6.77534 13.3126L6.63531 13.2415C6.49529 13.1764 6.49529 13.1764 6.66332 13.2001C6.75853 13.2179 6.89296 13.2475 6.97137 13.2652C7.07219 13.2889 7.05538 13.2711 6.91536 13.1942C6.80894 13.1409 6.59051 13.0936 6.42808 13.0936C6.27125 13.0876 6.12003 13.064 6.09202 13.0403C6.06962 13.0107 6.08642 12.9929 6.13123 12.9988C6.17604 13.0048 6.30486 13.0107 6.41128 13.0048C6.51769 13.0048 6.5849 12.9811 6.5569 12.9574C6.5345 12.9337 6.36647 12.8923 5.87919 12.8272L6.24325 12.8509C6.44488 12.8627 6.77534 12.9397 6.98817 13.0225C7.19541 13.1113 7.36903 13.1587 7.36903 13.135C7.37464 13.1054 7.37464 13.0699 7.36903 13.0462C7.36903 13.0166 7.38584 12.9988 7.41944 12.9988C7.45305 12.9988 7.45865 12.9515 7.44185 12.8982Z" fill="#B96B23"/>
<path d="M18.2292 13.135C18.0892 13.1172 17.938 13.0817 17.8932 13.0521C17.8316 13.0166 17.8596 13.0048 17.9772 13.0048C18.0668 13.0048 18.2236 13.0403 18.3132 13.0876C18.4813 13.1705 18.4813 13.1705 18.2292 13.135Z" fill="#B96B23"/>
<path d="M17.4451 14.9522C17.5067 14.9522 17.7811 14.7273 18.0892 14.4195C18.3804 14.1294 18.6325 13.8867 18.6493 13.8867C18.6661 13.8867 18.6437 13.9519 18.5933 14.0347C18.5205 14.165 18.5205 14.1827 18.5933 14.1827C18.6381 14.1827 18.6773 14.2064 18.6773 14.2419C18.6773 14.2774 18.5317 14.4254 18.358 14.5734C18.1788 14.7273 17.8596 14.9404 17.6411 15.0469C17.4227 15.1594 17.2435 15.2304 17.2379 15.2186C17.2267 15.2008 17.2435 15.1357 17.2771 15.0706C17.3107 15.0055 17.3835 14.9522 17.4451 14.9522Z" fill="#B96B23"/>
<path d="M8.77487 14.8753C8.73006 14.5438 8.68525 14.2301 8.66845 14.1827C8.64604 14.1235 8.69645 14.1354 8.82527 14.2301C8.93169 14.307 9.33496 14.532 10.4439 15.1002L10.1359 15.5383L10.0519 15.3843C10.0071 15.3015 9.90065 15.1713 9.81104 15.0943C9.72702 15.0173 9.5982 14.9522 9.51979 14.9522C9.43017 14.9522 9.27895 15.0469 8.84768 15.4791L8.77487 14.8753Z" fill="#B96B23"/>
<path d="M6.08642 15.3962C6.05842 15.3015 6.01361 15.1653 5.99681 15.1002C5.9744 15.0351 6.05842 15.2068 6.18724 15.485C6.31046 15.7632 6.41688 16 6.41688 16.0177C6.41688 16.0355 6.37767 16.0059 6.32726 15.9585C6.27685 15.9112 6.23765 15.8283 6.24325 15.7809C6.24325 15.7336 6.22084 15.6685 6.19844 15.633C6.17044 15.5974 6.12003 15.4909 6.08642 15.3962Z" fill="#B96B23"/>
<path d="M4.92143 15.7277C4.88222 15.5797 4.87102 15.4317 4.88222 15.408C4.89903 15.3843 4.98304 15.4672 5.07266 15.6034C5.16227 15.7336 5.3527 15.923 5.49833 16.0177C5.66075 16.1243 5.83998 16.1953 5.9464 16.1953C6.08642 16.1953 6.13123 16.1716 6.13123 16.0947C6.13123 16.0355 6.08082 15.8697 6.01921 15.7218C5.9576 15.5738 5.91279 15.4495 5.9184 15.4376C5.9296 15.4317 6.00241 15.5797 6.08642 15.7632C6.17044 15.9526 6.24325 16.1479 6.24325 16.1953C6.24325 16.2427 6.35527 16.4084 6.49529 16.5682C6.63531 16.7221 6.74733 16.8701 6.74733 16.9056C6.74733 16.9411 6.68012 16.9826 6.59051 17.0003C6.50649 17.024 6.31606 17.0003 6.15923 16.9471C6.00241 16.8938 5.76717 16.7695 5.62715 16.6748C5.48712 16.5801 5.3135 16.438 5.23508 16.361C5.15667 16.2841 5.03345 16.142 4.95504 16.0473C4.87662 15.9526 4.85422 15.9053 4.89903 15.9408C4.97184 15.994 4.97744 15.9704 4.92143 15.7277Z" fill="#B96B23"/>
<path d="M10.556 16.8168C10.556 16.657 10.584 16.4202 10.612 16.3018C10.6456 16.1775 10.6792 16.0769 10.6848 16.0769C10.6904 16.0769 10.6848 16.2723 10.6736 16.509C10.6624 16.7517 10.6792 16.9885 10.7184 17.0714C10.752 17.1424 10.7688 17.2194 10.752 17.2489C10.7408 17.2726 10.6848 17.2489 10.64 17.2016C10.5784 17.1424 10.5504 17.0122 10.556 16.8168Z" fill="#B96B23"/>
<path d="M5.90719 12.318C5.94079 12.3358 5.9632 12.324 5.9632 12.2884C5.9632 12.2529 6.05281 12.2292 6.15923 12.2292C6.27125 12.2292 6.34406 12.2529 6.32726 12.2884C6.31046 12.324 6.36086 12.3713 6.43928 12.4068C6.51769 12.4423 6.63531 12.466 6.70252 12.466C6.77533 12.466 6.93216 12.5193 7.05538 12.5785C7.2066 12.6614 7.29622 12.7502 7.32422 12.8626C7.35223 12.9751 7.34663 13.0402 7.29622 13.0639C7.25701 13.0876 7.03858 13.0402 6.82014 12.9632C6.5737 12.8745 6.27685 12.8212 6.07522 12.8212C5.89039 12.8212 5.73916 12.7975 5.73916 12.762C5.73916 12.7265 5.65515 12.7383 5.54313 12.7916C5.43671 12.8389 5.33589 12.8804 5.31909 12.8804C5.30229 12.8804 5.29109 12.8389 5.29109 12.7916C5.29109 12.7442 5.3695 12.6436 5.46472 12.5667C5.55993 12.4956 5.66075 12.4423 5.68875 12.4542C5.71676 12.4601 5.73916 12.4423 5.73916 12.4068C5.73916 12.3713 5.76156 12.3595 5.79517 12.3772C5.82878 12.395 5.85118 12.3832 5.85118 12.3476C5.85118 12.3121 5.87358 12.3003 5.90719 12.318Z" fill="#B96B23"/>
<path d="M6.77533 13.1941C6.65211 13.1763 6.50089 13.1408 6.43928 13.1112C6.33846 13.0698 6.34406 13.0639 6.46728 13.0639C6.54569 13.0639 6.69692 13.1053 6.99937 13.2296L6.77533 13.1941Z" fill="#B96B23"/>
<path d="M4.7814 13.419C4.83181 13.3421 4.94383 13.2415 5.03905 13.1941C5.13986 13.1467 5.29669 13.1349 5.43111 13.1527C5.55433 13.1763 5.67195 13.2237 5.68875 13.2592C5.71116 13.2947 5.75036 13.3066 5.77277 13.2888C5.80077 13.2651 5.9744 13.2829 6.15923 13.3243C6.34406 13.3717 6.5849 13.4309 6.69132 13.4664C6.79774 13.5078 6.98817 13.5966 7.11139 13.6736C7.23461 13.7505 7.45304 13.9281 7.59307 14.0702C7.75549 14.2359 7.94592 14.5378 8.3996 15.479H7.95153C7.70509 15.4731 7.39143 15.5086 7.25141 15.5441C7.11139 15.5855 6.87055 15.6802 6.71932 15.7631C6.5625 15.8401 6.42247 15.8874 6.40567 15.8578C6.38887 15.8341 6.17043 15.3843 5.91839 14.8634C5.67195 14.3425 5.41991 13.8038 5.3639 13.6677C5.30789 13.5315 5.24628 13.4309 5.21828 13.4427C5.19587 13.4605 5.19587 13.5433 5.21267 13.6321C5.22948 13.7268 5.30789 13.9577 5.3751 14.153C5.44791 14.3484 5.64954 14.8456 5.81757 15.2599L5.81757 15.26C5.9912 15.6802 6.13123 16.0591 6.13123 16.1064C6.13123 16.1656 6.07522 16.1952 5.9464 16.1952C5.84558 16.1952 5.66075 16.1242 5.51512 16.0295C5.3751 15.9407 5.20707 15.7868 5.13986 15.6921C5.07265 15.5914 4.98304 15.4079 4.93263 15.2777C4.88222 15.1297 4.84861 15.0883 4.84861 15.1593C4.84301 15.26 4.83181 15.26 4.787 15.1889C4.7534 15.1297 4.7478 15.1889 4.7702 15.3665C4.79261 15.55 4.7814 15.6151 4.7422 15.5737C4.71419 15.5382 4.64698 15.3902 4.59657 15.2304C4.54616 15.0765 4.50696 14.7746 4.50696 14.5556C4.50696 14.3306 4.54616 14.0169 4.60217 13.8571C4.65258 13.6913 4.73099 13.496 4.7814 13.419Z" fill="#B96B23"/>
<path d="M17.5403 11.5484C17.5291 11.6786 17.5179 11.6017 17.5179 11.3708C17.5179 11.14 17.5291 11.0394 17.5403 11.1341C17.5515 11.2288 17.5515 11.4182 17.5403 11.5484Z" fill="#C6B48E"/>
<path d="M11.1273 15.1C11.2729 15.1 11.3737 15.0823 11.3625 15.0586C11.3513 15.029 11.3793 15.029 11.4241 15.0586C11.4745 15.0823 11.4913 15.1178 11.4689 15.1415C11.4465 15.1651 11.2841 15.1947 11.1161 15.2066C10.8976 15.2303 10.8192 15.2184 10.8416 15.1651C10.8584 15.1296 10.9872 15.1 11.1273 15.1Z" fill="#C6B48E"/>
<path d="M10.2031 15.8696C10.2535 15.7748 10.3599 15.6091 10.4552 15.5085C10.5448 15.4019 10.6512 15.325 10.696 15.3309C10.7352 15.3309 10.8024 15.3605 10.836 15.396C10.8752 15.4315 10.8864 15.544 10.8696 15.6801C10.8528 15.7985 10.8136 15.8873 10.78 15.8696C10.7464 15.8518 10.7128 15.8932 10.696 15.9583C10.6792 16.0235 10.6456 16.0767 10.612 16.0767C10.5784 16.0767 10.5728 16.1241 10.5952 16.1833C10.6232 16.2543 10.6176 16.2721 10.5672 16.2425C10.5224 16.207 10.4608 16.2957 10.3823 16.5088C10.3151 16.6746 10.2479 16.8818 10.2311 16.9646C10.2087 17.0475 10.1919 17.2369 10.1919 17.3849C10.1919 17.6098 10.2199 17.6927 10.3543 17.8289C10.4384 17.9236 10.5448 18.0716 10.5896 18.1663C10.6344 18.2551 10.6792 18.3261 10.696 18.3261C10.7128 18.3261 10.7072 18.2906 10.6848 18.2551C10.6549 18.2038 10.6643 18.1939 10.7128 18.2255C10.7464 18.2491 10.7688 18.2965 10.752 18.3261C10.7352 18.3557 10.78 18.3853 10.8472 18.3912C10.9704 18.3912 10.9704 18.3971 10.864 18.4386C10.7912 18.4682 10.6904 18.4445 10.5616 18.3616C10.4552 18.2906 10.2983 18.1426 10.2143 18.0301C10.1303 17.9177 10.0295 17.7401 9.99588 17.6454C9.95667 17.5507 9.91747 17.3198 9.90627 17.1422C9.88946 16.9173 9.91747 16.6983 10.0015 16.4319C10.0687 16.2188 10.1583 15.9643 10.2031 15.8696Z" fill="#C6B48E"/>
<path d="M7.71066 16.858C7.71626 16.7692 7.73306 16.6745 7.74986 16.6449C7.76667 16.6212 7.80027 16.633 7.81707 16.6745C7.83948 16.7218 7.84508 16.8165 7.83388 16.8876C7.82267 16.9645 7.78907 17.0237 7.75546 17.0237C7.72186 17.0237 7.70506 16.9527 7.71066 16.858Z" fill="#515647"/>
<path d="M13.3452 13.9283C13.3396 13.8513 13.3676 13.7626 13.4124 13.7211C13.4572 13.6797 13.5188 13.656 13.5468 13.6678C13.5804 13.6797 13.614 13.7507 13.6252 13.8336C13.6364 13.9105 13.6084 14.0112 13.558 14.0526C13.5076 14.0881 13.446 14.1118 13.4124 14.094C13.3788 14.0763 13.3508 14.0052 13.3452 13.9283Z" fill="#FBEDCE"/>
<path d="M13.2892 13.9163C13.2836 13.8452 13.3116 13.7624 13.3564 13.7209C13.4012 13.6795 13.446 13.6499 13.4629 13.6499C13.4797 13.6499 13.4629 13.6854 13.4236 13.7269C13.3844 13.7624 13.3564 13.8571 13.3564 13.934C13.3564 14.0051 13.3788 14.0761 13.4124 14.0939C13.446 14.1116 13.5077 14.0879 13.5525 14.0524C13.6253 13.9932 13.6421 13.9932 13.6365 14.0524C13.6365 14.0879 13.5973 14.1353 13.5525 14.153C13.5077 14.1708 13.4292 14.1471 13.3844 14.1116C13.334 14.0702 13.2892 13.9814 13.2892 13.9163Z" fill="#EFDAB3"/>
<path d="M15.0759 9.28157C15.0927 9.2283 15.1319 9.14543 15.1655 9.10991V9.10399C15.1935 9.06848 15.272 9.03296 15.3392 9.03296C15.4008 9.03296 15.5016 9.08031 15.5576 9.13951C15.6136 9.19278 15.6584 9.25789 15.6528 9.28157C15.6528 9.31117 15.5688 9.32301 15.468 9.31709C15.3728 9.31117 15.2327 9.32893 15.1599 9.34669C15.0591 9.3822 15.0423 9.37036 15.0759 9.28157Z" fill="#231512"/>
<path d="M10.5112 10.1636C10.5504 10.057 10.6624 9.91494 10.752 9.85575C10.8416 9.79656 10.9368 9.7492 10.9592 9.7492C10.9872 9.7492 11.0713 9.78472 11.1553 9.83207C11.2449 9.87351 11.3625 9.98598 11.4241 10.0807C11.5137 10.2168 11.5361 10.3471 11.5361 10.7259C11.5305 10.9863 11.5137 11.2646 11.4913 11.3474C11.4689 11.4421 11.3625 11.5487 10.9536 11.7914L10.7408 11.6079C10.6176 11.5013 10.4944 11.3297 10.4552 11.1935C10.4104 11.0515 10.3935 10.8443 10.4104 10.6667C10.4272 10.501 10.472 10.276 10.5112 10.1636Z" fill="#231512"/>
<path d="M15.0031 10.3234C15.0199 10.205 15.0983 10.0393 15.1767 9.95638C15.2664 9.85575 15.3728 9.8084 15.496 9.8084C15.5968 9.8084 15.7312 9.84391 15.7928 9.89127C15.8544 9.93862 15.8881 9.99782 15.8657 10.0274C15.8432 10.0511 15.8488 10.1221 15.8769 10.1754C15.9105 10.2346 15.9609 10.2642 15.9945 10.2346C16.0281 10.2109 16.0785 10.2346 16.1065 10.2819C16.1345 10.3293 16.1569 10.5306 16.1569 10.7259C16.1569 10.9508 16.1177 11.158 16.0561 11.2823C16.0057 11.3948 15.8713 11.5368 15.7648 11.602C15.6341 11.6809 15.5221 11.7065 15.4288 11.6789C15.3504 11.6612 15.2271 11.5842 15.1487 11.5191C15.0311 11.4125 15.0031 11.3297 14.9863 10.9686C14.9751 10.7377 14.9807 10.4477 15.0031 10.3234Z" fill="#231512"/>
<path d="M11.4969 12.5905C11.3793 12.4425 11.2785 12.2768 11.2841 12.2176C11.2841 12.1643 11.3009 12.1169 11.3233 12.1169C11.3513 12.1229 11.4633 12.2294 11.5753 12.3537C11.6986 12.4899 11.9786 12.6852 12.2195 12.8095C12.6507 13.0285 12.6675 13.0344 14.0005 13.0344L14.4206 12.7918C14.7343 12.6142 14.8687 12.5017 14.9527 12.336C15.0143 12.2117 15.1095 12.1169 15.1599 12.1169C15.2159 12.1169 15.2608 12.1525 15.2608 12.188C15.2608 12.2294 15.1935 12.3715 15.1039 12.5017C15.0143 12.6319 14.8519 12.8273 14.7399 12.9279C14.6278 13.0344 14.3758 13.2061 14.1798 13.3067C13.9389 13.437 13.7261 13.5021 13.4685 13.5198C13.1716 13.5435 13.026 13.5198 12.6843 13.3896C12.4547 13.3067 12.141 13.1528 11.9898 13.0463C11.8386 12.9397 11.6146 12.7385 11.4969 12.5905Z" fill="#231512"/>
<path d="M17.8092 14.7747C17.8708 14.7037 18.022 14.5676 18.1452 14.4729C18.3021 14.3485 18.3749 14.3249 18.3917 14.3781C18.4029 14.4196 18.3525 14.5025 18.2796 14.5616C18.2068 14.6208 18.0668 14.7215 17.9772 14.7866C17.8876 14.8458 17.7812 14.899 17.7532 14.899C17.7196 14.899 17.7476 14.8458 17.8092 14.7747Z" fill="#231512"/>
<path d="M6.73611 14.7332C6.6521 14.6266 6.57928 14.5141 6.57928 14.4786C6.57928 14.4431 6.60169 14.4194 6.63529 14.4194C6.6689 14.4194 6.75291 14.5082 6.82573 14.6089C6.90414 14.7154 6.94895 14.8279 6.93214 14.8634C6.91534 14.8989 6.82573 14.8338 6.73611 14.7332Z" fill="#472015"/>
<path d="M10.9872 10.3175C10.92 10.3293 10.892 10.2997 10.8976 10.2109C10.9013 10.132 10.9331 10.0984 10.9928 10.1103C11.0488 10.1221 11.088 10.1695 11.088 10.2168C11.088 10.2642 11.0432 10.3115 10.9872 10.3175Z" fill="#FBEDCE"/>
<path d="M15.4848 10.3648C15.44 10.3648 15.3951 10.3056 15.3895 10.2287C15.3783 10.1221 15.4007 10.0925 15.4736 10.1103C15.524 10.1221 15.5688 10.1813 15.5688 10.2464C15.5688 10.3115 15.5296 10.3648 15.4848 10.3648Z" fill="#FBEDCE"/>
<ellipse cx="0.552107" cy="0.301489" rx="0.552107" ry="0.301489" transform="matrix(0.974053 -0.22632 0.203615 0.979051 9.48788 12.0593)" fill="#FC9D97"/>
<ellipse cx="0.488952" cy="0.294431" rx="0.488952" ry="0.294431" transform="matrix(0.984727 0.174108 -0.156313 0.987708 15.9565 11.7283)" fill="#FC9D97"/>
<path d="M7.39569 19.7703H17.8566V19.7703C17.8566 20.7473 17.0645 21.5394 16.0874 21.5394H7.39569V19.7703Z" fill="#EFDAB3"/>
</svg>
