<svg width="136" height="128" viewBox="0 0 136 128" fill="none" xmlns="http://www.w3.org/2000/svg">
<path d="M55.3737 7.52672C57.5636 7.08766 60.5471 6.61723 62.0388 6.49179C63.5305 6.33498 65.657 6.20953 66.7996 6.20953C67.9422 6.17817 70.513 6.27225 72.5125 6.42906C74.512 6.58587 77.7176 7.02493 79.6537 7.40127C81.5897 7.77761 84.6366 8.59302 86.4775 9.15753C88.3183 9.7534 91.3652 11.0079 93.3013 11.9174C95.2373 12.8268 98.2842 14.5831 100.125 15.7748C101.966 16.9979 104.664 19.0365 106.155 20.3223C107.647 21.6081 109.71 23.6466 110.789 24.8384C111.868 26.0301 113.614 28.1941 114.725 29.6681C115.804 31.1421 117.454 33.6196 118.375 35.1564C119.295 36.6931 120.723 39.4215 121.517 41.2092C122.31 42.9654 123.453 46.0075 124.056 47.9519C124.659 49.865 125.357 53.0952 125.611 55.071C125.897 57.0468 126.214 59.9634 126.309 61.5002C126.436 63.0369 126.373 66.3612 126.182 68.8702C125.928 72.1318 125.548 74.6093 124.754 77.6514C124.183 79.9722 123.009 83.5161 122.183 85.4918C121.39 87.4676 120.184 90.0079 119.581 91.1369C118.946 92.266 117.55 94.4299 116.502 95.9666C115.423 97.5347 113.138 100.263 111.392 102.051C109.647 103.87 107.139 106.222 105.838 107.288C104.537 108.355 102.378 109.923 101.077 110.801C99.7759 111.679 97.2051 113.153 95.3643 114.125C93.5234 115.066 90.667 116.383 89.0166 117.042C87.3661 117.669 84.5732 118.61 82.8275 119.112C81.0819 119.613 78.3524 120.209 76.7972 120.46C75.242 120.742 72.2269 121.025 70.1321 121.119C68.0056 121.244 64.5779 121.15 62.3562 120.962C60.1662 120.774 57.0241 120.303 55.3737 119.958C53.7233 119.645 50.6446 118.767 48.5499 118.077C46.4551 117.355 43.1861 115.975 41.25 115.003C39.314 114.031 36.2036 112.181 34.2675 110.895C32.3632 109.609 29.2528 107.069 27.3485 105.25C25.4442 103.431 23.0004 100.89 21.953 99.6046C20.9056 98.3188 19.1917 95.998 18.1761 94.4299C17.1287 92.8618 15.6053 90.1961 14.7483 88.4712C13.8914 86.7463 12.5901 83.5788 11.8601 81.4148C11.1301 79.2509 10.2732 76.0833 9.92407 74.3585C9.57494 72.5395 9.25756 68.9956 9.1306 65.8908C9.03539 62.5037 9.09887 59.3362 9.32104 57.2663C9.54321 55.4474 9.98755 52.6875 10.3684 51.1508C10.7175 49.6141 11.511 46.917 12.114 45.1921C12.7171 43.4672 13.8914 40.7074 14.7483 39.0766C15.5735 37.4458 16.8431 35.125 17.6048 33.9019C18.3665 32.6788 19.8265 30.5776 20.9056 29.1976C21.953 27.8177 23.9843 25.497 25.3807 24.0543C26.7772 22.6117 29.0624 20.4791 30.4589 19.3187C31.8554 18.1583 34.4262 16.2766 36.1719 15.1476C37.9175 14.0186 40.7105 12.4505 42.3609 11.6978C44.0113 10.9138 46.7408 9.84748 48.3912 9.31434C50.0416 8.74983 53.1837 7.96578 55.3737 7.52672Z" fill="#EFDAB3"/>
<path d="M1.16423 97.7229C1.54509 97.472 2.56072 96.8761 3.4494 96.4057C4.33808 95.9353 5.2585 95.5589 5.44893 95.5276C5.6711 95.5276 5.98849 95.8726 6.17892 96.3116C6.33761 96.7507 6.4963 97.9424 6.4963 98.9774C6.4963 100.734 6.43283 100.859 5.76632 100.859C5.38545 100.859 4.27461 100.64 3.32245 100.389C2.37029 100.138 1.19596 99.9182 0.688148 99.9182C0.0851154 99.9182 -0.105316 99.7928 0.0533768 99.5419C0.180331 99.3223 0.339024 98.9146 0.370762 98.6637C0.43424 98.4129 0.783364 97.9738 1.16423 97.7229Z" fill="#EFDAB3"/>
<path d="M133.26 99.2283C133.165 98.8206 133.006 98.1933 132.911 97.817C132.816 97.4093 132.848 97.0957 133.006 97.0957C133.165 97.0957 133.927 97.6915 134.72 98.3815C135.514 99.0714 136.085 99.6987 135.99 99.7614C135.894 99.8241 135.037 99.9496 134.085 100.044C133.133 100.138 132.594 100.138 132.911 100.075C133.292 99.9496 133.387 99.73 133.26 99.2283Z" fill="#EFDAB3"/>
<path d="M3.32245 109.954C3.51288 109.609 4.49677 108.417 5.57589 107.288C6.655 106.159 7.57542 105.25 7.63889 105.25C7.70237 105.25 7.70237 105.501 7.67063 105.814C7.60715 106.096 7.73411 106.724 7.98802 107.225C8.40062 108.072 8.40062 108.072 6.43283 109.044C5.32198 109.609 4.11591 110.173 3.73505 110.299C3.06854 110.55 3.0368 110.518 3.32245 109.954Z" fill="#EFDAB3"/>
<path d="M128.69 108.072C129.229 107.539 129.261 107.32 128.975 106.598L128.658 105.72L129.451 106.504C129.896 106.943 130.15 107.445 130.023 107.602C129.896 107.79 129.959 107.821 130.118 107.696C130.308 107.57 130.721 107.853 131.102 108.323C131.483 108.794 131.864 109.484 131.959 109.891C132.086 110.268 132.086 110.55 131.927 110.487C131.8 110.424 130.88 110.017 128.055 108.699L128.69 108.072Z" fill="#EFDAB3"/>
<path d="M53.1521 1.56796C55.1516 1.09753 58.2937 0.533024 60.1345 0.313493C62.261 0.0625994 65.7205 -0.0628473 69.6561 0.0312377C74.9564 0.125323 76.5116 0.282131 80.6059 1.09753C83.2085 1.59932 86.7949 2.50881 88.5406 3.10468C90.2862 3.70055 92.5079 4.4846 93.46 4.86094C94.4122 5.23728 96.5704 6.27221 98.2208 7.15034C99.8712 8.02846 102.379 9.4711 103.775 10.3492C105.172 11.2587 107.806 13.2659 109.647 14.8339C111.488 16.402 113.836 18.6601 114.915 19.8518C115.963 21.0122 117.772 23.1762 118.914 24.6502C120.057 26.1241 121.549 28.2254 122.247 29.3544C122.945 30.4834 124.469 33.2432 125.611 35.4699C126.754 37.6966 128.214 41.0209 128.785 42.8399C129.388 44.6589 130.182 47.4814 130.562 49.1123C130.912 50.7431 131.419 53.7851 131.705 55.855C131.991 58.019 132.245 61.9078 132.245 64.9499C132.245 67.8979 132.086 71.6927 131.864 73.4175C131.673 75.1424 131.197 77.8395 130.88 79.3763C130.531 80.913 129.991 83.1397 129.642 84.3C129.293 85.4918 128.912 86.4326 128.753 86.4326C128.626 86.4326 128.309 86.9031 127.992 87.4362C127.706 88.0007 127.484 88.9102 127.484 89.412C127.516 89.9138 127.135 91.1369 126.69 92.0777C126.214 93.0186 125.865 93.834 125.929 93.834C125.96 93.8654 126.912 94.1789 128.055 94.5551L128.055 94.5553C129.198 94.9317 130.753 95.5589 131.515 95.9352C132.625 96.4997 132.911 96.8134 132.975 97.566C133.006 98.0678 133.133 98.8205 133.26 99.1968C133.387 99.7614 133.324 99.9182 132.879 99.9495C132.435 99.9495 132.435 100.012 132.975 100.232C133.546 100.483 133.546 100.514 132.816 100.514C132.372 100.545 130.499 100.922 128.595 101.392C126.722 101.894 125.167 102.333 125.167 102.427C125.167 102.521 125.929 103.18 126.849 103.901C127.769 104.622 128.975 105.689 129.483 106.253C130.404 107.257 130.404 107.257 128.658 105.72L128.975 106.567C129.261 107.32 129.229 107.539 128.69 108.072C128.341 108.417 128.15 108.794 128.277 108.888C128.436 108.982 128.277 108.982 127.96 108.888C127.642 108.762 127.516 108.543 127.642 108.323C127.812 108.051 127.738 107.978 127.42 108.104C127.166 108.229 125.643 107.978 124.088 107.57C122.533 107.163 120.565 106.849 119.708 106.849C118.883 106.818 118.248 106.724 118.311 106.567C118.343 106.441 119.105 104.936 119.993 103.211C120.882 101.486 122.818 97.5974 124.246 94.5867C125.706 91.576 127.357 87.6871 127.96 85.9622C128.563 84.2373 129.388 81.1325 129.801 79.0627C130.213 76.9928 130.721 73.7625 130.88 71.8495C131.07 69.9364 131.229 67.0511 131.229 65.4203C131.229 63.7895 131.07 60.7474 130.88 58.6776C130.689 56.6077 130.213 53.2206 129.801 51.1508C129.388 49.0809 128.372 45.4743 127.579 43.1535C126.754 40.8328 125.23 37.2889 124.183 35.3131C123.136 33.3373 121.39 30.358 120.311 28.7272C119.232 27.0964 117.518 24.7756 116.502 23.5525C115.455 22.3294 113.614 20.3222 112.376 19.0678C111.138 17.7819 109.044 15.9002 107.742 14.8339C106.441 13.7677 104.061 12.1055 102.506 11.1019C100.95 10.0983 97.9352 8.43617 95.8404 7.40123C93.7457 6.3663 90.2862 4.98638 88.128 4.26506C86.0015 3.57511 82.2881 2.63426 79.8759 2.19519C76.9242 1.66204 73.9091 1.34843 70.4496 1.22298C67.4661 1.1289 63.8162 1.19162 61.5628 1.41115C59.468 1.63068 56.0403 2.16383 53.9455 2.60289C51.8508 3.04196 48.3595 4.01417 46.1696 4.79821C43.9796 5.58225 40.4249 7.11898 38.2349 8.21663C36.045 9.34565 32.9663 11.1646 31.4111 12.2623C29.8559 13.3913 27.4756 15.2416 26.1743 16.402C24.873 17.5311 22.4609 19.9145 20.8422 21.6394C19.2235 23.3957 17.1288 25.8733 16.2084 27.1591C15.2562 28.4449 13.701 30.797 12.7489 32.3338C11.8284 33.8705 10.4002 36.6303 9.60675 38.4493C8.78154 40.2683 7.60722 43.3731 6.97245 45.3489C6.36941 47.3246 5.54421 50.4922 5.19509 52.4052C4.71901 54.8514 4.4651 57.674 4.36989 62.1273C4.24293 66.0789 4.33815 69.6228 4.59206 71.6927C4.78249 73.5116 5.22683 76.3342 5.57595 77.965C5.92507 79.5958 6.55985 82.0734 7.00419 83.4533C7.48026 84.8332 8.55938 87.6558 9.41632 89.7256C10.305 91.7955 11.1302 93.6458 11.2572 93.8026C11.4158 93.9594 11.765 94.8062 12.0506 95.6843C12.3363 96.5311 13.6375 99.2909 14.9388 101.8C16.2401 104.309 17.2557 106.379 17.224 106.41C17.1605 106.441 16.0497 106.63 14.7484 106.818C13.4471 106.975 11.3524 107.414 10.1463 107.759C8.94024 108.135 8.01982 108.292 8.14677 108.166C8.27373 108.041 8.21025 107.57 7.95634 107.131C7.73417 106.692 7.60722 106.065 7.70243 105.72C7.79765 105.25 7.41679 105.469 6.2742 106.504L6.22882 106.546C4.90886 107.759 4.88873 107.778 5.8616 106.692C6.46463 106.034 7.79765 104.811 10.6224 102.427L8.30547 101.769C7.06766 101.424 5.8616 101.079 5.7029 101.016C5.54421 100.953 5.63943 100.89 5.92507 100.89C6.40115 100.859 6.49637 100.545 6.49637 98.8832C6.49637 97.8169 6.30594 96.5938 6.05203 96.1548C5.63943 95.3707 5.63943 95.3707 7.82939 94.6494C9.00372 94.2731 9.98761 93.8026 9.98761 93.6458C9.98761 93.489 9.60675 92.5795 9.13067 91.67C8.68633 90.7919 7.6707 88.1889 6.90897 85.9622C6.14724 83.7355 5.16335 80.4112 4.71901 78.5922C4.27467 76.7733 3.73511 73.888 3.48121 72.1631C3.2273 70.4382 3.00513 66.7062 3.00513 63.8522C3.00513 60.9356 3.19556 57.3604 3.44947 55.6982C3.70338 54.0674 4.33815 51.0253 4.84596 48.9554C5.38552 46.8856 6.17898 44.063 6.65506 42.6831C7.13114 41.3032 8.27373 38.6375 9.16241 36.7244C10.0828 34.8113 11.638 31.9888 12.5902 30.4521C13.5741 28.9153 15.3514 26.3437 16.5575 24.807C17.7636 23.2702 20.3979 20.3536 22.3974 18.3465C24.3969 16.3393 27.3803 13.7049 29.0307 12.4818C30.6812 11.2901 33.6011 9.40838 35.5372 8.31072C37.4732 7.21306 40.171 5.86451 41.5675 5.26864C42.964 4.67277 45.3126 3.79464 46.8043 3.29285C48.2961 2.79106 51.1525 2.00702 53.1521 1.56796Z" fill="#EFDAB3"/>
<path d="M19.7631 105.783C18.7475 104.466 17.9223 103.305 17.954 103.211C17.954 103.117 18.3983 103.556 18.9696 104.215C19.5092 104.873 20.6518 106.159 21.5404 107.1C22.4291 108.009 24.873 110.142 26.9677 111.804C29.0625 113.466 31.8555 115.474 33.1568 116.289C34.458 117.104 37.3145 118.61 39.5045 119.613C41.6944 120.648 44.9635 121.965 46.8043 122.593C48.6452 123.189 51.7873 124.035 53.7868 124.474C55.7864 124.913 58.9285 125.447 60.7693 125.666C62.8641 125.886 66.2283 125.98 69.8148 125.854C73.5282 125.729 76.7338 125.447 79.019 125.007C80.955 124.663 84.0019 123.878 85.8428 123.283C87.6836 122.687 90.1592 121.84 91.397 121.401C92.6348 120.962 94.9835 119.896 96.6339 119.08C98.2843 118.265 100.855 116.791 102.347 115.85C103.839 114.909 106.187 113.341 107.584 112.369C108.98 111.365 110.186 110.675 110.281 110.769C110.377 110.863 109.742 111.585 108.853 112.369C107.996 113.121 105.711 114.784 103.775 116.069C101.839 117.324 98.8238 119.08 97.0147 119.958C95.2374 120.836 92.6666 121.997 91.3335 122.53C89.9688 123.063 87.1441 123.973 85.0493 124.537C82.9546 125.102 79.5903 125.823 77.5907 126.137C74.9564 126.513 72.0682 126.67 67.2757 126.67C62.5149 126.67 59.6902 126.544 57.4368 126.168C55.6911 125.886 52.6125 125.227 50.613 124.757C48.6134 124.255 45.027 123.094 42.6783 122.154C40.3297 121.213 36.9019 119.613 35.0611 118.578C33.2202 117.512 30.8716 116.038 29.8242 115.285C28.7768 114.533 26.8408 112.996 25.5395 111.867C24.2382 110.738 22.81 109.483 22.3974 109.044C21.9848 108.574 20.7787 107.131 19.7631 105.783Z" fill="#EFDAB3"/>
<path d="M2.90967 65.2632C2.84619 66.1414 2.81445 65.4828 2.81445 63.852C2.81445 62.2212 2.84619 61.4998 2.90967 62.2839C2.97315 63.0679 2.97315 64.3851 2.90967 65.2632Z" fill="#EFDAB3"/>
<path d="M131.133 67.7722C131.102 68.9953 131.038 67.929 131.038 65.4201C131.038 62.9111 131.102 61.9389 131.133 63.2247C131.197 64.5106 131.197 66.5491 131.133 67.7722Z" fill="#EFDAB3"/>
<path d="M128.087 87.3732C128.309 86.9342 128.626 86.4324 128.785 86.2442C128.975 86.0247 129.134 85.8992 129.134 85.9306C129.166 85.9933 128.88 86.8401 128.499 87.875C128.118 88.8786 127.769 89.5999 127.674 89.4117C127.579 89.2236 127.42 88.659 127.293 88.1573C127.145 87.53 127.177 87.3732 127.388 87.6868C127.61 88.0632 127.737 88.0318 128.087 87.3732Z" fill="#EFDAB3"/>
<path d="M107.742 105.877C107.647 105.877 108.663 104.81 109.964 103.524C111.265 102.239 112.408 101.172 112.471 101.172C112.566 101.172 111.582 102.239 110.281 103.524C108.98 104.81 107.837 105.877 107.742 105.877Z" fill="#EFDAB3"/>
<path d="M19.6994 105.783C19.5407 105.939 19.5089 105.877 19.6359 105.626C19.7628 105.438 19.9215 105.249 20.0168 105.249C20.112 105.249 21.1911 106.347 24.7458 110.11L22.3654 107.821C21.0641 106.567 19.8581 105.657 19.6994 105.783Z" fill="#EFDAB3"/>
<path d="M69.6562 127.107C68.8627 127.17 67.4345 127.17 66.4823 127.107C65.5302 127.045 66.1649 127.013 67.9106 127.013C69.6562 127.013 70.4496 127.045 69.6562 127.107Z" fill="#8D7D5E"/>
<path d="M83.97 94.1171L84.6047 93.1135C84.9539 92.549 85.303 92.0786 85.3665 92.0786C85.4299 92.0786 85.4934 92.2668 85.4617 92.4863C85.4617 92.6745 85.4617 93.0822 85.4934 93.3331C85.4934 93.584 85.5886 93.7094 85.6839 93.584C85.7791 93.4272 86.2234 93.5526 86.6995 93.8035C87.2073 94.0544 87.6516 94.1171 87.7469 93.9917C87.8421 93.8349 88.3816 93.6153 88.9212 93.5213C89.4925 93.4272 89.9686 93.3958 89.9686 93.4899C89.9686 93.584 89.5242 93.8662 89.0164 94.1171C88.5086 94.368 87.7469 94.5875 87.3343 94.5875C86.9534 94.5875 86.033 94.4935 83.97 94.1171Z" fill="#515647"/>
<path d="M86.5723 85.2095C86.7945 84.7704 87.5879 84.1118 88.3814 83.7041C89.1431 83.2964 89.9048 82.9828 90.0635 82.9828C90.2222 82.9828 90.3809 83.4219 90.4761 83.9236C90.5713 84.645 90.8887 84.9899 91.7774 85.3976C92.4122 85.7113 93.1104 86.2444 93.3326 86.5894C93.5865 86.9344 93.8087 87.593 93.8404 88.0947C93.9039 88.722 94.0626 88.9101 94.4117 88.7847C94.7926 88.6279 94.8243 88.6593 94.4752 89.0042C94.253 89.2238 94.0943 89.5374 94.0943 89.7255C94.0943 89.9137 94.253 89.8196 94.4117 89.5687C94.6974 89.161 94.7608 89.161 95.0147 89.5687C95.1734 89.8196 95.2052 90.2273 95.11 90.4782C94.983 90.7291 94.0308 91.4191 92.9835 92.0149C91.9361 92.6108 90.8887 93.1126 90.6983 93.144C90.4761 93.1753 90.2857 93.2381 90.2857 93.3321C90.2857 93.4262 89.7461 93.5203 89.0796 93.5517C88.4449 93.6144 87.8418 93.7712 87.7466 93.9594C87.6514 94.1162 87.2388 94.0848 86.731 93.8026C86.2232 93.5517 85.7788 93.4262 85.6836 93.5517C85.5884 93.7085 85.4932 93.583 85.4932 93.3321C85.4614 93.0812 85.4614 92.6422 85.4932 92.3913C85.5249 92.109 85.3027 92.2345 84.9219 92.7049C84.3188 93.4262 84.2554 93.4262 84.2554 92.8617C84.2554 92.5167 84.4775 91.3877 84.7314 90.3528C84.9854 89.3178 85.2075 88.032 85.2075 87.5302C85.2393 86.7148 85.3027 86.6835 85.5249 87.2166C85.7153 87.687 85.8106 87.4675 85.8423 86.2758C85.874 85.3976 85.9693 84.9899 86.0645 85.3349C86.1914 85.9308 86.2232 85.8994 86.5723 85.2095Z" fill="#4B4E40"/>
<path d="M33.7918 60.873C33.0618 60.1517 32.9983 59.8381 32.9983 57.2978C32.9983 55.1965 33.0935 54.5693 33.4109 54.7261C33.6331 54.8202 33.7283 54.9457 33.6331 54.977C33.5378 55.0397 33.9504 55.7924 34.49 56.7019C35.0613 57.58 36.1087 58.8031 36.8069 59.3676C37.5052 59.9635 37.8226 60.3712 37.5369 60.2771C37.156 60.1517 36.9656 60.2458 36.9656 60.5594C36.9656 60.8416 36.4895 61.1553 35.7913 61.3434C34.7122 61.6257 34.49 61.563 33.7918 60.873Z" fill="#555A4A"/>
<path d="M58.9604 100.451C58.7383 100.326 58.4209 99.981 58.2622 99.6674C58.0083 99.197 58.1352 99.1656 59.4682 99.3538C60.2617 99.4792 62.9912 99.6674 65.5303 99.7928C68.6407 99.9497 71.0528 99.8869 72.9889 99.6047C75.528 99.2597 75.8771 99.2911 76.1627 99.7301C76.3532 99.981 76.7023 100.232 76.9562 100.232C77.2101 100.263 76.861 100.546 76.1627 100.891C75.1788 101.392 74.9884 101.612 75.3693 101.8C75.7184 101.988 75.3058 102.208 73.941 102.615C72.8937 102.898 71.4019 103.18 70.6085 103.243C69.815 103.305 69.1168 103.431 69.0533 103.525C68.9898 103.619 68.355 103.682 67.6885 103.682C67.022 103.682 66.4825 103.588 66.4825 103.431C66.4825 103.305 66.1016 103.243 65.689 103.274C65.2447 103.337 64.8955 103.211 64.8955 103.054C64.8955 102.898 64.6734 102.804 64.4195 102.898C64.1656 102.992 63.9434 102.898 63.9434 102.741C63.9434 102.584 63.7212 102.49 63.4673 102.584C63.2134 102.678 62.7691 102.521 62.5152 102.27C62.2612 102.02 61.9756 101.894 61.8804 102.02C61.7852 102.176 61.7217 102.082 61.7217 101.863C61.7217 101.675 61.5947 101.549 61.4043 101.643C61.2139 101.737 61.0869 101.643 61.0869 101.486C61.0869 101.33 60.96 101.235 60.7695 101.33C60.5791 101.424 60.3887 101.235 60.2935 100.922C60.1982 100.64 60.0078 100.483 59.8808 100.608C59.7539 100.734 59.4365 100.577 59.1826 100.295C58.9287 99.981 58.8335 99.9497 59.0239 100.201C59.2461 100.546 59.2461 100.608 58.9604 100.451Z" fill="#555A4A"/>
<path d="M63.8799 108.605C63.8482 108.01 63.9434 107.445 64.1021 107.351C64.2608 107.226 64.4195 107.131 64.4829 107.131C64.5464 107.131 64.5782 107.759 64.5782 108.543C64.5782 109.39 64.4512 109.891 64.2608 109.797C64.0703 109.703 63.9116 109.17 63.8799 108.605Z" fill="#555A4A"/>
<path d="M84.8904 89.5672C84.7 90.069 84.6365 89.2536 84.6365 87.1523L84.6367 87.1316C84.6682 84.1097 84.6695 83.9856 85.2395 84.3298C85.7156 84.612 85.8425 85.0511 85.8108 86.2742C85.8108 87.4346 85.7156 87.6855 85.5252 87.2151C85.303 86.6819 85.2395 86.776 85.2078 87.6855C85.176 88.2814 85.0173 89.1281 84.8904 89.5672Z" fill="#454739"/>
<path d="M99.2045 105.875C99.014 105.875 98.8553 105.718 98.8553 105.562C98.8553 105.405 99.014 105.248 99.1727 105.248C99.3632 105.248 99.5536 105.436 99.6171 105.624C99.6806 105.844 99.5853 106.283 99.4584 106.565C99.2997 106.879 98.8553 107.13 98.4745 107.098C97.9878 107.077 97.9032 107.015 98.2206 106.91C98.4745 106.785 98.8871 106.534 99.1093 106.283C99.3632 106.032 99.3949 105.875 99.2045 105.875Z" fill="#454739"/>
<path d="M83.2717 96.8758C83.24 96.719 83.24 96.5308 83.2717 96.4054C83.2717 96.2486 83.367 96.1545 83.4622 96.1545C83.5574 96.1545 83.97 96.3427 84.4143 96.5622C84.8587 96.7504 85.2078 97.0953 85.2078 97.2521C85.2078 97.4089 84.7317 98.0675 84.1604 98.6634C83.6209 99.2593 82.9226 100.169 82.6687 100.671C82.4148 101.172 81.3357 102.239 80.2883 103.054C78.6379 104.34 78.0984 104.591 76.321 104.81C74.6071 105.03 74.2262 105.218 74.1628 105.72C74.0993 106.065 74.258 106.598 74.5436 106.912C75.0197 107.382 75.0197 107.476 74.5119 107.852C74.2263 108.041 73.4963 108.229 72.8615 108.26C72.1315 108.26 71.2746 108.009 69.2433 106.661L70.735 106.598C72.1315 106.504 72.195 106.472 72.0363 105.657C71.8776 104.873 71.9093 104.842 72.2585 105.312C72.4806 105.626 72.7663 105.845 72.925 105.877C73.0519 105.877 73.0837 105.657 72.9884 105.406C72.8932 105.124 73.0837 104.873 73.4645 104.779C73.8136 104.685 74.0993 104.434 74.0993 104.246C74.0993 104.026 74.4167 103.65 74.7975 103.43C75.4641 103.085 75.3688 103.085 72.6711 103.368L74.4167 102.803C75.3688 102.49 77.1779 101.705 78.384 101.078C79.6218 100.451 81.05 99.5102 81.5579 98.977C82.0974 98.4439 82.51 97.7539 82.51 97.4717C82.51 97.1894 82.7004 96.9699 82.9226 97.0326C83.113 97.064 83.2717 97.0012 83.2717 96.8758Z" fill="#EFDAB3"/>
<path d="M54.5801 98.3498C54.3262 98.3498 54.104 98.193 54.104 98.0362C54.104 97.8794 54.3579 97.7226 54.6753 97.7226C54.9609 97.7226 55.7227 98.0362 56.3257 98.4125C56.9287 98.7575 57.6905 99.4161 58.0078 99.8238C58.2935 100.2 59.8804 101.204 61.4991 101.988C63.086 102.772 65.1173 103.524 65.9742 103.619C66.7994 103.744 67.5612 103.932 67.6246 104.089C67.6881 104.214 67.4342 104.34 67.0533 104.34C66.5455 104.371 66.482 104.403 66.8946 104.497C67.1803 104.559 67.4342 104.716 67.4342 104.873C67.4342 104.998 67.3072 105.563 67.1168 106.127C66.8629 106.88 66.9264 107.382 67.2755 108.166C67.5612 108.699 67.7516 109.201 67.7516 109.264C67.7516 109.295 67.4977 109.389 67.212 109.452C66.8312 109.515 66.4503 109.232 66.1012 108.668C65.7838 108.166 65.5299 107.539 65.5299 107.288C65.5299 107.037 65.4029 106.755 65.2125 106.661C65.0538 106.567 64.6095 106.567 64.2603 106.661C63.7843 106.786 63.6256 107.068 63.6256 107.915C63.6256 108.825 63.5304 109.013 62.9908 108.95C62.6099 108.887 62.2291 108.511 62.0386 107.915C61.88 107.413 61.4039 106.567 61.023 106.033C60.6104 105.532 60.2613 104.81 60.1978 104.465C60.1661 104.12 59.9756 103.681 59.7852 103.524C59.6265 103.368 59.4996 102.96 59.4996 102.678C59.4996 102.364 59.2774 102.05 59.0235 101.956C58.7696 101.862 58.5474 101.643 58.5474 101.486C58.5474 101.329 58.1665 100.796 57.6905 100.294C57.1826 99.8238 56.4209 99.1966 55.9448 98.8829C55.437 98.6007 54.834 98.3498 54.5801 98.3498Z" fill="#EFDAB3"/>
<path d="M71.7191 23.0823C71.8143 23.1763 72.4173 23.0823 73.0521 22.8627C73.7186 22.6432 75.1786 22.4864 76.3212 22.455C78.035 22.455 78.7333 22.6118 80.4472 23.4586C81.7484 24.1172 82.7006 24.8385 83.5893 26.3752L82.415 26.4066C81.7802 26.4379 81.558 26.3752 81.9706 26.3439C82.3515 26.2811 82.6689 25.9989 82.6689 25.748C82.6689 25.4344 82.489 25.3403 82.1293 25.4657C81.6532 25.6225 81.6532 25.5912 82.0341 25.3403C82.415 25.0894 82.3197 24.9012 81.3993 24.3681C80.7963 23.9917 80.098 23.7722 79.9076 23.8663C79.6854 23.9604 79.5585 23.8663 79.6537 23.7095C79.7489 23.5213 79.5902 23.3331 79.3363 23.2391C79.0824 23.145 78.8602 23.2077 78.8602 23.3959C78.8602 23.5527 78.6381 23.6468 78.3842 23.5527C78.1303 23.4586 77.8129 23.584 77.6859 23.7722C77.4955 24.0858 77.559 24.0858 77.9081 23.8663C78.2572 23.6468 78.3207 23.6468 78.1303 23.929C77.9398 24.2426 77.8129 24.2426 77.3685 23.929C76.9559 23.6154 76.8924 23.6154 77.0511 23.929C77.1781 24.1485 77.0829 24.4622 76.8924 24.6503C76.6174 24.8594 76.1096 24.849 75.369 24.619C74.766 24.3994 73.0838 24.3054 71.6556 24.3681C70.1956 24.4308 69.0213 24.3994 69.0213 24.2426C69.0213 24.1172 69.18 24.0231 69.3387 24.0231C69.5291 24.0231 69.783 23.9917 69.9417 23.929C70.1004 23.8977 70.3543 23.7722 70.513 23.6468C70.64 23.5213 70.9573 23.49 71.1795 23.584C71.3699 23.6468 71.5604 23.5213 71.5604 23.3018C71.5604 23.1136 71.6238 22.9882 71.7191 23.0823Z" fill="#F2CC94"/>
<path d="M83.621 28.696C82.891 28.6646 82.891 28.6333 83.7797 28.4451C84.2875 28.3197 85.5253 28.3197 86.4775 28.4451C87.4296 28.5705 88.7627 28.8842 89.4292 29.1664C90.064 29.4487 90.667 29.7936 90.7622 29.9818C90.8574 30.1386 90.4448 30.0445 89.9053 29.7623C89.334 29.48 87.874 29.1351 86.6362 29.0096C85.3984 28.8528 84.0654 28.7274 83.621 28.696Z" fill="#F2CC94"/>
<path d="M44.4239 29.7309C42.9005 29.8877 42.8687 29.8877 43.7891 29.48C44.3287 29.2605 45.1539 29.0723 45.6934 29.041C46.233 29.041 46.4869 29.1664 46.3282 29.3232C46.1378 29.48 45.3126 29.6682 44.4239 29.7309Z" fill="#F2CC94"/>
<path d="M80.7646 99.2598C81.558 98.5071 82.1928 97.7544 82.161 97.629C82.161 97.4721 82.2563 97.4408 82.415 97.5349C82.5419 97.629 82.3515 98.0994 81.9706 98.5384C81.558 98.9775 80.7963 99.6361 80.2885 99.9811C79.622 100.42 79.7489 100.201 80.7646 99.2598Z" fill="#F2CC94"/>
<path d="M73.2425 103.243C74.0677 103.4 74.1629 103.337 73.7821 103.055C73.3695 102.741 73.3695 102.71 73.8773 102.866C74.1629 102.96 74.6708 103.055 74.9881 103.086C75.4007 103.086 75.369 103.18 74.7977 103.462C74.4168 103.682 74.0995 104.027 74.0995 104.215C74.0995 104.434 73.8138 104.685 73.4647 104.779C73.0838 104.873 72.8934 105.124 72.9886 105.407C73.0838 105.658 73.0203 105.877 72.8299 105.877C72.6395 105.877 72.4491 105.658 72.3538 105.407C72.2586 105.156 72.0682 104.999 71.8778 105.093C71.6873 105.187 71.5604 105.093 71.5604 104.936C71.5604 104.748 70.7669 104.654 69.6561 104.685C68.6087 104.748 67.7517 104.936 67.7517 105.093C67.7517 105.281 67.6565 105.25 67.4978 105.062C67.3709 104.873 67.0535 104.623 66.7996 104.529C66.4822 104.424 66.5668 104.361 67.0535 104.34C67.519 104.319 67.6777 104.184 67.5296 103.933C67.3391 103.65 67.6248 103.619 68.6404 103.776C69.4339 103.901 70.0369 103.87 70.1321 103.682C70.2274 103.525 70.64 103.368 71.0843 103.368C71.5286 103.368 71.8778 103.525 71.8778 103.682C71.8778 103.839 72.0047 103.933 72.1951 103.839C72.3856 103.744 72.4491 103.525 72.3538 103.368C72.2586 103.18 72.576 103.117 73.2425 103.243Z" fill="#F2CC94"/>
<path d="M83.6846 28.037C82.2564 28.0997 82.0025 28.0056 81.9073 27.4724C81.812 26.9707 81.9707 26.8452 82.7007 26.8452C83.3672 26.8452 83.5894 26.9707 83.4625 27.3156C83.3355 27.6606 83.5894 27.8174 84.3194 27.8801C84.9542 27.9429 84.732 28.0056 83.6846 28.037Z" fill="#5E5F3E"/>
<path d="M95.0153 38.6058L95.0788 37.1946L95.1423 35.7833L95.2692 37.1005C95.3327 38.0727 95.1423 38.8881 94.571 40.0171C93.8727 41.397 93.5871 41.6479 92.0319 42.2124C90.921 42.6201 88.7628 42.9651 86.065 43.1533C83.7798 43.3415 80.003 43.6864 77.7495 43.9687C75.4961 44.2196 72.1318 44.7214 70.291 45.0663C68.4501 45.4113 65.6571 46.0699 64.1019 46.509C62.515 46.948 60.0394 47.7634 58.5477 48.328C57.056 48.8925 55.0564 49.7392 54.1043 50.2097C53.1521 50.6801 51.1526 51.8405 49.6609 52.7813C48.1692 53.7222 46.6457 54.8198 46.2331 55.1962C45.6936 55.698 45.5349 55.7293 45.5349 55.3843C45.5349 55.1334 45.6935 53.8477 45.8522 52.5619L45.8523 52.5618C46.0109 51.276 46.2649 49.7706 46.3918 49.2688C46.5505 48.5789 46.487 48.3907 46.2331 48.5475C46.0109 48.7043 45.5666 50.1783 45.2175 51.8405C44.8366 53.534 44.4558 55.4157 44.3288 56.0116C44.1384 56.9838 43.9479 57.1406 42.0436 57.7992C40.901 58.1755 39.5998 58.5205 39.0919 58.5205C38.5206 58.5205 37.7907 58.1128 36.9337 57.3288C36.2355 56.7015 35.4737 55.6039 35.2516 54.9139C34.9977 54.224 34.5851 52.7186 34.2994 51.5268C34.0138 50.3665 33.7916 48.8925 33.8233 48.2339C33.8233 47.6066 33.982 46.7912 34.1407 46.4463C34.3629 45.9445 34.3946 46.0072 34.2994 46.8226C34.2359 47.4498 34.3312 47.8575 34.5533 47.8575C34.7438 47.8575 35.1246 47.7007 35.4103 47.4812C35.6959 47.2617 36.2037 46.4149 36.5211 45.5995C36.8702 44.7527 37.1559 44.1255 37.1559 44.1882C37.1876 44.2196 37.0924 44.9409 36.9655 45.819C36.8385 46.6658 36.8385 47.8889 36.9972 48.4848C37.1241 49.0806 37.5685 49.8333 37.9811 50.1469C38.3937 50.4606 38.9332 50.7114 39.1872 50.6801C39.4411 50.6801 40.3615 50.4919 41.2502 50.2724C42.1071 50.0215 43.6306 49.457 44.5827 48.9866C45.8205 48.3593 46.7409 47.5753 47.7566 46.2267C48.55 45.2232 49.8196 43.7805 51.9778 41.742L50.9939 43.1533C50.4543 43.9373 49.7244 44.9095 49.3752 45.3486C48.7722 46.1326 48.7722 46.1326 49.4705 47.3557C49.8196 48.0457 50.2639 48.6416 50.4543 48.7043C50.613 48.7984 51.6922 48.6102 52.8347 48.328C53.9773 48.0457 56.0403 47.293 57.4368 46.6344C58.8333 45.9758 62.0389 44.7527 64.578 43.9373C67.1171 43.1219 69.8783 42.3379 70.767 42.1811C71.624 41.9929 73.9091 41.742 75.8452 41.5852C77.7495 41.4284 81.1138 41.1461 83.3038 40.9266C87.2076 40.5503 87.3028 40.5189 89.3341 39.139C90.4767 38.3863 91.5875 37.4768 91.778 37.1632C92.0001 36.8496 92.3175 36.6301 92.5079 36.7241C92.6666 36.8182 92.8571 36.7555 92.9206 36.5673C92.984 36.4105 93.3014 36.3792 93.6188 36.5046C93.9362 36.6301 94.3805 37.1632 95.0153 38.6058Z" fill="#5E5F3E"/>
<path d="M82.8912 81.8222C82.8594 81.6341 83.1133 81.3832 83.4625 81.3204C83.8116 81.2263 84.1607 81.1636 84.2559 81.1323C84.3511 81.1009 85.0176 81.6341 85.7794 82.3554C86.5094 83.0453 87.1759 83.6098 87.2711 83.6098C87.3663 83.6098 87.3663 83.4844 87.2711 83.2962C87.1759 83.1081 87.2711 82.9199 87.4298 82.8258C87.6202 82.7317 87.7472 82.8572 87.7472 83.0767C87.7472 83.2649 87.8424 83.3276 87.9693 83.2021C88.128 83.0453 88.2232 82.7631 88.2232 82.6063C88.2232 82.4181 88.4454 82.1986 88.6993 82.1358C89.1119 82.0104 89.1119 82.0418 88.6993 82.3554C88.2867 82.669 88.3185 82.7003 88.7945 82.5435C89.0802 82.4495 89.4928 82.3554 89.6515 82.3554C89.8419 82.3554 89.9689 82.0418 89.9689 81.6654C89.99 81.1845 90.0747 81.08 90.2228 81.3518C90.3497 81.6027 91.5558 81.8849 93.1427 82.0418C95.2057 82.2926 96.3483 82.6063 97.9035 83.4217C99.8396 84.3939 99.9665 84.5193 99.903 85.4602C99.8078 86.3069 99.9348 86.4637 100.697 86.6206C101.49 86.8087 101.426 86.8714 99.8078 87.3732C98.7604 87.6869 97.5544 88.3768 96.7927 89.0668C95.6183 90.1331 95.4914 90.1958 95.1105 89.6626C94.7614 89.1609 94.6662 89.1609 94.4123 89.5686C94.2536 89.8194 94.0949 89.9135 94.0949 89.7254C94.0949 89.5372 94.2853 89.2236 94.4757 89.004C94.8249 88.6591 94.7931 88.6277 94.4123 88.7845C94.0631 88.91 93.9362 88.6904 93.8727 87.9377C93.8092 87.1223 93.3966 86.5578 92.0319 85.3347C91.0797 84.488 90.2862 83.5785 90.2862 83.3903C90.2862 83.1081 90.0323 83.0453 89.588 83.1708C89.1754 83.2962 88.4771 83.5785 88.0011 83.798C87.525 84.0489 87.0489 84.3625 86.9537 84.5507C86.8585 84.7389 86.5411 84.7389 86.0968 84.488C85.6842 84.2998 84.8272 83.7039 84.1607 83.1708C83.5259 82.6376 82.9546 82.0418 82.8912 81.8222Z" fill="#5E5F3E"/>
<path d="M55.5322 24.0223L55.5323 24.0223C57.754 23.2696 58.8014 23.0814 60.2931 23.1441C61.6896 23.2382 62.7369 23.5205 64.1969 24.2732C65.276 24.8063 66.4186 25.2767 66.736 25.2767C67.0217 25.2767 68.4816 25.0572 69.9733 24.7436C72.2268 24.3045 72.9568 24.3045 74.4167 24.5868C75.3689 24.8063 77.051 25.4022 78.1619 25.904C79.7488 26.6567 80.4471 26.8135 81.7801 26.7194C82.7005 26.6567 83.0814 26.6567 82.6053 26.7507C81.907 26.8448 81.7483 27.0016 81.8753 27.5034C81.9705 27.817 82.1609 28.0993 82.3514 28.0993C82.5418 28.0993 82.6053 28.2247 82.5101 28.4129C82.4149 28.6011 82.6688 28.7892 83.0496 28.8833C83.4622 28.9774 84.4779 29.0401 85.3665 29.0401C86.2235 29.0401 87.6517 29.2283 88.5404 29.4792C89.3973 29.7301 90.6034 30.2632 91.2064 30.6709C91.8412 31.0786 92.6347 32.0822 93.079 32.9603C93.5233 33.8071 94.1264 34.748 94.4438 34.9989C94.8564 35.3438 95.0151 35.9083 95.0151 37.0374C95.0151 38.6055 95.0151 38.6055 94.6025 37.6646C94.3803 37.1628 93.9677 36.6297 93.682 36.4729C93.3964 36.3474 93.079 36.3788 92.9838 36.5669C92.8886 36.7551 92.6981 36.8178 92.5077 36.7238C92.3173 36.6297 91.9999 36.8492 91.7777 37.1628C91.5873 37.4764 90.4764 38.3859 89.3339 39.1386C87.3026 40.5185 87.2074 40.5499 83.3035 40.9262C81.1136 41.1457 77.781 41.428 75.845 41.5848C73.9089 41.7416 71.6237 41.9925 70.7668 42.1807C69.9099 42.3375 67.1169 43.1215 64.5778 43.9369C62.0387 44.7523 58.8331 45.9754 57.4366 46.634C56.0401 47.2926 53.9454 48.0767 52.771 48.3903C50.8985 48.8921 50.6128 48.8921 50.1367 48.4844C49.8511 48.2335 49.6289 47.8258 49.6607 47.6376C49.6607 47.4181 49.4702 47.324 49.2481 47.4494C49.0576 47.5435 48.9624 47.5122 49.0894 47.3554C49.2163 47.1986 49.1846 46.8536 49.0576 46.6027C48.8355 46.2891 48.9624 45.8814 49.375 45.3482C49.7241 44.9091 50.4541 43.9369 51.9776 41.7416L50.5811 43.0588C49.8194 43.7801 48.5498 45.2228 47.7563 46.2263C46.7407 47.5749 45.8203 48.3589 44.5825 48.9862C43.6303 49.4566 42.1386 50.0211 41.2499 50.272C40.393 50.4915 39.4408 50.6797 39.1869 50.6797C38.933 50.7111 38.3935 50.4602 37.9809 50.1465C37.5683 49.8329 37.1239 49.0803 36.997 48.4844C36.8383 47.8885 36.8383 46.6654 36.9652 45.8186C37.0922 44.9405 37.1557 44.2192 37.0922 44.1878C37.0287 44.1251 36.7113 44.8151 36.4257 45.6932C36.0766 46.6968 35.5687 47.4494 35.1561 47.669C34.7435 47.8571 34.3627 47.9512 34.2675 47.8571C34.1722 47.7631 34.2357 47.0731 34.4579 46.2891C34.6483 45.505 35.2196 44.3133 35.6957 43.6233C36.1718 42.9334 36.8383 42.1493 37.1557 41.8984C37.4731 41.6162 37.6317 41.5848 37.5048 41.8357C37.3461 42.118 37.4413 42.1493 37.9174 41.8984C38.2665 41.7103 38.6474 41.3966 38.7743 41.2085C38.8695 40.9889 38.9965 40.4872 38.9965 40.1108C39.0282 39.7031 38.933 39.3895 38.8061 39.3895C38.6474 39.3895 38.6474 39.0759 38.7743 38.6995C38.9013 38.2605 38.8695 38.0409 38.7109 38.1664C38.5204 38.2918 38.4887 37.8214 38.6474 36.9119C38.7743 36.1279 39.1552 34.9048 39.4726 34.2148C39.79 33.5249 40.4565 32.5526 40.9643 32.0509C41.4721 31.5491 42.5195 30.8591 43.3129 30.5141C44.1064 30.1692 45.7251 29.7928 46.9311 29.6987C49.0259 29.5106 49.1528 29.4478 50.4859 28.0366C51.3111 27.1584 51.8189 26.343 51.7237 26.0608C51.6284 25.8099 51.8189 25.4649 52.1045 25.3081C52.4219 25.1513 53.977 24.5868 55.5322 24.0223Z" fill="#899519"/>
<path d="M50.8032 18.7229C51.311 18.1271 52.3583 17.2489 53.1518 16.7471C53.9453 16.2767 54.9292 15.869 55.3735 15.869C55.8178 15.8377 56.3574 16.0572 56.5796 16.3394C56.8335 16.6844 56.897 17.1235 56.7383 17.688C56.5161 18.3152 55.8179 18.8797 53.7866 19.9774C51.8505 20.981 50.7714 21.7964 50.0414 22.7999C49.4701 23.5526 48.7084 25.0893 48.391 26.2184C48.0736 27.3474 47.8515 28.351 47.9467 28.4764C48.0102 28.6332 47.3119 28.7273 46.4232 28.7273C45.4076 28.7273 44.1698 29.0096 43.3129 29.3859C42.5194 29.7309 41.472 30.3267 40.9325 30.7344C40.3929 31.1108 39.6629 31.9262 39.2821 32.5221C38.9012 33.1179 38.4251 34.4038 38.2347 35.376C37.9808 36.8186 38.0125 37.5399 38.8695 40.3311L37.2508 41.8051C36.3304 42.6519 35.283 43.875 34.8704 44.5649C34.4578 45.2549 34.0135 46.6035 33.9182 47.5443C33.7596 48.7047 33.8865 50.0219 34.2356 51.6213C34.553 52.9071 35.1878 54.7261 35.6321 55.667C36.1399 56.6705 36.9017 57.6114 37.4412 57.9564C37.9808 58.27 38.7425 58.5209 39.1868 58.5209C39.6312 58.5209 40.9007 58.1759 42.0433 57.7996C43.9476 57.141 44.1381 56.9842 44.3285 56.012C44.4554 55.4161 44.8363 53.5344 45.2172 51.8409C45.5663 50.1787 46.0106 48.7047 46.2328 48.5479C46.5185 48.3911 46.5502 48.5792 46.3598 49.2692C46.2328 49.771 45.9789 51.3391 45.8202 52.719C45.6615 54.0989 45.5346 55.322 45.5346 55.4474C45.5346 55.6043 46.8676 54.7575 48.4545 53.6285C50.0732 52.4994 52.7075 50.9314 54.2627 50.1787C55.8179 49.426 58.8965 48.2343 61.0864 47.5129C63.2764 46.7916 67.1168 45.788 69.6559 45.2863C72.1949 44.7845 76.1305 44.1886 78.384 43.9377C80.6374 43.6868 84.2239 43.3418 86.3186 43.185C88.826 42.9969 90.6985 42.6519 91.7776 42.2442C92.6981 41.8678 93.4915 41.6483 93.5233 41.7424C93.5867 41.8365 94.0311 41.1465 94.5389 40.237C95.3324 38.8258 95.4276 38.3867 95.3006 36.7245C95.2054 35.6896 94.8245 34.2156 94.4437 33.4315C94.0628 32.6475 93.9359 32.2712 94.158 32.5848C94.3802 32.8984 94.7611 33.4002 94.9515 33.6824C95.3006 34.1215 95.3006 34.0588 95.0467 33.2747C94.888 32.773 94.5389 32.1144 94.2532 31.8635C93.9676 31.6126 93.7454 31.4871 93.7772 31.6126C93.7772 31.7694 93.1106 31.299 92.2537 30.5776C91.4285 29.8877 90.032 29.0723 89.1751 28.7587C88.2864 28.445 86.6995 28.1001 83.6208 27.7864L83.6843 26.7515C83.7478 26.2184 83.5256 25.3716 83.2082 24.8698C82.8908 24.368 81.8435 23.6467 80.6057 23.0822C79.0187 22.3609 78.0983 22.1413 76.5431 22.1413C75.3688 22.1413 73.528 22.455 71.8776 22.9254C70.3858 23.3645 69.0528 23.6467 68.8624 23.584C68.672 23.5213 68.7989 23.4272 69.0846 23.4272C69.402 23.3958 69.6559 23.3017 69.6559 23.1449C69.6559 23.0195 69.2115 22.7059 68.6402 22.4236C68.0689 22.1413 66.6724 21.7336 65.5298 21.5141C64.3873 21.3259 62.6734 21.2319 61.7212 21.3259C60.7691 21.42 59.0552 21.7964 57.9126 22.1727C56.77 22.5177 55.0561 23.239 54.104 23.7408C52.4218 24.6503 52.3901 24.6503 53.3105 23.8662C53.8183 23.4272 55.1196 22.6431 56.167 22.1413C57.2143 21.6082 59.1504 20.981 60.4517 20.6987C62.356 20.3224 63.2764 20.291 64.9586 20.5419C66.1646 20.7301 67.6881 21.1691 68.3863 21.5141C69.0846 21.8591 69.9732 22.1413 70.3541 22.1413C70.7667 22.1413 71.6554 21.9218 72.3536 21.6709C73.0519 21.42 74.7658 21.2319 76.1623 21.2005C78.1618 21.2005 79.0505 21.3259 80.447 21.9218C81.4309 22.3609 82.7004 23.239 83.3669 23.9917C84.0334 24.6816 84.6999 25.6225 84.8904 26.0616C85.1125 26.5947 85.5251 26.9083 86.2234 27.0338C86.7947 27.1279 88.1277 27.4728 89.1751 27.7864C90.4129 28.1628 91.6507 28.8527 92.6663 29.7622C93.5233 30.5149 94.5706 31.738 94.9515 32.5221C95.3641 33.2747 95.8084 34.7174 95.9989 35.6896C96.221 37.0695 96.221 38.0104 95.8719 39.5471C95.4593 41.5542 95.4593 41.5856 96.3797 43.3732C96.8875 44.3768 97.7445 46.1644 98.2523 47.3875C98.7919 48.6106 99.5536 50.8373 99.9979 52.4054C100.442 53.9421 100.95 56.7019 101.141 58.5209C101.331 60.3399 101.49 61.9393 101.553 62.1275C101.585 62.2843 102.442 62.9115 103.489 63.5074C104.505 64.1033 106.06 65.2323 106.885 66.0163C107.742 66.8004 108.821 68.0862 109.329 68.8702C109.837 69.6543 110.503 71.1283 110.853 72.1632C111.202 73.1981 111.582 74.9544 111.709 76.0834C111.836 77.4633 111.773 78.8746 111.424 80.4741C111.138 81.7599 110.472 83.7357 109.9 84.8647C109.329 86.0564 108.155 87.6245 107.139 88.6281C106.155 89.6003 104.632 90.698 103.775 91.1057C102.886 91.5134 99.9662 92.3915 97.2684 93.0814C94.5706 93.74 92.3172 94.3673 92.2537 94.43C92.222 94.5241 92.7933 94.775 93.5233 95.0259C94.285 95.2768 95.2689 95.559 95.7449 95.6531C96.4115 95.8099 96.5702 95.9667 96.3797 96.3431C96.2528 96.594 95.5863 97.0957 94.888 97.4407C94.1263 97.7857 92.9202 98.0366 91.8728 98.0366C90.9207 98.0366 89.2385 97.8171 88.1277 97.5662C87.0486 97.3153 85.5886 96.8135 84.8904 96.4685C84.1921 96.1235 83.6843 95.7472 83.7478 95.5904C83.8113 95.4649 84.6999 95.2768 85.7156 95.1827C87.1121 95.0572 88.3181 94.6182 90.4446 93.5205C91.9998 92.6737 94.0628 91.4506 94.9515 90.792C95.8719 90.1335 96.6971 89.5689 96.7923 89.5689C96.8875 89.5689 96.8875 89.6944 96.7923 89.8826C96.6971 90.0707 97.1732 90.1335 98.1253 90.008C98.9823 89.9139 100.347 89.6317 101.236 89.4121C102.093 89.1612 103.616 88.5026 104.568 87.9381C105.52 87.3736 106.822 86.2132 107.488 85.3351C108.123 84.457 108.98 82.983 109.361 82.0421C109.742 81.1013 110.123 79.345 110.218 78.1219C110.313 76.8047 110.218 75.2994 109.964 74.3585C109.773 73.4804 109.519 72.5396 109.456 72.2259C109.361 71.7869 108.98 71.6928 107.425 71.6928C106.123 71.6928 105.52 71.5673 105.52 71.2851C105.52 71.0656 105.965 70.9087 106.695 70.9087C107.33 70.9087 107.901 70.7519 107.964 70.501C107.996 70.3129 107.33 69.2779 106.473 68.243C105.584 67.2081 104.314 66.079 103.616 65.7341C102.918 65.3891 102.156 65.1068 101.934 65.1068C101.744 65.1068 101.267 65.4205 100.887 65.7968C100.506 66.2045 99.744 67.3649 99.141 68.3998C98.5697 69.4347 97.2367 71.191 96.1893 72.32C95.1737 73.449 93.9676 74.4526 93.4915 74.6094C93.0472 74.7349 92.3172 75.1739 91.8728 75.613C91.4285 76.0207 90.159 76.9929 86.9851 79.0628L87.0486 81.164C87.0803 82.3558 87.0168 83.2966 86.8582 83.2966C86.7312 83.2966 86.2551 82.7321 85.7473 82.0421C85.1443 81.1326 84.7317 80.8504 84.3191 80.9758C84.0335 81.0699 83.399 81.2267 82.8912 81.3521L82.8908 81.3522C82.4148 81.4776 82.0022 81.6344 82.0022 81.7285C82.0022 81.8226 82.6052 82.4498 84.6682 84.3943L84.6047 87.5304C84.573 89.2553 84.3191 91.6388 84.0969 92.8619C83.7795 94.3673 83.3034 95.559 82.5417 96.6253C81.9387 97.4721 81.05 98.4757 80.5422 98.852C80.0661 99.2283 79.3361 99.6047 78.9235 99.6988C78.5427 99.8242 77.6222 99.7615 76.8923 99.5733C75.8766 99.3224 74.5436 99.3538 71.8776 99.636C68.9893 99.9497 67.2755 99.981 63.6255 99.6674C59.2774 99.3224 58.8647 99.2283 56.167 98.0052C54.0088 97.0016 52.9296 96.688 51.7236 96.688C50.8666 96.688 49.3432 96.9703 48.391 97.2839C47.4071 97.5975 45.6933 97.8484 44.4237 97.8484C42.7416 97.8484 41.9164 97.723 41.0912 97.2212C40.4881 96.8762 39.9486 96.3431 39.8851 96.0608C39.8428 95.7054 40.1073 95.4649 40.6786 95.3395C41.1864 95.2454 42.0751 94.9945 43.7889 94.4927L42.5194 93.9282C41.8211 93.6146 40.4564 93.2696 39.5042 93.1755C38.5521 93.0501 36.616 92.7051 35.2195 92.3601C33.823 92.0152 31.8235 91.2625 30.8079 90.7293C29.7922 90.1648 28.2688 89.0044 27.4753 88.1577C26.6819 87.2795 25.571 85.6487 24.9997 84.5511C24.4602 83.4221 23.8254 81.6031 23.635 80.4741C23.4445 79.345 23.3493 77.7142 23.4763 76.8675C23.5715 75.9893 23.9841 74.3899 24.3649 73.2609C24.7141 72.1318 25.6027 70.3756 26.301 69.372C27.031 68.3371 28.237 66.9572 29.0305 66.2672C29.824 65.6086 31.3157 64.5737 32.3631 64.0092C33.4104 63.4447 35.1243 62.7234 36.1717 62.4725C37.2191 62.1902 38.2664 61.7825 38.4886 61.5943C38.8377 61.2494 38.5838 60.9044 37.1238 59.6185C35.9813 58.615 35.0608 57.4546 34.553 56.3883C34.1404 55.5102 33.6326 53.7225 33.4104 52.4681C33.22 51.245 33.0296 49.2378 33.0296 48.0147C33.0296 46.3212 33.1883 45.4744 33.7596 44.4081C34.1722 43.6241 35.0291 42.3696 35.6956 41.5856C36.8699 40.2057 36.9017 40.1116 36.8699 37.8222C36.8699 36.3168 37.0921 34.8428 37.4412 33.7452C37.7586 32.8043 38.5521 31.4871 39.1551 30.7972C39.7899 30.1386 40.8055 29.3545 41.4085 29.0409C42.0116 28.7273 43.3129 28.3196 44.265 28.1314C45.2172 27.9119 46.2328 27.8492 46.4867 27.9433C46.8676 28.0687 47.058 27.6924 47.3754 26.1556C47.6293 25.058 48.2641 23.2076 48.8671 21.9845C49.4384 20.7614 50.3271 19.3188 50.8032 18.7229Z" fill="#231512"/>
<path d="M52.041 107.602L52.1362 106.253V106.285C52.2314 105.187 52.3583 104.936 52.8662 104.936C53.4057 104.936 53.5009 105.187 53.6279 107.069C53.7231 108.229 53.7866 109.766 53.7866 110.519C53.7866 111.553 53.6914 111.804 53.3105 111.679C53.0566 111.585 52.7075 111.522 52.517 111.522C52.3266 111.522 52.1044 110.989 52.0092 110.362C51.8505 109.39 51.6918 109.17 51.1523 109.233C50.7714 109.264 50.1367 109.295 49.724 109.295C49.121 109.327 49.0258 109.515 48.9306 110.832C48.8671 112.087 48.7719 112.306 48.2323 112.306C47.661 112.306 47.5658 112.024 47.3437 109.797C47.1532 108.135 47.185 107.006 47.4071 106.442C47.5976 105.94 47.9784 105.563 48.2323 105.563C48.5497 105.563 48.7719 105.971 48.8671 106.661C49.0258 107.759 49.0258 107.759 52.041 107.602Z" fill="#231512"/>
<path d="M67.3072 106.379C67.4342 105.908 67.8468 105.375 68.1959 105.218C68.5768 105.062 69.3067 104.936 69.8146 104.905C70.3224 104.905 71.0524 105.093 71.4015 105.344C71.7506 105.595 71.9093 105.908 71.7823 106.065C71.6236 106.191 70.9889 106.316 70.3858 106.316C69.7511 106.316 69.1798 106.473 69.1163 106.63C69.0528 106.786 69.402 107.1 69.878 107.32C70.3858 107.539 71.0841 107.978 71.465 108.355C71.8776 108.7 72.1949 109.358 72.1949 109.86C72.2267 110.33 71.9728 110.926 71.6554 111.208C71.338 111.491 70.7667 111.804 70.3541 111.93C69.9732 112.024 69.148 111.898 68.545 111.648C67.7833 111.334 67.3707 110.926 67.2437 110.33C67.1485 109.829 67.1168 109.421 67.1803 109.39C67.2437 109.358 67.7198 109.546 68.2276 109.797C68.7354 110.048 69.4654 110.236 69.7828 110.174C70.1319 110.111 70.4493 109.923 70.5128 109.766C70.5763 109.609 69.9732 109.264 69.1798 109.076C68.2594 108.825 67.6246 108.417 67.4024 107.978C67.1803 107.539 67.1485 106.912 67.3072 106.379Z" fill="#231512"/>
<path d="M74.4166 105.846C74.4166 105.344 74.6706 105.187 75.7497 105.124C76.5114 105.062 77.7492 104.999 78.5427 105.03C79.6535 105.062 79.9709 105.187 80.0344 105.626C80.0978 106.034 79.8757 106.191 78.0666 106.316L77.9714 109.233L77.9712 109.24C77.9079 112.087 77.9072 112.118 77.1144 112.118C76.3527 112.118 76.321 111.993 76.1305 110.017C76.0353 108.825 75.9401 107.602 75.9084 107.257C75.8766 106.849 75.591 106.598 75.1149 106.567C74.6494 106.504 74.4166 106.264 74.4166 105.846Z" fill="#231512"/>
<path d="M82.2878 105.877C82.2561 105.532 82.4465 105.187 82.7004 105.124C82.9226 105.03 83.7795 104.936 84.573 104.936C85.3664 104.936 86.3186 104.968 86.6995 105.062C87.1755 105.156 87.4295 105.438 87.4295 105.846C87.4295 106.264 87.165 106.525 86.636 106.63C85.8743 106.786 85.8425 106.881 85.7473 109.39C85.6838 111.804 85.6521 111.961 84.9538 112.055C84.3508 112.118 84.2239 111.93 84.0969 110.801C84.0017 110.048 83.9065 108.825 83.843 108.041C83.7795 106.849 83.6843 106.63 83.0495 106.567C82.6369 106.504 82.3195 106.253 82.2878 105.877Z" fill="#231512"/>
<path d="M88.9846 107.037C88.9529 106.473 89.2385 106.002 89.8416 105.563C90.3177 105.187 91.2063 104.905 91.8411 104.905C92.5076 104.873 93.3011 105.124 93.7772 105.501C94.4119 105.971 94.4754 106.159 94.0946 106.285C93.8406 106.379 93.0472 106.504 92.3489 106.536C91.6507 106.598 91.1111 106.786 91.1429 106.943C91.1746 107.1 91.4602 107.32 91.7776 107.351C92.095 107.414 92.825 107.696 93.3963 107.978C93.9993 108.292 94.5071 108.825 94.6024 109.295C94.6976 109.734 94.6976 110.393 94.6024 110.801C94.4754 111.271 94.0311 111.616 93.2059 111.836C92.5711 112.024 91.5872 112.087 91.0794 111.993C90.5716 111.867 89.8733 111.522 89.5559 111.24C89.2385 110.958 88.9846 110.519 89.0164 110.33C89.0164 110.017 89.4925 109.985 90.9207 110.174C92.5076 110.362 92.825 110.299 92.825 109.923C92.825 109.609 92.3807 109.358 91.492 109.233C90.7303 109.107 89.8733 108.731 89.5559 108.449C89.2385 108.135 88.9846 107.508 88.9846 107.037Z" fill="#231512"/>
<path d="M57.0557 109.358C57.5317 108.041 58.1665 106.63 58.4204 106.253C58.6743 105.814 59.1821 105.532 59.6582 105.532C60.1978 105.532 60.6421 105.846 61.0864 106.567C61.4356 107.1 62.0069 108.48 62.3877 109.609C62.7369 110.738 62.959 111.836 62.8638 112.055C62.7369 112.306 62.2925 112.369 61.626 112.275C61.0865 112.181 60.1026 112.024 59.4995 111.93C58.833 111.804 58.103 111.93 57.6587 112.181C57.0874 112.494 56.8652 112.526 56.5478 112.181C56.2622 111.867 56.3574 111.303 57.0557 109.358Z" fill="#231512"/>
<path d="M64.9586 112.432C64.8316 112.432 64.7681 111.271 64.8316 109.86C64.8951 108.104 65.022 107.414 65.2125 107.727C65.4029 107.978 65.5298 108.825 65.5298 109.609C65.5298 110.393 65.4664 111.334 65.3712 111.742C65.2759 112.118 65.1172 112.432 64.9586 112.432Z" fill="#231512"/>
<path d="M106.187 70.6896C107.266 70.7209 107.742 70.6269 107.742 70.376V70.3446C107.742 70.1564 107.806 70.0623 107.901 70.1878C107.996 70.3446 107.964 70.5955 107.837 70.7837C107.679 71.0032 107.107 71.0973 106.568 71.0346C105.87 70.9405 105.52 71.0346 105.52 71.2855C105.52 71.5363 106.092 71.7245 107.044 71.8186C107.869 71.8813 107.552 71.8813 106.314 71.8186C105.076 71.7559 104.029 71.6304 103.934 71.5363C103.838 71.4423 103.965 71.1914 104.219 71.0032C104.441 70.7837 105.33 70.6582 106.187 70.6896Z" fill="#472015"/>
<path d="M108.06 78.9377C108.567 77.4637 109.075 75.3625 109.234 74.2335C109.393 72.6026 109.488 72.3831 109.646 73.1358C109.742 73.6376 109.646 75.2684 109.393 76.7424C109.17 78.2791 108.44 80.7253 107.71 82.5443C106.98 84.2692 106.346 85.9 106.219 86.1509C106.092 86.4959 106.282 86.4331 106.822 85.9941C107.361 85.555 107.298 85.6805 106.631 86.4018C106.123 86.9663 104.886 87.8131 103.934 88.3148C102.981 88.8166 101.617 89.3811 100.918 89.538C100.22 89.7261 98.9823 89.9457 98.1571 90.0397C97.0145 90.1652 96.6654 90.1338 96.7288 89.8202C96.7606 89.632 97.0145 89.1303 97.2684 88.7225C97.5858 88.2521 98.5697 87.7503 100.284 87.2172C101.68 86.7781 103.33 86.0882 103.934 85.6805C104.537 85.2728 105.52 84.1751 106.092 83.2656C106.631 82.3561 107.52 80.4117 108.06 78.9377Z" fill="#472015"/>
<path d="M92.5076 76.4288C92.698 76.8365 92.7615 76.8051 92.9202 76.3347C93.0472 76.0524 93.1741 75.8015 93.2059 75.8015C93.2693 75.8015 92.8567 77.1501 92.3489 78.7809C91.6189 81.0389 91.2698 81.7603 90.8572 81.7603C90.5398 81.7603 90.2859 81.6034 90.2859 81.4466C90.2859 81.2585 90.7303 79.9726 91.2698 78.53C91.9363 76.7737 92.3489 76.1152 92.5076 76.4288Z" fill="#472015"/>
<path d="M87.0168 79.314C86.9851 79.1886 87.8738 78.4986 89.0164 77.746C90.159 77.0246 91.0794 76.4288 91.0794 76.4288C91.0794 76.4288 90.6985 77.6519 90.1907 79.1572C89.3972 81.6348 89.2068 81.9798 87.1121 83.0147V81.2898C87.1121 80.349 87.0803 79.4709 87.0168 79.314Z" fill="#472015"/>
<path d="M64.3872 111.867C64.4825 111.428 64.6094 110.299 64.6412 109.359C64.704 107.807 64.7046 107.821 64.7968 109.765L64.7998 109.829C64.8633 111.209 64.7681 112.15 64.5459 112.338C64.2603 112.557 64.2286 112.432 64.3872 111.867Z" fill="#472015"/>
<path d="M98.9823 69.0277C99.4901 68.1495 100.188 66.9892 100.569 66.456V66.4247C100.982 65.7661 101.49 65.4211 101.934 65.4211C102.347 65.4211 103.045 65.6093 103.553 65.8601C104.029 66.0797 105.171 67.0833 106.092 68.0555C106.98 69.0277 107.742 70.0312 107.742 70.2821C107.742 70.6271 107.456 70.7212 106.568 70.6271C105.901 70.5958 105.044 70.6585 104.663 70.7839C104.251 70.9407 103.933 71.1916 103.933 71.3798C103.933 71.568 104.473 71.7561 105.14 71.8502C105.774 71.9443 107.012 72.0384 109.392 72.1638L109.17 74.2023C109.075 75.3314 108.536 77.4326 108.028 78.9066C107.52 80.3806 106.631 82.325 106.092 83.2345C105.52 84.144 104.536 85.2103 103.933 85.618C103.33 86.0257 102.473 86.4334 102.029 86.5588C101.585 86.7157 100.918 86.7157 100.537 86.6216C99.9344 86.4648 99.8075 86.2452 99.9027 85.4612C99.9661 84.5517 99.8392 84.3949 97.9031 83.3913C96.2845 82.5446 95.3323 82.2937 93.4597 82.1369C92.1585 82.0428 91.238 81.886 91.4285 81.7605C91.6189 81.6664 91.8728 80.9451 91.9998 80.1611C92.095 79.377 92.6345 77.8403 93.1741 76.7426C93.7454 75.6136 95.0149 73.826 96.1258 72.6656C97.2049 71.5366 98.5062 69.8744 98.9823 69.0277Z" fill="#B96B23"/>
<path d="M107.583 82.7641C108.409 80.8197 109.17 78.3735 109.392 76.9308C109.773 74.5787 109.805 74.516 110.091 75.5195C110.302 76.2304 110.281 77.3176 110.027 78.7812C109.805 80.0043 109.202 81.8232 108.694 82.8582C108.186 83.8931 107.488 85.0535 107.139 85.4298C106.758 85.8375 106.409 86.1511 106.314 86.1511C106.219 86.1511 106.79 84.6458 107.583 82.7641Z" fill="#B96B23"/>
<path d="M90.2224 79.4084C90.635 78.0285 91.2698 76.5858 91.6189 76.1781L91.6189 76.1781C91.9998 75.8018 92.3172 75.4882 92.3489 75.4882C92.3806 75.4882 91.8728 76.8367 91.2063 78.4675C90.5081 80.0983 89.9685 81.6664 89.9685 81.9173C89.9685 82.1682 89.7146 82.3877 89.4289 82.3877C89.0798 82.3877 88.9846 82.2937 89.175 82.1369C89.3655 82.0114 89.8415 80.7883 90.2224 79.4084Z" fill="#B96B23"/>
<path d="M57.2145 22.7997C57.1828 22.6429 58.0715 22.2666 59.214 22.0157C60.5153 21.7021 62.1657 21.5766 63.7844 21.6707C65.1809 21.7334 66.863 21.9843 67.5295 22.2038C68.4817 22.5175 68.7039 22.737 68.5769 23.1447C68.4817 23.4583 68.5134 23.7092 68.7039 23.7092C68.8626 23.7092 69.0213 23.9287 69.0213 24.1796C69.0213 24.4305 69.1482 24.5873 69.3386 24.4932C69.4973 24.3992 69.656 24.4619 69.656 24.6501C69.656 24.8382 68.8308 24.9637 67.8152 24.9637C66.4187 24.9637 65.53 24.7441 63.9431 23.9601C62.4514 23.2388 61.4357 22.9565 60.2932 22.9879C59.4045 22.9879 58.1349 23.1761 57.4367 23.3642C56.4845 23.6778 56.0719 23.6778 55.8498 23.3956C55.6276 23.1447 55.6911 23.1133 56.1671 23.3015C56.6432 23.4583 56.7384 23.4269 56.548 23.1447C56.3999 22.8938 56.4845 22.8206 56.8019 22.9252C57.0558 23.0192 57.2463 22.9565 57.2145 22.7997Z" fill="#F2CC94"/>
<path d="M78.3841 23.5524C78.638 23.6465 78.8602 23.5838 78.8602 23.3956C78.8285 23.2388 79.0506 23.1761 79.3363 23.2388C79.5902 23.3329 79.7489 23.521 79.6537 23.7092C79.5585 23.866 79.6854 23.9601 79.8758 23.866C80.098 23.7719 80.7963 23.9915 81.3993 24.3678C82.3197 24.9009 82.4149 25.0891 82.0341 25.34C81.6532 25.5909 81.6532 25.6223 82.0975 25.4655C82.5101 25.34 82.7323 25.4655 82.8275 25.9045C82.9545 26.4063 82.8593 26.5004 82.4149 26.3436C82.1293 26.2181 81.558 26.3436 81.1771 26.5631C80.5106 26.9708 80.225 26.9081 78.4794 26.03C77.3685 25.5282 76.4481 24.9323 76.3846 24.7128C76.3529 24.4932 76.5116 24.3678 76.702 24.3992C76.9242 24.4619 77.0511 24.2737 76.9876 24.0228C76.9242 23.6465 76.9876 23.6151 77.4002 23.9287C77.7811 24.2424 77.9715 24.2424 78.0985 23.9601C78.2254 23.7406 78.162 23.7092 77.9398 23.866C77.7176 24.0228 77.6541 23.9915 77.7494 23.7719C77.8446 23.5524 78.1302 23.4583 78.3841 23.5524Z" fill="#F2CC94"/>
<path d="M43.2178 29.8875C43.5669 30.0443 43.6939 30.0129 43.5987 29.8247C43.4717 29.6366 43.7891 29.5425 44.3921 29.6366C45.3126 29.7306 45.2808 29.762 43.4717 30.5147C42.4243 30.9224 41.2818 31.3615 40.9326 31.4555C40.3931 31.581 40.4248 31.5183 41.0913 30.9851C41.5357 30.6401 41.98 30.3892 42.107 30.4833C42.2657 30.546 42.4243 30.3892 42.5196 30.1383C42.6254 29.8247 42.8581 29.7411 43.2178 29.8875Z" fill="#F2CC94"/>
<path d="M92.0317 31.2987C91.2383 30.4833 90.5717 29.762 90.6035 29.6679C90.6035 29.5738 91.27 30.1697 92.0952 30.9851C92.9521 31.8005 93.8091 32.8982 93.9995 33.4313C94.2217 33.9331 94.3169 34.4349 94.1582 34.529C94.0312 34.5917 93.7456 34.2781 93.5234 33.8077C93.3013 33.3372 93.206 32.9295 93.3013 32.8668C93.3965 32.8355 92.8252 32.1455 92.0317 31.2987Z" fill="#F2CC94"/>
<path d="M47.0264 110.267C46.963 111.208 46.9312 110.518 46.9312 108.699C46.9312 106.88 46.963 106.096 47.0264 106.974C47.0899 107.821 47.0899 109.327 47.0264 110.267Z" fill="#F2CC94"/>
<path d="M42.9322 108.135C42.9004 107.821 42.9956 107.476 43.1226 107.351C43.2496 107.257 43.5352 107.225 43.7891 107.319C44.0113 107.382 44.2334 107.821 44.2334 108.229C44.2652 108.668 44.2017 109.013 44.1065 109.013C44.0113 109.013 43.7256 108.95 43.4717 108.856C43.2178 108.762 42.9639 108.448 42.9322 108.135Z" fill="#F2CC94"/>
<path d="M51.2474 26.6876C51.2157 26.4994 51.184 26.2799 51.2157 26.1545V26.1231C51.2157 25.9976 51.4061 25.9036 51.5648 25.9036C51.7553 25.9036 51.8822 26.029 51.8822 26.2172C51.8822 26.374 51.4061 27.0012 50.8666 27.5657C50.2953 28.1302 50.0731 28.3184 50.3905 27.9734C50.6762 27.5971 50.8348 27.2208 50.7079 27.0953C50.5492 26.9385 50.2636 27.0326 50.0096 27.2521C49.6288 27.5657 49.597 27.5344 49.9144 26.9071C50.2318 26.3426 50.3905 26.2799 50.8031 26.5935C51.0888 26.8131 51.2792 26.8758 51.2474 26.6876Z" fill="#8D7D5E"/>
<path d="M39.1233 33.4931C39.7264 32.3954 40.3294 31.7055 40.8055 31.5487C41.2181 31.4232 41.6307 31.3291 41.6941 31.2978C41.7576 31.2664 41.345 31.7368 40.8055 32.27C40.2342 32.8345 39.5042 34.089 39.1551 35.0298C38.7107 36.1902 38.552 37.1624 38.679 38.0092C38.7742 38.8873 38.7425 39.0755 38.552 38.6364C38.3933 38.2914 38.2664 37.3819 38.2664 36.5979C38.2346 35.5943 38.4885 34.6848 39.1233 33.4931Z" fill="#8D7D5E"/>
<path d="M35.7908 61.3736C36.489 61.1854 36.9651 60.8718 36.9651 60.5896C36.9651 60.3387 37.1238 60.1191 37.2825 60.1191C37.4729 60.1191 37.822 60.3387 38.0759 60.5896C38.4251 60.9346 38.4568 61.1854 38.2346 61.5304C38.0125 61.844 37.6951 61.9381 37.219 61.7813C36.6795 61.6245 36.5525 61.6559 36.7429 61.9381C36.891 62.189 36.8064 62.2622 36.489 62.1577C36.2351 62.0636 35.8225 62.1263 35.6321 62.3145C35.3464 62.534 34.9021 62.2831 34.1086 61.4363C33.5056 60.8091 33.3469 60.5896 33.7912 60.9659C34.4895 61.5618 34.7434 61.6245 35.7908 61.3736Z" fill="#8D7D5E"/>
<path d="M76.8922 100.262C76.5748 100.262 76.3209 100.168 76.3209 100.043V100.011C76.3209 99.8857 77.0509 99.7917 77.9078 99.7917C78.8283 99.7917 79.463 99.9171 79.3995 100.105C79.3361 100.262 78.5426 100.795 77.6539 101.266C76.4796 101.893 75.8448 102.05 75.464 101.862C74.9879 101.642 75.0831 101.485 76.1622 100.952C76.8922 100.576 77.1779 100.293 76.8922 100.262Z" fill="#8D7D5E"/>
<path d="M86.0646 109.859C86.0012 110.549 85.9377 110.141 85.9377 108.918C85.9377 107.695 86.0012 107.162 86.0646 107.663C86.1281 108.165 86.1281 109.169 86.0646 109.859Z" fill="#8D7D5E"/>
<path d="M77.3683 112.336C77.8126 112.242 77.9078 111.803 77.9713 109.921L78.0348 107.663L78.13 109.702C78.1935 110.831 78.1617 111.929 78.0665 112.117C77.9713 112.336 77.6539 112.493 77.3683 112.493C76.8287 112.462 76.8287 112.43 77.3683 112.336Z" fill="#8D7D5E"/>
<path d="M42.0436 86.5882C42.0436 86.3373 42.5832 85.8355 43.2497 85.5219H43.218C43.8845 85.2083 44.9953 84.926 45.6936 84.8947C46.614 84.8947 46.8362 84.9574 46.487 85.1769C46.1379 85.3964 46.3283 85.4905 47.1853 85.4905C47.8518 85.4905 48.3914 85.616 48.3914 85.8041C48.3914 85.961 48.0422 86.1178 47.5979 86.1178C47.1536 86.1178 46.7409 86.3373 46.6457 86.5882C46.5505 86.8391 46.011 87.1527 45.4397 87.2468C44.9001 87.3722 44.0432 87.6545 43.5354 87.874C42.9958 88.1563 42.7102 88.5012 42.8054 88.8462C42.8688 89.1598 42.7736 89.6303 42.6149 89.8812C42.361 90.2575 42.3293 90.2575 42.488 89.7871C42.5832 89.5048 42.5515 89.1912 42.361 89.0971C42.1706 89.003 41.8215 89.1598 41.5676 89.4107C41.155 89.8184 41.2819 90.038 42.7419 91.3238C44.1066 92.5155 44.2336 92.7037 43.3767 92.2646C42.8371 91.9824 41.4723 90.9161 40.3615 89.8498C38.6159 88.1563 38.5207 87.9995 39.568 88.5953C40.7106 89.2226 40.8058 89.2226 41.0597 88.6894C41.1867 88.4072 41.2819 87.9681 41.2184 87.7486C41.155 87.5604 41.3137 87.3095 41.5676 87.2154C41.8215 87.1213 42.0436 86.8391 42.0436 86.5882Z" fill="#515647"/>
<path d="M90.0006 86.5882C90.1593 86.6823 90.318 86.3687 90.318 85.8669C90.318 85.3964 90.4132 85.1455 90.5402 85.271C90.6671 85.4278 90.8575 85.7728 90.8893 86.055C90.9528 86.3687 91.0162 86.9332 90.9845 87.3722C90.9845 87.8113 90.8575 88.2504 90.7306 88.3758C90.6036 88.5326 90.2863 88.1249 90.0641 87.529C89.8419 86.9018 89.8102 86.4941 90.0006 86.5882Z" fill="#515647"/>
<path d="M47.312 85.0528C47.6294 85.1155 48.1054 84.99 48.3593 84.7078C48.5815 84.4569 48.8672 84.2374 48.9941 84.2374C49.0893 84.2374 49.6924 84.4569 50.2954 84.7392C50.8984 85.0528 51.6284 85.3037 51.8823 85.3664C52.1362 85.3977 52.4854 85.4605 52.644 85.4605C52.8345 85.4918 52.8027 85.68 52.5806 85.8995C52.3584 86.0877 52.1997 86.5268 52.1997 86.8404C52.1997 87.1226 52.0093 87.4049 51.8188 87.4363C51.5967 87.4363 51.1841 87.4676 50.9302 87.499C50.6445 87.5303 50.4223 87.9067 50.3906 88.4712C50.3271 88.973 50.0732 89.6316 49.8193 89.8825C49.5337 90.1334 49.3115 90.5411 49.3432 90.7292C49.3432 90.9488 48.9624 91.3251 48.4863 91.576C47.9785 91.8269 46.8994 92.0151 46.0107 92.0464C45.1537 92.0464 44.2016 92.2346 43.9477 92.4541C43.6938 92.6737 43.5668 92.7364 43.7255 92.6109C43.8525 92.4855 43.5351 92.0464 42.9955 91.6074C42.1068 90.886 42.0751 90.7606 42.4877 90.102C42.7416 89.7257 42.8686 89.1611 42.8051 88.8475C42.7099 88.5026 42.9638 88.1576 43.5668 87.8753C44.0429 87.6558 44.8998 87.3735 45.4711 87.2481C46.0107 87.154 46.5502 86.8404 46.6455 86.5895C46.7407 86.3386 47.1533 86.1191 47.5976 86.1191C48.042 86.1191 48.3911 85.9936 48.3911 85.8054C48.3911 85.6173 47.8515 85.4918 47.2168 85.4918C46.4127 85.4918 46.1271 85.3873 46.3598 85.1782C46.5502 85.0214 46.9628 84.9587 47.312 85.0528Z" fill="#4B4E40"/>
<path d="M53.4381 85.554C53.8824 85.3345 54.6124 84.9581 55.0567 84.7386C55.5011 84.4877 55.8819 84.2682 55.9137 84.2682C55.9454 84.2368 55.7867 84.5504 55.5328 84.9268C55.3106 85.3345 54.9615 86.683 54.7711 87.9061C54.5807 89.1606 54.422 90.6973 54.422 91.2932C54.422 92.2654 54.3267 92.3908 53.6285 92.3908C53.1842 92.3908 52.4542 92.7358 51.9781 93.1435C51.4703 93.5512 50.7086 93.9903 50.2325 94.0844C49.7247 94.1784 49.3438 94.4293 49.3438 94.5861C49.3438 94.743 49.5977 94.8998 49.8834 94.9311C50.2007 94.9311 50.3277 95.0252 50.1373 95.0879C49.9468 95.182 49.3121 95.0252 48.709 94.7743C47.9685 94.4398 47.8627 94.3353 48.3916 94.4607C49.0581 94.5861 49.0899 94.5548 48.6455 94.2725C48.3282 94.1157 47.8521 94.0216 47.5982 94.1157C47.3443 94.2098 46.8999 94.2098 46.646 94.1157C46.3604 94.0216 46.2652 93.8021 46.3921 93.5826C46.5825 93.3003 46.4873 93.269 46.0112 93.4258C45.6621 93.5826 45.4717 93.5826 45.6304 93.4258C45.7573 93.3003 45.4717 92.924 44.1069 92.0772L45.0591 92.0459C45.5986 92.0145 46.3286 92.0145 46.7095 92.0459C47.1221 92.0772 47.8838 91.8577 48.3916 91.6068C48.8995 91.3559 49.3438 90.9482 49.3438 90.7287C49.3121 90.5405 49.5342 90.1328 49.8199 89.8819C50.0738 89.631 50.3277 88.9724 50.3912 88.4706C50.4229 87.9061 50.6451 87.5298 50.9307 87.4984C51.1846 87.467 51.5972 87.4357 51.7877 87.4357C52.0098 87.4043 52.2955 87.0593 52.3907 86.683C52.5177 86.3067 52.962 85.8049 53.4381 85.554Z" fill="#454739"/>
<path d="M89.7467 75.0804C90.8258 74.4218 92.5714 73.1987 93.6188 72.352C94.6661 71.4738 95.5866 70.7839 95.6818 70.7839C95.777 70.7839 95.047 71.5052 94.0631 72.4147C93.0792 73.3242 91.2701 74.5786 90.0958 75.2372C88.8897 75.8645 87.8741 76.3663 87.8424 76.3349C87.8106 76.2722 88.6676 75.7077 89.7467 75.0804Z" fill="#EFDAB3"/>
<path d="M81.082 94.1797C81.7486 93.1134 82.4151 91.6394 82.542 90.8867C82.6372 90.1654 82.7959 89.5695 82.8911 89.5695C82.9546 89.5695 82.9546 90.1968 82.8594 90.9808C82.7642 91.7648 82.3833 92.9252 82.0342 93.5525C81.6851 94.2111 81.0503 95.1519 80.606 95.685C80.1616 96.1868 79.8125 96.5318 79.8125 96.375C79.8125 96.2496 80.3838 95.2773 81.082 94.1797Z" fill="#EFDAB3"/>
<path d="M89.0165 44.345C90.3178 44.1568 91.9682 43.7805 92.6347 43.4668C93.3329 43.1532 94.0312 42.9964 94.2216 43.1219C94.412 43.2159 95.142 44.5959 95.9038 46.1326C96.6337 47.6693 97.6176 50.241 98.0937 51.7777C98.9189 54.3807 98.9824 55.0393 99.0141 65.2632L97.9985 67.3958C97.4272 68.5562 96.8242 69.497 96.6337 69.497C96.4751 69.497 96.3798 69.5911 96.4751 69.7479C96.5385 69.8734 95.7768 70.626 94.7294 71.4728C93.6821 72.2882 92.8886 73.0723 92.9838 73.2604C93.079 73.4486 92.9521 73.6681 92.7616 73.8249C92.4866 73.9713 92.4337 73.919 92.6029 73.6681C92.7299 73.4486 92.7299 73.2604 92.6029 73.2604C92.4443 73.2291 92.1586 73.4172 91.9682 73.6368C91.746 73.8563 91.6508 74.1699 91.8095 74.3267C91.9364 74.4835 91.8412 74.5149 91.6508 74.4208C91.4286 74.2954 90.9525 74.3267 90.6034 74.5149C90.2543 74.7031 90.0321 74.954 90.1273 75.1421C90.2226 75.3303 90.0639 75.3617 89.7465 75.2362C89.3339 75.0794 89.2387 75.1108 89.4291 75.393C89.556 75.6126 89.4926 75.7066 89.2704 75.6125C89.0482 75.5185 88.5721 75.6753 88.223 75.9889C87.8739 76.3025 87.3026 76.5848 86.9535 76.6475C86.6044 76.7102 86.1918 76.9297 86.0013 77.1179C85.8426 77.3374 85.4935 77.4943 85.3031 77.4943C85.0809 77.4943 84.7635 77.5256 84.5731 77.5883C84.4144 77.6197 84.3192 77.7765 84.4144 77.9647C84.5096 78.1528 84.2874 78.1842 83.8748 78.0588C83.3353 77.902 83.2083 77.9333 83.3988 78.2156C83.5469 78.4665 83.3882 78.6024 82.9227 78.6233C82.5101 78.6546 82.0023 78.6546 81.8118 78.6233C81.5897 78.6233 81.3992 78.686 81.3992 78.8428C81.3992 78.9683 80.5106 79.2505 79.4314 79.5014C77.5906 79.8777 77.4954 79.9405 78.2254 80.2541C78.6697 80.4422 79.1458 80.5991 79.3362 80.5991C79.4949 80.6304 80.1932 81.5399 80.8279 82.6689C81.4944 83.7979 82.2879 85.4915 82.5736 86.4323C82.9862 87.9063 83.0179 88.4708 82.7005 90.1957C82.4783 91.3561 81.9071 92.8928 81.3675 93.7396C80.8597 94.555 80.4471 95.2763 80.4471 95.3704C80.4471 95.4645 80.6375 95.4331 80.8597 95.3077C81.1136 95.1404 81.1665 95.1927 81.0184 95.4645C80.8597 95.6527 80.6375 95.7781 80.4471 95.684C80.2884 95.5899 80.0027 95.8722 79.8123 96.3113C79.6536 96.7503 79.1141 97.2835 78.638 97.5344C78.1302 97.7853 77.178 98.0361 76.4798 98.0989C75.2737 98.193 75.2102 98.1302 74.9246 97.0953C74.7024 96.2799 74.7341 95.5899 75.115 94.4296C75.3689 93.5828 75.7498 92.8928 75.9402 92.9556C76.1624 92.9869 76.2576 92.8301 76.1941 92.6419C76.1624 92.4224 76.6385 91.4502 77.3367 90.5093C78.0032 89.5685 78.5428 88.5022 78.5428 88.1572C78.5428 87.8122 78.3841 87.3418 78.1619 87.1223C77.9397 86.9028 77.6541 86.7459 77.5271 86.7459C77.3684 86.7459 76.7019 87.8436 75.9719 89.1922C75.2737 90.5093 74.4802 92.4538 74.1946 93.4887C73.9407 94.555 73.8137 95.8722 73.9089 96.5621C74.0994 97.6598 74.0359 97.7539 73.0837 98.0989C72.5124 98.3184 71.0525 98.4752 69.8147 98.5066C68.6086 98.5066 67.0534 98.4125 66.4186 98.287C65.4982 98.0989 65.2126 97.8793 65.2126 97.4089C65.2126 97.0639 65.0856 96.4994 64.8952 96.1544C64.7365 95.8095 64.4508 95.5272 64.2604 95.5272C64.1017 95.5272 64.0382 95.7154 64.1335 95.9349C64.2287 96.1231 64.1652 96.6249 63.9748 97.0326C63.7526 97.4403 63.34 97.7225 62.9274 97.7225C62.5148 97.7225 61.7531 97.4089 61.2135 97.0326C60.6422 96.6249 59.8805 95.8722 59.4679 95.3704C59.0553 94.8686 58.5157 94.2727 58.2936 94.1159C58.0079 93.9278 57.8175 93.1751 57.8175 92.2342C57.7857 91.3875 57.8492 90.3212 57.9444 89.8821C58.0714 89.443 58.484 88.314 59.7218 85.6483L59.5948 87.8436C59.4996 89.0667 59.5948 90.4153 59.7853 90.917C60.0074 91.4502 60.3883 91.7638 60.7692 91.7638C61.3087 91.7638 61.3722 91.6384 61.1818 90.917C61.0231 90.4153 60.9279 89.0667 60.9279 87.8436C60.9279 86.6205 61.15 84.8642 61.4039 83.8607C61.8165 82.2926 61.8165 82.0417 61.4039 81.6026C60.9596 81.1322 60.8644 81.1322 60.2931 81.634C59.8805 81.979 59.9122 81.8849 60.3883 81.4145C60.9596 80.7872 61.4674 80.5991 62.9274 80.5363C63.9113 80.505 64.8952 80.3168 65.0539 80.16C65.2443 79.9718 64.8634 79.7523 63.943 79.5328C63.1496 79.3446 61.4674 78.9055 60.2296 78.5605C58.9601 78.2469 57.151 77.5883 56.2623 77.1493C55.3419 76.6788 53.5963 75.6125 52.3902 74.7031C51.1841 73.8249 49.8194 72.6018 49.3116 72.006C48.8355 71.4101 47.8833 69.7793 47.2168 68.3994C46.0425 65.9845 46.0107 65.765 46.0107 62.5975C46.0107 60.7785 46.106 58.9281 46.2647 58.4577C46.3916 57.9559 46.8677 57.1405 47.3755 56.576C47.8516 56.0429 49.4385 54.7884 50.9302 53.8162C52.4219 52.8126 54.4849 51.5895 55.5323 51.0877C56.5797 50.5546 59.4362 49.4883 61.88 48.7042C64.3239 47.9202 67.7517 47.0107 69.4973 46.6657C71.2429 46.3207 74.0359 45.8817 75.6863 45.6935C77.3367 45.5053 80.4788 45.2231 82.6688 45.0349C84.8587 44.8467 87.7152 44.5331 89.0165 44.345Z" fill="#F2CC94"/>
<path d="M26.8089 82.5114C27.1897 82.7623 27.2215 82.6055 27.031 81.4137C26.9041 80.5042 26.9358 80.1592 27.1263 80.4729C27.4119 80.8806 27.4436 80.8806 27.4436 80.4729C27.4754 80.0965 27.5389 80.1279 27.761 80.5356C27.9515 80.8806 27.9515 81.2569 27.7928 81.5078C27.6341 81.7273 27.6658 82.48 27.888 83.3268C28.1102 84.2363 28.1102 84.7067 27.9197 84.5499C27.761 84.3931 27.3167 83.8286 26.9676 83.2327C26.555 82.5741 26.4915 82.3232 26.8089 82.5114Z" fill="#899519"/>
<path d="M49.0259 82.48C49.3433 82.6055 49.9463 82.2291 50.7715 81.4137C51.438 80.7238 52.0728 80.1592 52.168 80.1592C52.2632 80.1592 51.8506 80.6297 51.311 81.1942C50.7398 81.7587 50.2002 82.5427 50.1367 82.9191C50.0415 83.3268 50.2002 83.7658 50.4858 83.9854C50.8984 84.3303 51.0571 84.299 51.2476 83.9226C51.4063 83.6717 51.7236 83.2013 51.9458 82.9191C52.2315 82.5427 52.8662 82.3546 54.104 82.3232C55.0562 82.2918 56.1353 82.4173 56.4844 82.5427C57.024 82.7936 57.0557 82.7309 56.8653 82.135C56.7383 81.696 56.7701 81.4764 56.9605 81.5705C57.1509 81.6646 57.2779 81.8528 57.2779 82.0409C57.2779 82.2291 56.8018 82.9191 56.2623 83.609C55.691 84.3303 54.7706 85.0203 54.2627 85.2085C53.7549 85.3653 52.8662 85.4594 52.3584 85.3966C51.8506 85.3339 50.8984 85.0203 50.2954 84.738C49.4385 84.3617 48.9307 84.299 48.0737 84.5499C47.4707 84.738 46.455 84.8635 45.852 84.8635C45.249 84.8635 44.1381 85.1457 43.4081 85.4907C42.6464 85.8357 42.0434 86.3375 42.0434 86.5884C42.0434 86.8393 41.8212 87.1215 41.5673 87.2156C41.3134 87.3097 41.1547 87.5606 41.2182 87.7801C41.2817 87.9683 41.1864 88.4074 41.0595 88.721C40.8056 89.2228 40.7104 89.2228 38.3935 87.8742L39.663 89.4109L38.9013 88.7837C38.5204 88.4387 37.8222 87.592 37.4413 86.902C37.0287 86.212 36.5209 85.2712 36.3622 84.8008C36.14 84.2363 36.14 83.9854 36.3304 84.0794C36.5209 84.1735 37.3143 83.8913 38.1713 83.4836C38.9965 83.0759 40.2343 82.5741 40.9325 82.3859C41.6308 82.1977 42.9955 82.0409 43.9477 82.0096C44.8999 81.9782 46.2646 82.0723 46.9629 82.2291C48.042 82.4486 48.1689 82.4173 47.915 82.0096C47.6929 81.696 47.7246 81.6332 48.0102 81.8214C48.2007 81.9469 48.3276 82.135 48.2641 82.2918C48.1689 82.4173 48.4228 82.6995 48.8037 82.9504C49.4702 83.3581 49.4702 83.3581 49.0259 82.8563C48.6133 82.3546 48.6133 82.3232 49.0259 82.48Z" fill="#899519"/>
<path d="M50.1367 94.1152C50.6445 93.9897 51.5015 93.5507 51.9776 93.143C52.4854 92.7353 53.2471 92.3903 53.6597 92.3903C54.2627 92.3903 54.4532 92.5785 54.6119 93.4252C54.7388 94.0943 54.6542 94.502 54.3579 94.6483C54.1358 94.7738 53.6597 94.8992 53.3106 94.9306C52.9615 94.9619 52.168 95.056 51.565 95.0874C50.9619 95.1501 50.1685 94.9933 49.8193 94.7738C49.2163 94.3661 49.2163 94.3347 50.1367 94.1152Z" fill="#899519"/>
<path d="M51.3432 81.1017C51.8827 80.5058 52.581 79.8472 52.8349 79.6277C53.0888 79.4081 53.5332 79.22 53.7871 79.22C54.041 79.22 54.644 79.4709 55.1201 79.8472C55.6279 80.1922 56.2309 80.9135 56.4848 81.4153C56.7387 81.9171 56.9609 82.4189 56.9609 82.5129C56.9609 82.607 56.707 82.5757 56.4214 82.4816C56.104 82.3561 55.0566 82.2934 54.1044 82.3248C52.8666 82.3561 52.2319 82.5443 51.9462 82.9206C51.7241 83.2029 51.4067 83.6733 51.248 83.9242C51.0575 84.3006 50.8989 84.3319 50.4863 83.9869C50.1689 83.7674 50.0419 83.3284 50.1371 82.8893C50.2323 82.5129 50.7719 81.6975 51.3432 81.1017Z" fill="#899519"/>
<path d="M41.0278 35.1874C41.4404 34.6857 42.107 34.1525 42.4878 34.0271C42.8369 33.9016 43.6304 33.7762 44.17 33.7762C44.7413 33.7448 45.2173 33.8075 45.2173 33.9016C45.2173 33.9957 44.6778 34.2152 44.0113 34.4034C43.3765 34.5916 42.3609 35.1874 41.7896 35.7519C41.1865 36.2851 40.52 37.1005 40.2661 37.6023C40.0122 38.0727 39.7583 38.4177 39.6631 38.3863C39.5679 38.3236 39.6631 37.7905 39.8535 37.1946C40.0757 36.5987 40.5835 35.6892 41.0278 35.1874Z" fill="#231512"/>
<path d="M69.9099 37.0378C69.8782 36.7869 70.2908 36.3792 70.7986 36.1283C71.3064 35.8774 72.1634 35.6579 72.6712 35.6579C73.179 35.6265 73.8138 35.7519 74.0677 35.9088C74.3216 36.0656 74.4168 36.4419 74.2899 36.8496C74.1946 37.1946 73.8455 37.6336 73.5281 37.7905C73.2425 37.9159 72.5125 38.1354 71.9412 38.2609C71.243 38.3863 70.7669 38.2922 70.4495 37.9786C70.1956 37.7277 69.9417 37.2887 69.9099 37.0378Z" fill="#231512"/>
<path d="M62.737 38.7627C62.8005 38.1354 63.1496 37.8845 64.4192 37.4455C65.2761 37.1632 66.2917 36.881 66.6409 36.881C66.99 36.881 67.4343 37.0378 67.6565 37.2573C67.9739 37.5709 67.9421 37.8218 67.5295 38.3863C67.2439 38.7627 66.6091 39.2958 66.1013 39.5467C65.6252 39.7976 64.8318 40.0171 64.3239 40.0171C63.8479 40.0171 63.2766 39.8917 63.0544 39.7662C62.8322 39.6408 62.6735 39.2017 62.737 38.7627Z" fill="#231512"/>
<path d="M46.2647 78.8429C45.4078 77.2434 44.7095 75.7381 44.6778 75.4872C44.6143 75.0795 44.6778 75.0795 45.0269 75.4872C45.2491 75.7381 45.9156 76.8357 46.4551 77.9648C47.0264 79.0938 47.6929 80.3796 47.9468 80.8814C48.2008 81.3518 48.2642 81.7282 48.0738 81.7282C47.8834 81.7282 47.0899 80.411 46.2647 78.8429Z" fill="#231512"/>
<path d="M74.3851 94.2728C74.5755 93.332 75.3372 91.3248 76.0672 89.8195C76.7972 88.2828 77.4954 87.0597 77.6541 87.0597C77.7811 87.0597 77.9715 87.2792 78.0667 87.5301C78.162 87.781 78.2254 88.1887 78.2254 88.4082C78.2572 88.5964 77.5907 89.7881 76.7655 90.9799C75.9403 92.203 75.0833 93.6456 74.8294 94.2101C74.6072 94.7433 74.4168 95.59 74.3851 96.0918C74.3851 96.5622 74.2899 96.7504 74.1946 96.4682C74.0994 96.2173 74.1946 95.2137 74.3851 94.2728Z" fill="#231512"/>
<path d="M42.1706 68.3368C42.0436 68.0232 41.6627 67.5214 41.2819 67.2078C40.6154 66.6433 40.6154 66.6433 41.4088 67.0196C41.8532 67.2391 43.091 68.3368 44.2018 69.4658C45.3127 70.5948 46.5505 72.257 46.9631 73.1038C47.3757 73.9819 47.8835 75.6127 48.0739 76.8045C48.2326 77.9648 48.6135 79.5016 48.8674 80.2542C49.1213 80.9756 49.3435 81.8223 49.3435 82.1359C49.3435 82.575 49.2483 82.6064 48.7087 82.2927C48.3913 82.0732 48.1691 81.8223 48.2326 81.7282C48.3278 81.6341 48.1691 81.2264 47.9152 80.7874C47.6931 80.3483 47.0266 79.0939 46.4553 77.9648C45.9157 76.8358 45.2492 75.7382 45.027 75.55C44.7731 75.3305 44.5827 75.2677 44.5827 75.4559C44.5827 75.6441 44.8683 76.2713 45.2175 76.8672C45.5666 77.463 45.7887 77.9648 45.6935 77.9648C45.5983 77.9648 45.1857 77.369 44.7731 76.6476C44.3605 75.895 43.3131 74.7346 42.4879 74.0133C41.631 73.2919 40.3615 72.4452 39.6632 72.1002C38.965 71.7552 37.9811 71.3475 36.4893 70.9712L38.3937 70.5321L37.6002 70.1558C36.8067 69.8108 36.8067 69.8108 37.7589 69.9362C38.2984 70.0303 39.0602 70.1871 39.5045 70.2812C40.0758 70.4067 39.9806 70.3126 39.1871 69.9049C38.5841 69.6226 37.3463 69.3717 36.4259 69.3717C35.5372 69.3404 34.6803 69.2149 34.5216 69.0895C34.3946 68.9327 34.4898 68.8386 34.7437 68.8699C34.9976 68.9013 35.7276 68.9327 36.3307 68.9013C36.9337 68.9013 37.3146 68.7759 37.1559 68.6504C37.0289 68.525 36.0767 68.3054 33.3155 67.9605L35.3785 68.0859C36.5211 68.1486 38.3937 68.5563 39.5997 68.9954C40.7741 69.4658 41.758 69.7167 41.758 69.5913C41.7897 69.4345 41.7897 69.2463 41.758 69.1208C41.758 68.964 41.8532 68.8699 42.0436 68.8699C42.234 68.8699 42.2658 68.6191 42.1706 68.3368Z" fill="#B96B23"/>
<path d="M103.299 69.5913C102.506 69.4972 101.649 69.309 101.395 69.1522C101.046 68.964 101.204 68.9013 101.871 68.9013C102.379 68.9013 103.267 69.0895 103.775 69.3404C104.727 69.7794 104.727 69.7794 103.299 69.5913Z" fill="#B96B23"/>
<path d="M98.8556 79.2193C99.2047 79.2193 100.76 78.0276 102.506 76.3968C104.156 74.86 105.584 73.5742 105.679 73.5742C105.775 73.5742 105.648 73.9192 105.362 74.3582C104.949 75.0482 104.949 75.1423 105.362 75.1423C105.616 75.1423 105.838 75.2677 105.838 75.4559C105.838 75.6441 105.013 76.4281 104.029 77.2122C103.013 78.0276 101.204 79.1566 99.9665 79.7211C98.7287 80.317 97.713 80.6933 97.6813 80.6306C97.6178 80.5365 97.713 80.1915 97.9035 79.8465C98.0939 79.5016 98.5065 79.2193 98.8556 79.2193Z" fill="#B96B23"/>
<path d="M49.7243 78.8116C49.4704 77.0553 49.2165 75.3932 49.1213 75.1423C48.9943 74.8287 49.28 74.8914 50.01 75.3932C50.613 75.8009 52.8982 76.9926 59.1824 80.0033L57.4368 82.3241L56.9607 81.5087C56.7068 81.0696 56.1038 80.3797 55.596 79.972C55.1199 79.5643 54.3899 79.2193 53.9456 79.2193C53.4377 79.2193 52.5808 79.7211 50.1369 82.0105L49.7243 78.8116Z" fill="#B96B23"/>
<path d="M34.4898 81.5714C34.3311 81.0696 34.0772 80.3483 33.982 80.0033C33.855 79.6584 34.3311 80.5679 35.0611 82.0419C35.7594 83.5158 36.3624 84.7703 36.3624 84.8644C36.3624 84.9585 36.1402 84.8017 35.8546 84.5508C35.5689 84.2999 35.3468 83.8608 35.3785 83.6099C35.3785 83.359 35.2515 83.0141 35.1246 82.8259C34.9659 82.6377 34.6803 82.0732 34.4898 81.5714Z" fill="#B96B23"/>
<path d="M27.8882 83.3277C27.666 82.5436 27.6026 81.7596 27.666 81.6341C27.7612 81.5087 28.2373 81.9478 28.7451 82.6691C29.253 83.359 30.3321 84.3626 31.1573 84.8644C32.0777 85.4289 33.0933 85.8053 33.6964 85.8053C34.4898 85.8053 34.7437 85.6798 34.7437 85.2721C34.7437 84.9585 34.4581 84.0804 34.109 83.2963C33.7598 82.5123 33.5059 81.8537 33.5377 81.791C33.6011 81.7596 34.0137 82.5436 34.4898 83.5159C34.9659 84.5194 35.3785 85.5544 35.3785 85.8053C35.3785 86.0561 36.0133 86.9343 36.8067 87.781C37.6002 88.5964 38.235 89.3805 38.235 89.5687C38.235 89.7568 37.8541 89.9764 37.3463 90.0704C36.8702 90.1959 35.7911 90.0704 34.9024 89.7882C34.0137 89.5059 32.6807 88.8473 31.8873 88.3455C31.0938 87.8438 30.1099 87.0911 29.6656 86.6834C29.2212 86.2757 28.523 85.523 28.0786 85.0212C27.6343 84.5194 27.5073 84.2685 27.7612 84.4567C28.1738 84.739 28.2056 84.6135 27.8882 83.3277Z" fill="#B96B23"/>
<path d="M59.8172 89.0982C59.8172 88.2515 59.9759 86.997 60.1346 86.3698C60.325 85.7112 60.5154 85.178 60.5472 85.178C60.5789 85.178 60.5472 86.213 60.4837 87.4674C60.4202 88.7532 60.5154 90.0077 60.7376 90.4468C60.928 90.8231 61.0233 91.2308 60.928 91.3876C60.8646 91.5131 60.5472 91.3876 60.2933 91.1367C59.9441 90.8231 59.7855 90.1332 59.8172 89.0982Z" fill="#B96B23"/>
<path d="M33.4739 65.2629C33.6644 65.357 33.7913 65.2943 33.7913 65.1061C33.7913 64.9179 34.2991 64.7925 34.9022 64.7925C35.537 64.7925 35.9496 64.9179 35.8543 65.1061C35.7591 65.2943 36.0448 65.5452 36.4891 65.7333C36.9334 65.9215 37.6 66.0469 37.9808 66.0469C38.3934 66.0469 39.2821 66.3292 39.9804 66.6428C40.8373 67.0819 41.3451 67.5523 41.5038 68.1482C41.6625 68.7441 41.6308 69.089 41.3451 69.2145C41.1229 69.3399 39.8851 69.089 38.6473 68.6813C37.2508 68.2109 35.5687 67.9286 34.4261 67.9286C33.3787 67.9286 32.5218 67.8032 32.5218 67.615C32.5218 67.4269 32.0457 67.4896 31.4109 67.7718C30.8079 68.0227 30.2366 68.2423 30.1414 68.2423C30.0462 68.2423 29.9827 68.0227 29.9827 67.7718C29.9827 67.5209 30.427 66.9878 30.9666 66.5801C31.5062 66.2038 32.0775 65.9215 32.2361 65.9842C32.3948 66.0156 32.5218 65.9215 32.5218 65.7333C32.5218 65.5452 32.6487 65.4824 32.8392 65.5765C33.0296 65.6706 33.1566 65.6079 33.1566 65.4197C33.1566 65.2315 33.2835 65.1688 33.4739 65.2629Z" fill="#B96B23"/>
<path d="M38.3934 69.9044C37.6952 69.8103 36.8382 69.6222 36.4891 69.4654C35.9178 69.2458 35.9496 69.2145 36.6478 69.2145C37.0921 69.2145 37.9491 69.434 39.663 70.0926L38.3934 69.9044Z" fill="#B96B23"/>
<path d="M27.0945 71.0962C27.3801 70.6885 28.0149 70.1553 28.5545 69.9044C29.1258 69.6535 30.0144 69.5908 30.7762 69.6849C31.4744 69.8103 32.1409 70.0612 32.2361 70.2494C32.3631 70.4376 32.5853 70.5003 32.7122 70.4062C32.8709 70.2808 33.8548 70.3749 34.9022 70.5944C35.9496 70.8453 37.3143 71.1589 37.9173 71.3471C38.5204 71.5666 39.5995 72.037 40.2977 72.4447C40.996 72.8524 42.2338 73.7933 43.0273 74.546C43.9477 75.4241 45.0268 77.0235 47.5976 82.01H45.0585C43.662 81.9787 41.8847 82.1668 41.0912 82.355C40.2977 82.5746 38.933 83.0763 38.076 83.5154C37.1874 83.9231 36.3939 84.174 36.2987 84.0172C36.2035 83.8917 34.9657 81.5083 33.5374 78.7484C32.1409 75.9886 30.7127 73.1347 30.3953 72.4134C30.0779 71.692 29.7288 71.1589 29.5701 71.2216C29.4431 71.3157 29.4431 71.7548 29.5384 72.2252C29.6336 72.727 30.0779 73.9501 30.4588 74.985C30.8714 76.0199 32.0139 78.6542 32.9661 80.8495L32.9661 80.8497C33.95 83.0763 34.7435 85.0835 34.7435 85.3344C34.7435 85.648 34.4261 85.8048 33.6961 85.8048C33.1248 85.8048 32.0775 85.4285 31.2522 84.9267C30.4588 84.4562 29.5066 83.6408 29.1258 83.1391C28.7449 82.6059 28.2371 81.6337 27.9514 80.9437C27.6658 80.1597 27.4754 79.9402 27.4754 80.3165C27.4436 80.8497 27.3801 80.8497 27.1262 80.4733C26.9358 80.1597 26.9041 80.4733 27.031 81.4142C27.158 82.3864 27.0945 82.7314 26.8723 82.5118C26.7136 82.3237 26.3328 81.5396 26.0471 80.6929C25.7615 79.8774 25.5393 78.278 25.5393 77.1176C25.5393 75.9259 25.7615 74.2637 26.0789 73.4169C26.3645 72.5388 26.8088 71.5039 27.0945 71.0962Z" fill="#B96B23"/>
<path d="M99.3952 61.1853C99.3317 61.8752 99.2682 61.4675 99.2682 60.2444C99.2682 59.0213 99.3317 58.4882 99.3952 58.99C99.4586 59.4917 99.4586 60.4953 99.3952 61.1853Z" fill="#C6B48E"/>
<path d="M63.0545 80.0023C63.8797 80.0023 64.451 79.9082 64.3875 79.7827C64.3241 79.6259 64.4827 79.6259 64.7367 79.7827C65.0223 79.9082 65.1175 80.0964 64.9906 80.2218C64.8636 80.3473 63.9432 80.5041 62.991 80.5668C61.7532 80.6922 61.3089 80.6295 61.4358 80.3473C61.5311 80.1591 62.261 80.0023 63.0545 80.0023Z" fill="#C6B48E"/>
<path d="M57.8176 84.0793C58.1033 83.5775 58.7063 82.6994 59.2459 82.1662C59.7537 81.6017 60.3567 81.194 60.6106 81.2254C60.8328 81.2254 61.2137 81.3822 61.4041 81.5704C61.6263 81.7585 61.6898 82.3544 61.5945 83.0757C61.4993 83.7029 61.2772 84.1734 61.0867 84.0793C60.8963 83.9852 60.7059 84.2047 60.6106 84.5497C60.5154 84.8947 60.325 85.177 60.1346 85.177C59.9441 85.177 59.9124 85.4278 60.0393 85.7415C60.198 86.1178 60.1663 86.2119 59.8807 86.0551C59.6267 85.8669 59.2776 86.3373 58.8333 87.4664C58.4524 88.3445 58.0716 89.4421 57.9763 89.8812C57.8494 90.3203 57.7542 91.3238 57.7542 92.1079C57.7542 93.2996 57.9129 93.7387 58.6746 94.46C59.1507 94.9618 59.7537 95.7458 60.0076 96.2476C60.2615 96.718 60.5154 97.0944 60.6106 97.0944C60.7059 97.0944 60.6741 96.9062 60.5472 96.718C60.3779 96.4462 60.4308 96.394 60.7059 96.5612C60.8963 96.6867 61.0232 96.9376 60.928 97.0944C60.8328 97.2512 61.0867 97.408 61.4676 97.4394C62.1658 97.4394 62.1658 97.4707 61.5628 97.6903C61.1502 97.8471 60.5789 97.7216 59.8489 97.2826C59.2459 96.9062 58.3572 96.1222 57.8811 95.5263C57.405 94.9304 56.8338 93.9896 56.6433 93.4878C56.4212 92.986 56.199 91.7629 56.1355 90.8221C56.0403 89.6303 56.199 88.4699 56.6751 87.0587C57.0559 85.9296 57.5637 84.5811 57.8176 84.0793Z" fill="#C6B48E"/>
<path d="M43.6938 89.3161C43.7255 88.8457 43.8207 88.3439 43.9159 88.1871C44.0111 88.0617 44.2016 88.1244 44.2968 88.3439C44.4237 88.5948 44.4555 89.0966 44.392 89.4729C44.3285 89.8806 44.1381 90.1943 43.9477 90.1943C43.7572 90.1943 43.662 89.8179 43.6938 89.3161Z" fill="#515647"/>
<path d="M75.6229 73.7942C75.5912 73.3865 75.7499 72.9161 76.0038 72.6965C76.2577 72.477 76.6068 72.3516 76.7655 72.4143C76.9559 72.477 77.1464 72.8533 77.2098 73.2924C77.2733 73.7001 77.1146 74.2333 76.829 74.4528C76.5433 74.641 76.1942 74.7664 76.0038 74.6723C75.8134 74.5782 75.6547 74.2019 75.6229 73.7942Z" fill="#FBEDCE"/>
<path d="M75.3055 73.7305C75.2738 73.3541 75.4325 72.9151 75.6864 72.6956C75.9403 72.476 76.1942 72.3192 76.2894 72.3192C76.3846 72.3192 76.2894 72.5074 76.0673 72.7269C75.8451 72.9151 75.6864 73.4169 75.6864 73.8246C75.6864 74.2009 75.8134 74.5773 76.0038 74.6713C76.1942 74.7654 76.5433 74.64 76.7973 74.4518C77.2099 74.1382 77.3051 74.1382 77.2733 74.4518C77.2733 74.64 77.0512 74.8909 76.7973 74.985C76.5433 75.079 76.099 74.9536 75.8451 74.7654C75.5594 74.5459 75.3055 74.0755 75.3055 73.7305Z" fill="#EFDAB3"/>
<path d="M85.43 49.1751C85.5252 48.8928 85.7474 48.4538 85.9378 48.2656V48.2343C86.0965 48.0461 86.5409 47.8579 86.9217 47.8579C87.2708 47.8579 87.8421 48.1088 88.1595 48.4224C88.4769 48.7047 88.7308 49.0497 88.6991 49.1751C88.6991 49.3319 88.223 49.3946 87.6517 49.3633C87.1121 49.3319 86.3187 49.426 85.9061 49.5201C85.3348 49.7082 85.2396 49.6455 85.43 49.1751Z" fill="#231512"/>
<path d="M59.5631 53.848C59.7852 53.2835 60.42 52.5308 60.9278 52.2172C61.4357 51.9036 61.9752 51.6527 62.1022 51.6527C62.2609 51.6527 62.7369 51.8408 63.213 52.0917C63.7208 52.3113 64.3873 52.9071 64.7365 53.4089C65.2443 54.1302 65.3712 54.8202 65.3712 56.8274C65.3395 58.2073 65.2443 59.6813 65.1173 60.1203C64.9904 60.6221 64.3873 61.1866 62.0704 62.4725L60.8644 61.5002C60.1661 60.9357 59.4679 60.0262 59.2457 59.3049C58.9918 58.5522 58.8966 57.4546 58.9918 56.5137C59.087 55.6356 59.3409 54.4439 59.5631 53.848Z" fill="#231512"/>
<path d="M85.0174 54.6948C85.1126 54.0675 85.557 53.1894 86.0013 52.7503C86.5091 52.2172 87.1121 51.9663 87.8104 51.9663C88.3817 51.9663 89.1434 52.1545 89.4925 52.4054C89.8417 52.6562 90.0321 52.9699 89.9051 53.1267C89.7782 53.2521 89.8099 53.6285 89.9686 53.9107C90.159 54.2243 90.4447 54.3811 90.6351 54.2243C90.8256 54.0989 91.1112 54.2243 91.2699 54.4752C91.4286 54.7261 91.5555 55.7924 91.5555 56.8274C91.5555 58.0191 91.3334 59.1168 90.9843 59.7753C90.6986 60.3712 89.9369 61.1239 89.3338 61.4689C88.5933 61.887 87.9585 62.0229 87.4295 61.8766C86.9852 61.7825 86.2869 61.3748 85.8426 61.0298C85.1761 60.4653 85.0174 60.0262 84.9222 58.1132C84.8587 56.8901 84.8904 55.3534 85.0174 54.6948Z" fill="#231512"/>
<path d="M65.1491 66.7063C64.4826 65.9222 63.9113 65.0441 63.943 64.7305C63.943 64.4482 64.0382 64.1973 64.1652 64.1973C64.3239 64.2287 64.9586 64.7932 65.5934 65.4518C66.2917 66.1731 67.8786 67.2081 69.2433 67.8667C71.6872 69.027 71.7824 69.0584 79.3362 69.0584L81.7166 67.7726C83.4939 66.8317 84.2557 66.2359 84.7318 65.3577C85.0809 64.6991 85.6204 64.1973 85.9061 64.1973C86.2235 64.1973 86.4774 64.3855 86.4774 64.5737C86.4774 64.7932 86.0965 65.5459 85.5887 66.2359C85.0809 66.9258 84.1605 67.9607 83.5257 68.4939C82.8909 69.0584 81.4627 69.9679 80.3518 70.501C78.9871 71.191 77.781 71.536 76.321 71.6301C74.6389 71.7555 73.8137 71.6301 71.8776 70.9401C70.5764 70.501 68.799 69.6856 67.9421 69.1211C67.0851 68.5566 65.8156 67.4903 65.1491 66.7063Z" fill="#231512"/>
<path d="M100.918 78.2787C101.268 77.9024 102.124 77.1811 102.823 76.6793C103.711 76.0207 104.124 75.8953 104.219 76.1775C104.283 76.397 103.997 76.8361 103.584 77.1497C103.172 77.4633 102.378 77.9965 101.871 78.3415C101.363 78.6551 100.76 78.9373 100.601 78.9373C100.411 78.9373 100.569 78.6551 100.918 78.2787Z" fill="#231512"/>
<path d="M38.1712 78.0587C37.6951 77.4941 37.2825 76.8983 37.2825 76.7101C37.2825 76.5219 37.4094 76.3965 37.5999 76.3965C37.7903 76.3965 38.2664 76.8669 38.679 77.4001C39.1233 77.9646 39.3772 78.5604 39.282 78.7486C39.1868 78.9368 38.679 78.5918 38.1712 78.0587Z" fill="#472015"/>
<path d="M62.261 54.6636C61.8802 54.7263 61.7215 54.5695 61.7532 54.0991C61.7744 53.6809 61.9542 53.5032 62.2928 53.5659C62.6102 53.6286 62.8323 53.8795 62.8323 54.1304C62.8323 54.3813 62.5784 54.6322 62.261 54.6636Z" fill="#FBEDCE"/>
<path d="M87.7471 54.9145C87.4932 54.9145 87.2393 54.6008 87.2075 54.1931C87.1441 53.6286 87.271 53.4718 87.6836 53.5659C87.9693 53.6286 88.2232 53.9423 88.2232 54.2872C88.2232 54.6322 88.001 54.9145 87.7471 54.9145Z" fill="#FBEDCE"/>
<ellipse cx="3.11851" cy="1.60209" rx="3.11851" ry="1.60209" transform="matrix(0.977207 -0.212287 0.217131 0.976143 53.7646 63.8922)" fill="#FC9D97"/>
<ellipse cx="2.76544" cy="1.56268" rx="2.76544" ry="1.56268" transform="matrix(0.98661 0.163097 -0.166893 0.985975 90.4202 62.1382)" fill="#FC9D97"/>
<path d="M41.9092 104.746H101.187C101.187 109.923 96.991 114.119 91.8144 114.119H41.9092V104.746Z" fill="#EFDAB3"/>
</svg>
