<svg width="657" height="657" viewBox="0 0 657 657" fill="none" xmlns="http://www.w3.org/2000/svg">
<mask id="mask0_333_58" style="mask-type:luminance" maskUnits="userSpaceOnUse" x="0" y="0" width="657" height="657">
<path d="M11.1339 328.634L11.1348 328.567V328.5C11.1348 152.866 152.885 11.1109 328.512 11.1109C504.139 11.1109 645.889 152.866 645.889 328.5C645.889 504.134 504.139 645.889 328.512 645.889C152.761 645.889 9.02068 504.041 11.1339 328.634Z" fill="white" stroke="white" stroke-width="22.2218"/>
</mask>
<g mask="url(#mask0_333_58)">
<path d="M166.445 179.574L-122.625 558.444L-45.9778 646.044L168.634 361.344L146.735 516.834L267.181 558.444L413.906 324.114C407.336 367.914 396.386 468.654 492.743 499.314C643.847 545.304 775.243 273.744 836.56 135.774L748.963 89.7842C681.076 232.134 575.96 389.814 534.351 378.864C492.743 367.914 529.971 234.324 554.061 148.914V146.724L420.475 100.734L260.611 361.344L282.51 218.994L166.445 179.574Z" stroke="#D8CA00" stroke-width="50" stroke-linecap="round" stroke-linejoin="round"/>
</g>
</svg>
